{"glyphs":{"0":{"ha":1068,"x_min":69,"x_max":997,"o":"m 535 -17 q 323 17 411 -17 q 178 114 235 50 q 96 269 122 178 q 69 478 69 360 q 96 687 69 596 q 178 842 122 778 q 322 938 233 906 q 533 971 410 971 q 745 938 657 971 q 890 842 833 906 q 972 687 946 778 q 997 478 997 596 q 972 269 997 360 q 890 114 946 178 q 747 17 835 50 q 535 -17 658 -17 m 535 142 q 674 176 622 142 q 750 278 726 210 q 774 449 774 346 l 774 510 q 750 678 774 611 q 674 779 726 746 q 535 813 622 813 q 396 779 449 813 q 319 678 343 746 q 296 510 296 611 l 296 449 q 319 278 296 346 q 396 176 343 210 q 535 142 449 142 z "},"1":{"ha":949,"x_min":103,"x_max":915,"o":"m 103 0 l 103 181 l 413 181 l 413 692 l 103 692 l 103 818 q 258 840 182 824 q 406 886 335 857 q 540 957 478 915 l 629 957 l 629 181 l 915 181 l 915 0 l 103 0 z "},"2":{"ha":1063,"x_min":74,"x_max":986,"o":"m 74 0 l 74 57 q 105 183 74 126 q 189 285 136 239 q 306 370 242 331 q 436 444 369 410 q 585 525 515 488 q 700 602 656 563 q 744 689 744 642 q 722 752 744 725 q 652 794 699 779 q 533 810 606 810 q 402 789 454 810 q 325 734 350 768 q 300 657 300 700 l 300 621 l 85 621 q 82 639 83 631 q 81 658 81 647 q 138 828 81 758 q 303 934 196 897 q 556 971 410 971 q 726 954 649 971 q 859 903 803 938 q 946 816 915 868 q 976 694 976 764 q 944 569 976 625 q 859 470 913 514 q 742 391 806 426 q 613 326 678 356 q 510 281 560 303 q 422 237 460 258 q 363 190 383 215 l 986 190 l 986 0 l 74 0 z "},"3":{"ha":1072,"x_min":63,"x_max":1001,"o":"m 538 -17 q 272 19 378 -17 q 115 119 167 56 q 63 261 63 182 l 63 286 l 279 286 l 279 264 q 340 174 279 207 q 514 142 400 142 q 710 180 644 142 q 775 289 775 218 q 747 362 775 336 q 671 398 718 388 q 568 408 624 408 l 414 408 l 414 560 l 554 560 q 647 572 603 560 q 719 613 690 585 q 747 685 747 640 q 719 753 747 724 q 643 797 692 782 q 529 813 594 813 q 419 797 469 813 q 338 756 368 782 q 307 693 307 729 l 307 675 l 97 675 l 97 707 q 151 840 97 781 q 306 935 206 900 q 546 971 407 971 q 773 938 678 971 q 919 848 868 906 q 969 713 969 790 q 944 613 969 656 q 878 542 919 569 q 786 499 836 514 l 786 493 q 943 420 885 475 q 1001 258 1001 365 q 948 117 1001 179 q 791 19 894 54 q 538 -17 688 -17 z "},"4":{"ha":1047,"x_min":33,"x_max":1011,"o":"m 619 0 l 619 211 l 33 211 l 33 381 q 159 556 97 460 q 274 757 221 651 q 361 971 326 863 l 599 971 q 556 848 586 914 q 484 714 525 782 q 397 582 443 646 q 306 466 351 518 q 225 378 261 414 l 619 378 l 619 622 q 653 681 636 650 q 688 745 671 713 q 717 808 704 778 q 740 863 731 838 l 838 863 l 838 378 l 1011 378 l 1011 211 l 838 211 l 838 0 l 619 0 z "},"5":{"ha":1072,"x_min":65,"x_max":1003,"o":"m 550 -17 q 286 24 394 -17 q 122 138 178 65 q 65 304 65 210 l 278 304 q 312 217 279 254 q 401 161 344 181 q 529 142 458 142 q 647 160 590 142 q 741 218 704 179 q 778 317 778 257 q 747 411 778 374 q 663 467 717 449 q 538 486 610 486 q 440 476 486 486 q 359 446 394 465 q 303 396 324 426 l 114 421 l 164 954 l 925 954 l 925 765 l 338 765 l 317 560 q 380 592 339 575 q 478 623 421 610 q 603 636 535 636 q 811 601 721 636 q 952 494 901 565 q 1003 315 1003 424 q 949 142 1003 217 q 792 25 894 67 q 550 -17 689 -17 z "},"6":{"ha":1075,"x_min":69,"x_max":1013,"o":"m 547 -17 q 342 10 431 -17 q 192 93 253 38 q 101 238 132 149 q 69 451 69 328 q 101 690 69 592 q 195 851 133 789 q 347 942 257 913 q 554 971 438 971 q 782 934 688 971 q 928 828 876 897 q 979 658 979 758 l 767 658 q 740 747 767 713 q 665 797 713 781 q 553 813 617 813 q 399 777 456 813 q 319 674 343 742 q 296 507 296 607 q 389 573 336 549 q 499 607 442 597 q 606 617 556 617 q 819 581 728 617 q 962 476 911 544 q 1013 314 1013 408 q 953 135 1013 210 q 790 22 894 61 q 547 -17 685 -17 m 546 142 q 678 162 624 142 q 760 219 732 182 q 789 307 789 257 q 762 392 789 356 q 681 448 735 428 q 549 468 628 468 q 417 448 472 468 q 333 390 363 428 q 304 304 304 353 q 333 219 304 256 q 415 163 361 183 q 546 142 469 142 z "},"7":{"ha":979,"x_min":28,"x_max":960,"o":"m 239 0 q 274 220 239 115 q 368 421 308 325 q 502 603 428 517 q 654 764 576 689 l 28 764 l 28 954 l 960 954 l 960 847 q 825 713 892 783 q 699 565 758 642 q 594 408 640 489 q 523 244 549 328 q 497 75 497 160 l 497 0 l 239 0 z "},"8":{"ha":1092,"x_min":65,"x_max":1025,"o":"m 546 -17 q 284 16 392 -17 q 121 110 176 49 q 65 257 65 171 q 118 398 65 342 q 263 488 171 454 q 142 583 178 532 q 106 700 106 635 q 159 844 106 783 q 312 938 213 904 q 546 971 411 971 q 779 938 681 971 q 931 844 878 904 q 985 700 985 783 q 949 583 985 635 q 829 488 914 532 q 973 398 921 454 q 1025 257 1025 342 q 970 110 1025 171 q 808 16 915 49 q 546 -17 701 -17 m 546 142 q 734 177 669 142 q 799 274 799 213 q 734 374 799 339 q 546 410 669 410 q 357 374 421 410 q 293 274 293 339 q 358 177 293 213 q 546 142 422 142 m 546 564 q 722 597 658 564 q 786 692 786 631 q 724 781 786 750 q 546 813 661 813 q 368 781 431 813 q 306 692 306 750 q 369 597 306 631 q 546 564 433 564 z "},"9":{"ha":1075,"x_min":63,"x_max":1006,"o":"m 521 -17 q 294 20 389 -17 q 148 127 199 57 q 97 296 97 197 l 308 296 q 335 208 308 242 q 411 158 363 174 q 522 142 460 142 q 677 177 621 142 q 756 281 733 213 q 779 447 779 349 q 688 382 742 407 q 578 347 635 357 q 471 338 521 338 q 257 374 349 338 q 114 478 165 410 q 63 642 63 547 q 122 819 63 746 q 287 932 182 893 q 529 971 392 971 q 733 944 644 971 q 883 862 822 918 q 974 716 943 806 q 1006 503 1006 626 q 974 264 1006 363 q 880 103 942 165 q 728 13 818 42 q 521 -17 638 -17 m 528 486 q 660 507 606 486 q 742 565 714 528 q 771 651 771 601 q 742 735 771 699 q 660 792 714 772 q 529 813 607 813 q 399 792 454 813 q 315 735 344 772 q 286 647 286 699 q 313 564 286 600 q 394 507 340 528 q 528 486 449 486 z "},"A":{"ha":1275,"x_min":29,"x_max":1246,"o":"m 29 0 l 503 954 l 772 954 l 1246 0 l 985 0 l 901 172 l 358 172 l 275 0 l 29 0 m 446 357 l 814 357 l 713 575 q 694 617 707 589 q 670 674 682 644 q 649 726 658 703 q 636 756 639 750 l 625 756 q 599 693 614 728 q 570 626 583 658 q 547 574 557 593 l 446 357 z "},"Á":{"ha":1275,"x_min":29,"x_max":1246,"o":"m 29 0 l 503 954 l 772 954 l 1246 0 l 985 0 l 901 172 l 358 172 l 275 0 l 29 0 m 446 357 l 814 357 l 713 575 q 694 617 707 589 q 670 674 682 644 q 649 726 658 703 q 636 756 639 750 l 625 756 q 599 693 614 728 q 570 626 583 658 q 547 574 557 593 l 446 357 m 499 1036 l 660 1221 l 907 1221 l 907 1214 l 679 1036 l 499 1036 z "},"Ă":{"ha":1275,"x_min":29,"x_max":1246,"o":"m 29 0 l 503 954 l 772 954 l 1246 0 l 985 0 l 901 172 l 358 172 l 275 0 l 29 0 m 446 357 l 814 357 l 713 575 q 694 617 707 589 q 670 674 682 644 q 649 726 658 703 q 636 756 639 750 l 625 756 q 599 693 614 728 q 570 626 583 658 q 547 574 557 593 l 446 357 m 636 1035 q 476 1063 539 1035 q 382 1135 413 1092 q 351 1221 351 1178 l 476 1221 q 502 1186 482 1203 q 557 1158 522 1169 q 636 1147 592 1147 q 723 1160 689 1147 q 776 1190 757 1172 q 797 1221 794 1207 l 922 1221 q 891 1135 922 1178 q 796 1063 860 1092 q 636 1035 732 1035 z "},"Ắ":{"ha":1275,"x_min":29,"x_max":1246,"o":"m 29 0 l 503 954 l 772 954 l 1246 0 l 985 0 l 901 172 l 358 172 l 275 0 l 29 0 m 446 357 l 814 357 l 713 575 q 694 617 707 589 q 670 674 682 644 q 649 726 658 703 q 636 756 639 750 l 625 756 q 599 693 614 728 q 570 626 583 658 q 547 574 557 593 l 446 357 m 636 1035 q 476 1063 539 1035 q 382 1135 413 1092 q 351 1221 351 1178 l 476 1221 q 502 1186 482 1203 q 557 1158 522 1169 q 636 1147 592 1147 q 723 1160 689 1147 q 776 1190 757 1172 q 797 1221 794 1207 l 922 1221 q 891 1135 922 1178 q 796 1063 860 1092 q 636 1035 732 1035 m 499 1251 l 660 1436 l 907 1436 l 907 1429 l 679 1251 l 499 1251 z "},"Ặ":{"ha":1275,"x_min":29,"x_max":1246,"o":"m 29 0 l 503 954 l 772 954 l 1246 0 l 985 0 l 901 172 l 358 172 l 275 0 l 29 0 m 446 357 l 814 357 l 713 575 q 694 617 707 589 q 670 674 682 644 q 649 726 658 703 q 636 756 639 750 l 625 756 q 599 693 614 728 q 570 626 583 658 q 547 574 557 593 l 446 357 m 538 -275 l 538 -106 l 738 -106 l 738 -275 l 538 -275 m 636 1035 q 476 1063 539 1035 q 382 1135 413 1092 q 351 1221 351 1178 l 476 1221 q 502 1186 482 1203 q 557 1158 522 1169 q 636 1147 592 1147 q 723 1160 689 1147 q 776 1190 757 1172 q 797 1221 794 1207 l 922 1221 q 891 1135 922 1178 q 796 1063 860 1092 q 636 1035 732 1035 z "},"Ằ":{"ha":1275,"x_min":29,"x_max":1246,"o":"m 29 0 l 503 954 l 772 954 l 1246 0 l 985 0 l 901 172 l 358 172 l 275 0 l 29 0 m 446 357 l 814 357 l 713 575 q 694 617 707 589 q 670 674 682 644 q 649 726 658 703 q 636 756 639 750 l 625 756 q 599 693 614 728 q 570 626 583 658 q 547 574 557 593 l 446 357 m 636 1035 q 476 1063 539 1035 q 382 1135 413 1092 q 351 1221 351 1178 l 476 1221 q 502 1186 482 1203 q 557 1158 522 1169 q 636 1147 592 1147 q 723 1160 689 1147 q 776 1190 757 1172 q 797 1221 794 1207 l 922 1221 q 891 1135 922 1178 q 796 1063 860 1092 q 636 1035 732 1035 m 758 1251 l 579 1251 l 351 1429 l 351 1436 l 599 1436 l 758 1251 z "},"Ẳ":{"ha":1275,"x_min":29,"x_max":1246,"o":"m 29 0 l 503 954 l 772 954 l 1246 0 l 985 0 l 901 172 l 358 172 l 275 0 l 29 0 m 446 357 l 814 357 l 713 575 q 694 617 707 589 q 670 674 682 644 q 649 726 658 703 q 636 756 639 750 l 625 756 q 599 693 614 728 q 570 626 583 658 q 547 574 557 593 l 446 357 m 636 1035 q 476 1063 539 1035 q 382 1135 413 1092 q 351 1221 351 1178 l 476 1221 q 502 1186 482 1203 q 557 1158 522 1169 q 636 1147 592 1147 q 723 1160 689 1147 q 776 1190 757 1172 q 797 1221 794 1207 l 922 1221 q 891 1135 922 1178 q 796 1063 860 1092 q 636 1035 732 1035 m 581 1243 l 581 1324 l 589 1324 q 640 1328 629 1324 q 651 1343 651 1332 q 637 1365 651 1361 q 593 1368 622 1368 l 485 1368 l 485 1438 q 532 1444 503 1442 q 590 1449 561 1447 q 636 1450 619 1450 q 697 1445 664 1450 q 758 1430 729 1440 q 806 1402 786 1419 q 825 1357 825 1385 q 806 1314 825 1331 q 758 1289 788 1297 q 694 1279 729 1281 l 694 1243 l 581 1243 z "},"Ẵ":{"ha":1275,"x_min":29,"x_max":1246,"o":"m 29 0 l 503 954 l 772 954 l 1246 0 l 985 0 l 901 172 l 358 172 l 275 0 l 29 0 m 446 357 l 814 357 l 713 575 q 694 617 707 589 q 670 674 682 644 q 649 726 658 703 q 636 756 639 750 l 625 756 q 599 693 614 728 q 570 626 583 658 q 547 574 557 593 l 446 357 m 636 1035 q 476 1063 539 1035 q 382 1135 413 1092 q 351 1221 351 1178 l 476 1221 q 502 1186 482 1203 q 557 1158 522 1169 q 636 1147 592 1147 q 723 1160 689 1147 q 776 1190 757 1172 q 797 1221 794 1207 l 922 1221 q 891 1135 922 1178 q 796 1063 860 1092 q 636 1035 732 1035 m 307 1247 q 333 1328 310 1288 q 401 1398 357 1369 q 507 1426 444 1426 q 606 1412 558 1426 q 700 1383 654 1397 q 788 1368 746 1368 q 838 1385 819 1368 q 863 1426 856 1403 l 968 1426 q 942 1344 967 1386 q 872 1274 917 1301 q 767 1246 828 1246 q 669 1260 718 1246 q 574 1290 619 1275 q 488 1304 529 1304 q 436 1287 454 1304 q 410 1247 418 1269 l 307 1247 z "},"Ǎ":{"ha":1275,"x_min":29,"x_max":1246,"o":"m 29 0 l 503 954 l 772 954 l 1246 0 l 985 0 l 901 172 l 358 172 l 275 0 l 29 0 m 446 357 l 814 357 l 713 575 q 694 617 707 589 q 670 674 682 644 q 649 726 658 703 q 636 756 639 750 l 625 756 q 599 693 614 728 q 570 626 583 658 q 547 574 557 593 l 446 357 m 336 1221 l 506 1221 l 682 1064 l 589 1064 l 765 1221 l 939 1221 l 718 1024 l 556 1024 l 336 1221 z "},"Â":{"ha":1275,"x_min":29,"x_max":1246,"o":"m 29 0 l 503 954 l 772 954 l 1246 0 l 985 0 l 901 172 l 358 172 l 275 0 l 29 0 m 446 357 l 814 357 l 713 575 q 694 617 707 589 q 670 674 682 644 q 649 726 658 703 q 636 756 639 750 l 625 756 q 599 693 614 728 q 570 626 583 658 q 547 574 557 593 l 446 357 m 336 1024 l 556 1221 l 718 1221 l 939 1024 l 765 1024 l 589 1181 l 682 1181 l 506 1024 l 336 1024 z "},"Ấ":{"ha":1275,"x_min":29,"x_max":1246,"o":"m 29 0 l 503 954 l 772 954 l 1246 0 l 985 0 l 901 172 l 358 172 l 275 0 l 29 0 m 446 357 l 814 357 l 713 575 q 694 617 707 589 q 670 674 682 644 q 649 726 658 703 q 636 756 639 750 l 625 756 q 599 693 614 728 q 570 626 583 658 q 547 574 557 593 l 446 357 m 336 1024 l 556 1221 l 718 1221 l 939 1024 l 765 1024 l 589 1181 l 682 1181 l 506 1024 l 336 1024 m 499 1263 l 660 1447 l 907 1447 l 907 1440 l 679 1263 l 499 1263 z "},"Ậ":{"ha":1275,"x_min":29,"x_max":1246,"o":"m 29 0 l 503 954 l 772 954 l 1246 0 l 985 0 l 901 172 l 358 172 l 275 0 l 29 0 m 446 357 l 814 357 l 713 575 q 694 617 707 589 q 670 674 682 644 q 649 726 658 703 q 636 756 639 750 l 625 756 q 599 693 614 728 q 570 626 583 658 q 547 574 557 593 l 446 357 m 538 -275 l 538 -106 l 738 -106 l 738 -275 l 538 -275 m 336 1024 l 556 1221 l 718 1221 l 939 1024 l 765 1024 l 589 1181 l 682 1181 l 506 1024 l 336 1024 z "},"Ầ":{"ha":1275,"x_min":29,"x_max":1246,"o":"m 29 0 l 503 954 l 772 954 l 1246 0 l 985 0 l 901 172 l 358 172 l 275 0 l 29 0 m 446 357 l 814 357 l 713 575 q 694 617 707 589 q 670 674 682 644 q 649 726 658 703 q 636 756 639 750 l 625 756 q 599 693 614 728 q 570 626 583 658 q 547 574 557 593 l 446 357 m 336 1024 l 556 1221 l 718 1221 l 939 1024 l 765 1024 l 589 1181 l 682 1181 l 506 1024 l 336 1024 m 758 1263 l 579 1263 l 351 1440 l 351 1447 l 599 1447 l 758 1263 z "},"Ẩ":{"ha":1275,"x_min":29,"x_max":1246,"o":"m 29 0 l 503 954 l 772 954 l 1246 0 l 985 0 l 901 172 l 358 172 l 275 0 l 29 0 m 446 357 l 814 357 l 713 575 q 694 617 707 589 q 670 674 682 644 q 649 726 658 703 q 636 756 639 750 l 625 756 q 599 693 614 728 q 570 626 583 658 q 547 574 557 593 l 446 357 m 336 1024 l 556 1221 l 718 1221 l 939 1024 l 765 1024 l 589 1181 l 682 1181 l 506 1024 l 336 1024 m 581 1254 l 581 1335 l 589 1335 q 640 1339 629 1335 q 651 1354 651 1343 q 637 1376 651 1372 q 593 1379 622 1379 l 485 1379 l 485 1449 q 532 1456 503 1453 q 590 1460 561 1458 q 636 1461 619 1461 q 697 1456 664 1461 q 758 1441 729 1451 q 806 1413 786 1431 q 825 1367 825 1396 q 806 1325 825 1342 q 758 1300 788 1308 q 694 1290 729 1292 l 694 1254 l 581 1254 z "},"Ẫ":{"ha":1275,"x_min":29,"x_max":1246,"o":"m 29 0 l 503 954 l 772 954 l 1246 0 l 985 0 l 901 172 l 358 172 l 275 0 l 29 0 m 446 357 l 814 357 l 713 575 q 694 617 707 589 q 670 674 682 644 q 649 726 658 703 q 636 756 639 750 l 625 756 q 599 693 614 728 q 570 626 583 658 q 547 574 557 593 l 446 357 m 336 1024 l 556 1221 l 718 1221 l 939 1024 l 765 1024 l 589 1181 l 682 1181 l 506 1024 l 336 1024 m 307 1258 q 333 1340 310 1299 q 401 1408 357 1381 q 507 1436 444 1436 q 606 1422 558 1436 q 700 1394 654 1408 q 788 1379 746 1379 q 838 1397 819 1379 q 863 1436 856 1414 l 968 1436 q 942 1355 967 1397 q 872 1285 917 1313 q 767 1257 828 1257 q 669 1272 718 1257 q 574 1300 619 1286 q 488 1314 529 1314 q 436 1297 454 1314 q 410 1258 418 1279 l 307 1258 z "},"Ȁ":{"ha":1275,"x_min":29,"x_max":1246,"o":"m 29 0 l 503 954 l 772 954 l 1246 0 l 985 0 l 901 172 l 358 172 l 275 0 l 29 0 m 446 357 l 814 357 l 713 575 q 694 617 707 589 q 670 674 682 644 q 649 726 658 703 q 636 756 639 750 l 625 756 q 599 693 614 728 q 570 626 583 658 q 547 574 557 593 l 446 357 m 753 1036 l 563 1211 l 563 1221 l 792 1221 l 904 1036 l 753 1036 m 421 1036 l 231 1211 l 231 1221 l 460 1221 l 572 1036 l 421 1036 z "},"Ä":{"ha":1275,"x_min":29,"x_max":1246,"o":"m 29 0 l 503 954 l 772 954 l 1246 0 l 985 0 l 901 172 l 358 172 l 275 0 l 29 0 m 446 357 l 814 357 l 713 575 q 694 617 707 589 q 670 674 682 644 q 649 726 658 703 q 636 756 639 750 l 625 756 q 599 693 614 728 q 570 626 583 658 q 547 574 557 593 l 446 357 m 358 1047 l 358 1219 l 557 1219 l 557 1047 l 358 1047 m 717 1047 l 717 1219 l 917 1219 l 917 1047 l 717 1047 z "},"Ạ":{"ha":1275,"x_min":29,"x_max":1246,"o":"m 29 0 l 503 954 l 772 954 l 1246 0 l 985 0 l 901 172 l 358 172 l 275 0 l 29 0 m 446 357 l 814 357 l 713 575 q 694 617 707 589 q 670 674 682 644 q 649 726 658 703 q 636 756 639 750 l 625 756 q 599 693 614 728 q 570 626 583 658 q 547 574 557 593 l 446 357 m 538 -275 l 538 -106 l 738 -106 l 738 -275 l 538 -275 z "},"À":{"ha":1275,"x_min":29,"x_max":1246,"o":"m 29 0 l 503 954 l 772 954 l 1246 0 l 985 0 l 901 172 l 358 172 l 275 0 l 29 0 m 446 357 l 814 357 l 713 575 q 694 617 707 589 q 670 674 682 644 q 649 726 658 703 q 636 756 639 750 l 625 756 q 599 693 614 728 q 570 626 583 658 q 547 574 557 593 l 446 357 m 758 1036 l 579 1036 l 351 1214 l 351 1221 l 599 1221 l 758 1036 z "},"Ả":{"ha":1275,"x_min":29,"x_max":1246,"o":"m 29 0 l 503 954 l 772 954 l 1246 0 l 985 0 l 901 172 l 358 172 l 275 0 l 29 0 m 446 357 l 814 357 l 713 575 q 694 617 707 589 q 670 674 682 644 q 649 726 658 703 q 636 756 639 750 l 625 756 q 599 693 614 728 q 570 626 583 658 q 547 574 557 593 l 446 357 m 581 1028 l 581 1108 l 589 1108 q 640 1113 629 1108 q 651 1128 651 1117 q 637 1149 651 1146 q 593 1153 622 1153 l 485 1153 l 485 1222 q 532 1229 503 1226 q 590 1233 561 1232 q 636 1235 619 1235 q 697 1231 664 1235 q 758 1215 729 1226 q 806 1187 786 1204 q 825 1142 825 1169 q 806 1099 825 1115 q 758 1074 788 1082 q 694 1064 729 1065 l 694 1028 l 581 1028 z "},"Ȃ":{"ha":1275,"x_min":29,"x_max":1246,"o":"m 29 0 l 503 954 l 772 954 l 1246 0 l 985 0 l 901 172 l 358 172 l 275 0 l 29 0 m 446 357 l 814 357 l 713 575 q 694 617 707 589 q 670 674 682 644 q 649 726 658 703 q 636 756 639 750 l 625 756 q 599 693 614 728 q 570 626 583 658 q 547 574 557 593 l 446 357 m 351 1031 q 382 1117 351 1075 q 476 1188 413 1160 q 636 1217 539 1217 q 796 1188 732 1217 q 891 1117 860 1160 q 922 1031 922 1075 l 797 1031 q 776 1063 794 1046 q 723 1092 757 1079 q 636 1104 689 1104 q 557 1093 592 1104 q 502 1066 522 1082 q 476 1031 482 1050 l 351 1031 z "},"Ā":{"ha":1275,"x_min":29,"x_max":1246,"o":"m 29 0 l 503 954 l 772 954 l 1246 0 l 985 0 l 901 172 l 358 172 l 275 0 l 29 0 m 446 357 l 814 357 l 713 575 q 694 617 707 589 q 670 674 682 644 q 649 726 658 703 q 636 756 639 750 l 625 756 q 599 693 614 728 q 570 626 583 658 q 547 574 557 593 l 446 357 m 369 1053 l 369 1167 l 906 1167 l 906 1053 l 369 1053 z "},"Ą":{"ha":1275,"x_min":29,"x_max":1256,"o":"m 29 0 l 503 954 l 772 954 l 1246 0 l 985 0 l 901 172 l 358 172 l 275 0 l 29 0 m 446 357 l 814 357 l 713 575 q 694 617 707 589 q 670 674 682 644 q 649 726 658 703 q 636 756 639 750 l 625 756 q 599 693 614 728 q 570 626 583 658 q 547 574 557 593 l 446 357 m 1104 -275 q 1019 -261 1060 -275 q 951 -215 978 -247 q 925 -131 925 -183 q 948 -45 925 -81 q 1001 17 971 -10 l 1132 17 l 1132 11 q 1088 -33 1107 -6 q 1069 -90 1069 -60 q 1091 -144 1069 -119 q 1156 -168 1113 -168 l 1256 -168 l 1256 -256 q 1180 -270 1222 -265 q 1104 -275 1138 -275 z "},"Å":{"ha":1275,"x_min":29,"x_max":1246,"o":"m 29 0 l 503 954 l 772 954 l 1246 0 l 985 0 l 901 172 l 358 172 l 275 0 l 29 0 m 446 357 l 814 357 l 713 575 q 694 617 707 589 q 670 674 682 644 q 649 726 658 703 q 636 756 639 750 l 625 756 q 599 693 614 728 q 569 626 583 658 q 547 574 556 593 l 446 357 m 636 1003 q 531 1044 572 1003 q 489 1147 489 1085 q 531 1252 489 1211 q 638 1293 572 1293 q 743 1253 701 1293 q 785 1149 785 1213 q 743 1044 785 1085 q 636 1003 701 1003 m 636 1082 q 687 1100 667 1082 q 707 1147 707 1118 q 687 1197 707 1178 q 636 1215 667 1215 q 587 1197 607 1215 q 567 1149 567 1178 q 587 1101 567 1119 q 636 1082 607 1082 z "},"Ǻ":{"ha":1275,"x_min":29,"x_max":1246,"o":"m 29 0 l 503 954 l 772 954 l 1246 0 l 985 0 l 901 172 l 358 172 l 275 0 l 29 0 m 446 357 l 814 357 l 713 575 q 694 617 707 589 q 670 674 682 644 q 649 726 658 703 q 636 756 639 750 l 625 756 q 599 693 614 728 q 569 626 583 658 q 547 574 556 593 l 446 357 m 636 1003 q 531 1044 572 1003 q 489 1147 489 1085 q 531 1252 489 1211 q 638 1293 572 1293 q 743 1253 701 1293 q 785 1149 785 1213 q 743 1044 785 1085 q 636 1003 701 1003 m 636 1082 q 687 1100 667 1082 q 707 1147 707 1118 q 687 1197 707 1178 q 636 1215 667 1215 q 587 1197 607 1215 q 567 1149 567 1178 q 587 1101 567 1119 q 636 1082 607 1082 m 499 1346 l 660 1531 l 907 1531 l 907 1524 l 679 1346 l 499 1346 z "},"Ã":{"ha":1275,"x_min":29,"x_max":1246,"o":"m 29 0 l 503 954 l 772 954 l 1246 0 l 985 0 l 901 172 l 358 172 l 275 0 l 29 0 m 446 357 l 814 357 l 713 575 q 694 617 707 589 q 670 674 682 644 q 649 726 658 703 q 636 756 639 750 l 625 756 q 599 693 614 728 q 570 626 583 658 q 547 574 557 593 l 446 357 m 307 1032 q 333 1114 310 1072 q 401 1183 357 1156 q 507 1211 444 1211 q 606 1197 558 1211 q 700 1167 654 1182 q 788 1153 746 1153 q 838 1170 819 1153 q 863 1211 856 1188 l 968 1211 q 942 1128 967 1171 q 872 1058 917 1086 q 767 1031 828 1031 q 669 1045 718 1031 q 574 1074 619 1060 q 488 1089 529 1089 q 436 1072 454 1089 q 410 1032 418 1054 l 307 1032 z "},"Æ":{"ha":1772,"x_min":-3,"x_max":1688,"o":"m -3 0 l 597 954 l 1676 954 l 1676 765 l 926 765 l 992 578 l 1592 578 l 1592 392 l 1057 392 l 1128 190 l 1688 190 l 1688 0 l 947 0 l 889 172 l 351 172 l 244 0 l -3 0 m 467 361 l 826 361 l 754 578 q 742 618 749 593 q 726 670 735 643 q 712 718 718 697 q 704 743 706 739 l 693 743 q 671 703 683 726 q 644 657 658 681 q 619 613 631 633 q 597 576 607 592 l 467 361 z "},"Ǽ":{"ha":1772,"x_min":-3,"x_max":1688,"o":"m -3 0 l 597 954 l 1676 954 l 1676 765 l 926 765 l 992 578 l 1592 578 l 1592 392 l 1057 392 l 1128 190 l 1688 190 l 1688 0 l 947 0 l 889 172 l 351 172 l 244 0 l -3 0 m 467 361 l 826 361 l 754 578 q 742 618 749 593 q 726 670 735 643 q 712 718 718 697 q 704 743 706 739 l 693 743 q 671 703 683 726 q 644 657 658 681 q 619 613 631 633 q 597 576 607 592 l 467 361 m 807 1036 l 968 1221 l 1214 1221 l 1214 1214 l 988 1036 l 807 1036 z "},"B":{"ha":1254,"x_min":128,"x_max":1181,"o":"m 128 0 l 128 954 l 885 954 q 1022 924 961 954 q 1119 842 1083 894 q 1156 718 1156 789 q 1134 617 1156 661 q 1076 543 1113 572 q 994 500 1039 514 l 994 494 q 1090 453 1047 483 q 1156 374 1132 422 q 1181 261 1181 326 q 1141 117 1181 175 q 1035 29 1101 58 q 886 0 968 0 l 128 0 m 368 186 l 822 186 q 903 212 872 186 q 935 292 935 238 q 922 346 935 322 q 882 383 908 369 q 817 396 856 396 l 368 396 l 368 186 m 368 574 l 799 574 q 859 586 835 574 q 897 622 883 599 q 910 672 910 644 q 881 746 910 721 q 804 771 851 771 l 368 771 l 368 574 z "},"C":{"ha":1311,"x_min":86,"x_max":1226,"o":"m 678 -17 q 350 40 482 -17 q 152 206 218 96 q 86 478 86 317 q 238 842 86 714 q 676 971 389 971 q 963 924 839 971 q 1156 789 1086 876 q 1225 581 1225 701 l 990 581 q 951 690 990 644 q 840 758 911 735 q 672 782 768 782 q 490 747 567 782 q 374 649 414 713 q 333 496 333 585 l 333 461 q 374 308 333 372 q 490 208 414 243 q 672 174 567 174 q 846 196 774 174 q 958 263 918 218 q 997 371 997 307 l 1226 371 q 1158 165 1226 253 q 967 31 1090 78 q 678 -17 844 -17 z "},"Ć":{"ha":1311,"x_min":86,"x_max":1226,"o":"m 678 -17 q 350 40 482 -17 q 152 206 218 96 q 86 478 86 317 q 238 842 86 714 q 676 971 389 971 q 963 924 839 971 q 1156 789 1086 876 q 1225 581 1225 701 l 990 581 q 951 690 990 644 q 840 758 911 735 q 672 782 768 782 q 490 747 567 782 q 374 649 414 713 q 333 496 333 585 l 333 461 q 374 308 333 372 q 490 208 414 243 q 672 174 567 174 q 846 196 774 174 q 958 263 918 218 q 997 371 997 307 l 1226 371 q 1158 165 1226 253 q 967 31 1090 78 q 678 -17 844 -17 m 538 1036 l 699 1221 l 944 1221 l 944 1214 l 718 1036 l 538 1036 z "},"Č":{"ha":1311,"x_min":86,"x_max":1226,"o":"m 678 -17 q 350 40 482 -17 q 152 206 218 96 q 86 478 86 317 q 238 842 86 714 q 676 971 389 971 q 963 924 839 971 q 1156 789 1086 876 q 1225 581 1225 701 l 990 581 q 951 690 990 644 q 840 758 911 735 q 672 782 768 782 q 490 747 567 782 q 374 649 414 713 q 333 496 333 585 l 333 461 q 374 308 333 372 q 490 208 414 243 q 672 174 567 174 q 846 196 774 174 q 958 263 918 218 q 997 371 997 307 l 1226 371 q 1158 165 1226 253 q 967 31 1090 78 q 678 -17 844 -17 m 374 1221 l 543 1221 l 719 1064 l 628 1064 l 804 1221 l 978 1221 l 757 1024 l 594 1024 l 374 1221 z "},"Ç":{"ha":1311,"x_min":86,"x_max":1226,"o":"m 678 -17 q 350 40 482 -17 q 152 206 218 96 q 86 478 86 317 q 238 842 86 714 q 676 971 389 971 q 963 924 839 971 q 1156 789 1086 876 q 1225 581 1225 701 l 990 581 q 951 690 990 644 q 840 758 911 735 q 672 782 768 782 q 490 747 567 782 q 374 649 414 713 q 333 496 333 585 l 333 461 q 374 308 333 372 q 490 208 414 243 q 672 174 567 174 q 846 196 774 174 q 958 263 918 218 q 997 371 997 307 l 1226 371 q 1158 165 1226 253 q 967 31 1090 78 q 678 -17 844 -17 m 685 -275 q 581 -271 635 -275 q 493 -258 528 -267 l 493 -189 l 678 -189 q 722 -183 706 -189 q 739 -154 739 -176 q 726 -128 739 -135 q 681 -121 713 -121 l 590 -121 l 622 42 l 740 42 l 724 -46 q 798 -58 764 -47 q 853 -93 832 -69 q 874 -160 874 -117 q 856 -218 874 -194 q 810 -253 839 -242 q 749 -270 782 -265 q 685 -275 715 -275 z "},"Ĉ":{"ha":1311,"x_min":86,"x_max":1226,"o":"m 678 -17 q 350 40 482 -17 q 152 206 218 96 q 86 478 86 317 q 238 842 86 714 q 676 971 389 971 q 963 924 839 971 q 1156 789 1086 876 q 1225 581 1225 701 l 990 581 q 951 690 990 644 q 840 758 911 735 q 672 782 768 782 q 490 747 567 782 q 374 649 414 713 q 333 496 333 585 l 333 461 q 374 308 333 372 q 490 208 414 243 q 672 174 567 174 q 846 196 774 174 q 958 263 918 218 q 997 371 997 307 l 1226 371 q 1158 165 1226 253 q 967 31 1090 78 q 678 -17 844 -17 m 374 1024 l 594 1221 l 757 1221 l 978 1024 l 804 1024 l 628 1181 l 719 1181 l 543 1024 l 374 1024 z "},"Ċ":{"ha":1311,"x_min":86,"x_max":1226,"o":"m 678 -17 q 350 40 482 -17 q 152 206 218 96 q 86 478 86 317 q 238 842 86 714 q 676 971 389 971 q 963 924 839 971 q 1156 789 1086 876 q 1225 581 1225 701 l 990 581 q 951 690 990 644 q 840 758 911 735 q 672 782 768 782 q 490 747 567 782 q 374 649 414 713 q 333 496 333 585 l 333 461 q 374 308 333 372 q 490 208 414 243 q 672 174 567 174 q 846 196 774 174 q 958 263 918 218 q 997 371 997 307 l 1226 371 q 1158 165 1226 253 q 967 31 1090 78 q 678 -17 844 -17 m 576 1047 l 576 1219 l 775 1219 l 775 1047 l 576 1047 z "},"D":{"ha":1297,"x_min":128,"x_max":1211,"o":"m 128 0 l 128 954 l 646 954 q 949 899 822 954 q 1143 738 1075 844 q 1211 476 1211 632 q 1143 216 1211 322 q 949 55 1075 110 q 646 0 822 0 l 128 0 m 368 190 l 633 190 q 766 208 706 190 q 871 259 826 225 q 939 344 915 293 q 963 461 963 394 l 963 493 q 939 610 963 560 q 871 695 915 661 q 766 747 826 729 q 633 765 706 765 l 368 765 l 368 190 z "},"Ǆ":{"ha":2454,"x_min":128,"x_max":2372,"o":"m 128 0 l 128 954 l 646 954 q 949 899 822 954 q 1143 738 1075 844 q 1211 476 1211 632 q 1143 216 1211 322 q 949 55 1075 110 q 646 0 822 0 l 128 0 m 368 190 l 633 190 q 766 208 706 190 q 871 259 826 225 q 939 344 915 293 q 963 461 963 394 l 963 493 q 939 610 963 560 q 871 695 915 661 q 766 747 826 729 q 633 765 706 765 l 368 765 l 368 190 m 1340 0 l 1340 97 l 1961 765 l 1383 765 l 1383 954 l 2365 954 l 2365 858 l 1742 190 l 2372 190 l 2372 0 l 1340 0 m 1561 1221 l 1731 1221 l 1907 1064 l 1814 1064 l 1990 1221 l 2164 1221 l 1943 1024 l 1781 1024 l 1561 1221 z "},"Ð":{"ha":1297,"x_min":0,"x_max":1211,"o":"m 0 393 l 0 563 l 656 563 l 656 393 l 0 393 m 128 0 l 128 954 l 646 954 q 949 899 822 954 q 1143 738 1075 844 q 1211 476 1211 632 q 1143 216 1211 322 q 949 55 1075 110 q 646 0 822 0 l 128 0 m 368 190 l 633 190 q 766 208 706 190 q 871 259 826 225 q 939 344 915 293 q 963 461 963 394 l 963 493 q 939 610 963 560 q 871 695 915 661 q 766 747 826 729 q 633 765 706 765 l 368 765 l 368 190 z "},"Ď":{"ha":1297,"x_min":128,"x_max":1211,"o":"m 128 0 l 128 954 l 646 954 q 949 899 822 954 q 1143 738 1075 844 q 1211 476 1211 632 q 1143 216 1211 322 q 949 55 1075 110 q 646 0 822 0 l 128 0 m 368 190 l 633 190 q 766 208 706 190 q 871 259 826 225 q 939 344 915 293 q 963 461 963 394 l 963 493 q 939 610 963 560 q 871 695 915 661 q 766 747 826 729 q 633 765 706 765 l 368 765 l 368 190 m 347 1221 l 517 1221 l 693 1064 l 600 1064 l 776 1221 l 950 1221 l 729 1024 l 567 1024 l 347 1221 z "},"Đ":{"ha":1297,"x_min":0,"x_max":1211,"o":"m 0 393 l 0 563 l 656 563 l 656 393 l 0 393 m 128 0 l 128 954 l 646 954 q 949 899 822 954 q 1143 738 1075 844 q 1211 476 1211 632 q 1143 216 1211 322 q 949 55 1075 110 q 646 0 822 0 l 128 0 m 368 190 l 633 190 q 766 208 706 190 q 871 259 826 225 q 939 344 915 293 q 963 461 963 394 l 963 493 q 939 610 963 560 q 871 695 915 661 q 766 747 826 729 q 633 765 706 765 l 368 765 l 368 190 z "},"ǅ":{"ha":2190,"x_min":128,"x_max":2149,"o":"m 128 0 l 128 954 l 646 954 q 949 899 822 954 q 1143 738 1075 844 q 1211 476 1211 632 q 1143 216 1211 322 q 949 55 1075 110 q 646 0 822 0 l 128 0 m 368 190 l 633 190 q 766 208 706 190 q 871 259 826 225 q 939 344 915 293 q 963 461 963 394 l 963 493 q 939 610 963 560 q 871 695 915 661 q 766 747 826 729 q 633 765 706 765 l 368 765 l 368 190 m 1338 0 l 1338 83 l 1785 574 l 1368 574 l 1368 732 l 2131 732 l 2131 653 l 1681 158 l 2149 158 l 2149 0 l 1338 0 m 1449 1006 l 1618 1006 l 1794 849 l 1701 849 l 1879 1006 l 2053 1006 l 1831 808 l 1668 808 l 1449 1006 z "},"E":{"ha":1201,"x_min":128,"x_max":1117,"o":"m 128 0 l 128 954 l 1106 954 l 1106 765 l 368 765 l 368 578 l 1019 578 l 1019 392 l 368 392 l 368 190 l 1117 190 l 1117 0 l 128 0 z "},"É":{"ha":1201,"x_min":128,"x_max":1117,"o":"m 128 0 l 128 954 l 1106 954 l 1106 765 l 368 765 l 368 578 l 1019 578 l 1019 392 l 368 392 l 368 190 l 1117 190 l 1117 0 l 128 0 m 483 1036 l 644 1221 l 890 1221 l 890 1214 l 664 1036 l 483 1036 z "},"Ĕ":{"ha":1201,"x_min":128,"x_max":1117,"o":"m 128 0 l 128 954 l 1106 954 l 1106 765 l 368 765 l 368 578 l 1019 578 l 1019 392 l 368 392 l 368 190 l 1117 190 l 1117 0 l 128 0 m 619 1035 q 460 1063 524 1035 q 365 1135 396 1092 q 335 1221 335 1178 l 461 1221 q 485 1186 465 1203 q 540 1158 506 1169 q 619 1147 575 1147 q 706 1160 672 1147 q 760 1189 740 1172 q 781 1221 779 1206 l 906 1221 q 874 1135 906 1178 q 780 1063 843 1092 q 619 1035 717 1035 z "},"Ě":{"ha":1201,"x_min":128,"x_max":1117,"o":"m 128 0 l 128 954 l 1106 954 l 1106 765 l 368 765 l 368 578 l 1019 578 l 1019 392 l 368 392 l 368 190 l 1117 190 l 1117 0 l 128 0 m 319 1221 l 489 1221 l 665 1064 l 572 1064 l 750 1221 l 924 1221 l 701 1024 l 539 1024 l 319 1221 z "},"Ê":{"ha":1201,"x_min":128,"x_max":1117,"o":"m 128 0 l 128 954 l 1106 954 l 1106 765 l 368 765 l 368 578 l 1019 578 l 1019 392 l 368 392 l 368 190 l 1117 190 l 1117 0 l 128 0 m 319 1024 l 539 1221 l 701 1221 l 924 1024 l 750 1024 l 572 1181 l 665 1181 l 489 1024 l 319 1024 z "},"Ế":{"ha":1201,"x_min":128,"x_max":1117,"o":"m 128 0 l 128 954 l 1106 954 l 1106 765 l 368 765 l 368 578 l 1019 578 l 1019 392 l 368 392 l 368 190 l 1117 190 l 1117 0 l 128 0 m 319 1024 l 539 1221 l 701 1221 l 924 1024 l 750 1024 l 572 1181 l 665 1181 l 489 1024 l 319 1024 m 483 1263 l 644 1447 l 890 1447 l 890 1440 l 664 1263 l 483 1263 z "},"Ệ":{"ha":1201,"x_min":128,"x_max":1117,"o":"m 128 0 l 128 954 l 1106 954 l 1106 765 l 368 765 l 368 578 l 1019 578 l 1019 392 l 368 392 l 368 190 l 1117 190 l 1117 0 l 128 0 m 522 -275 l 522 -106 l 721 -106 l 721 -275 l 522 -275 m 319 1024 l 539 1221 l 701 1221 l 924 1024 l 750 1024 l 572 1181 l 665 1181 l 489 1024 l 319 1024 z "},"Ề":{"ha":1201,"x_min":128,"x_max":1117,"o":"m 128 0 l 128 954 l 1106 954 l 1106 765 l 368 765 l 368 578 l 1019 578 l 1019 392 l 368 392 l 368 190 l 1117 190 l 1117 0 l 128 0 m 319 1024 l 539 1221 l 701 1221 l 924 1024 l 750 1024 l 572 1181 l 665 1181 l 489 1024 l 319 1024 m 743 1263 l 563 1263 l 335 1440 l 335 1447 l 582 1447 l 743 1263 z "},"Ể":{"ha":1201,"x_min":128,"x_max":1117,"o":"m 128 0 l 128 954 l 1106 954 l 1106 765 l 368 765 l 368 578 l 1019 578 l 1019 392 l 368 392 l 368 190 l 1117 190 l 1117 0 l 128 0 m 319 1024 l 539 1221 l 701 1221 l 924 1024 l 750 1024 l 572 1181 l 665 1181 l 489 1024 l 319 1024 m 564 1254 l 564 1335 l 574 1335 q 624 1339 613 1335 q 636 1354 636 1343 q 621 1376 636 1372 q 576 1379 606 1379 l 468 1379 l 468 1449 q 515 1455 486 1453 q 574 1459 544 1457 q 619 1461 603 1461 q 680 1456 647 1461 q 742 1441 713 1451 q 790 1413 771 1431 q 808 1367 808 1396 q 790 1325 808 1342 q 742 1300 771 1308 q 678 1290 713 1292 l 678 1254 l 564 1254 z "},"Ễ":{"ha":1201,"x_min":128,"x_max":1117,"o":"m 128 0 l 128 954 l 1106 954 l 1106 765 l 368 765 l 368 578 l 1019 578 l 1019 392 l 368 392 l 368 190 l 1117 190 l 1117 0 l 128 0 m 319 1024 l 539 1221 l 701 1221 l 924 1024 l 750 1024 l 572 1181 l 665 1181 l 489 1024 l 319 1024 m 292 1258 q 317 1340 293 1299 q 384 1408 340 1381 q 490 1436 428 1436 q 590 1422 542 1436 q 683 1394 638 1408 q 772 1379 729 1379 q 822 1397 804 1379 q 846 1436 839 1414 l 951 1436 q 925 1355 950 1397 q 856 1285 900 1313 q 750 1257 813 1257 q 653 1272 701 1257 q 558 1300 604 1286 q 471 1314 513 1314 q 420 1297 439 1314 q 394 1258 401 1279 l 292 1258 z "},"Ȅ":{"ha":1201,"x_min":128,"x_max":1117,"o":"m 128 0 l 128 954 l 1106 954 l 1106 765 l 368 765 l 368 578 l 1019 578 l 1019 392 l 368 392 l 368 190 l 1117 190 l 1117 0 l 128 0 m 738 1036 l 547 1211 l 547 1221 l 775 1221 l 889 1036 l 738 1036 m 406 1036 l 215 1211 l 215 1221 l 443 1221 l 557 1036 l 406 1036 z "},"Ë":{"ha":1201,"x_min":128,"x_max":1117,"o":"m 128 0 l 128 954 l 1106 954 l 1106 765 l 368 765 l 368 578 l 1019 578 l 1019 392 l 368 392 l 368 190 l 1117 190 l 1117 0 l 128 0 m 342 1047 l 342 1219 l 540 1219 l 540 1047 l 342 1047 m 700 1047 l 700 1219 l 900 1219 l 900 1047 l 700 1047 z "},"Ė":{"ha":1201,"x_min":128,"x_max":1117,"o":"m 128 0 l 128 954 l 1106 954 l 1106 765 l 368 765 l 368 578 l 1019 578 l 1019 392 l 368 392 l 368 190 l 1117 190 l 1117 0 l 128 0 m 522 1047 l 522 1219 l 721 1219 l 721 1047 l 522 1047 z "},"Ẹ":{"ha":1201,"x_min":128,"x_max":1117,"o":"m 128 0 l 128 954 l 1106 954 l 1106 765 l 368 765 l 368 578 l 1019 578 l 1019 392 l 368 392 l 368 190 l 1117 190 l 1117 0 l 128 0 m 522 -275 l 522 -106 l 721 -106 l 721 -275 l 522 -275 z "},"È":{"ha":1201,"x_min":128,"x_max":1117,"o":"m 128 0 l 128 954 l 1106 954 l 1106 765 l 368 765 l 368 578 l 1019 578 l 1019 392 l 368 392 l 368 190 l 1117 190 l 1117 0 l 128 0 m 743 1036 l 563 1036 l 335 1214 l 335 1221 l 582 1221 l 743 1036 z "},"Ẻ":{"ha":1201,"x_min":128,"x_max":1117,"o":"m 128 0 l 128 954 l 1106 954 l 1106 765 l 368 765 l 368 578 l 1019 578 l 1019 392 l 368 392 l 368 190 l 1117 190 l 1117 0 l 128 0 m 564 1028 l 564 1108 l 574 1108 q 624 1113 613 1108 q 636 1128 636 1117 q 621 1149 636 1146 q 576 1153 606 1153 l 468 1153 l 468 1222 q 515 1228 486 1226 q 574 1233 544 1231 q 619 1235 603 1235 q 680 1231 647 1235 q 742 1215 713 1226 q 790 1187 771 1204 q 808 1142 808 1169 q 790 1099 808 1115 q 742 1074 771 1082 q 678 1064 713 1065 l 678 1028 l 564 1028 z "},"Ȇ":{"ha":1201,"x_min":128,"x_max":1117,"o":"m 128 0 l 128 954 l 1106 954 l 1106 765 l 368 765 l 368 578 l 1019 578 l 1019 392 l 368 392 l 368 190 l 1117 190 l 1117 0 l 128 0 m 335 1031 q 365 1117 335 1075 q 460 1188 396 1160 q 619 1217 524 1217 q 780 1188 717 1217 q 874 1117 843 1160 q 906 1031 906 1075 l 781 1031 q 759 1063 778 1046 q 706 1092 740 1079 q 619 1104 672 1104 q 540 1093 575 1104 q 485 1066 506 1082 q 461 1031 465 1050 l 335 1031 z "},"Ē":{"ha":1201,"x_min":128,"x_max":1117,"o":"m 128 0 l 128 954 l 1106 954 l 1106 765 l 368 765 l 368 578 l 1019 578 l 1019 392 l 368 392 l 368 190 l 1117 190 l 1117 0 l 128 0 m 353 1053 l 353 1167 l 889 1167 l 889 1053 l 353 1053 z "},"Ę":{"ha":1201,"x_min":128,"x_max":1117,"o":"m 128 0 l 128 954 l 1106 954 l 1106 765 l 368 765 l 368 578 l 1019 578 l 1019 392 l 368 392 l 368 190 l 1117 190 l 1117 0 l 128 0 m 964 -275 q 880 -261 921 -275 q 812 -215 839 -247 q 785 -131 785 -183 q 808 -45 785 -81 q 863 17 832 -10 l 993 17 l 993 11 q 949 -33 968 -6 q 931 -90 931 -60 q 952 -144 931 -119 q 1017 -168 974 -168 l 1117 -168 l 1117 -256 q 1041 -270 1083 -265 q 964 -275 999 -275 z "},"Ẽ":{"ha":1201,"x_min":128,"x_max":1117,"o":"m 128 0 l 128 954 l 1106 954 l 1106 765 l 368 765 l 368 578 l 1019 578 l 1019 392 l 368 392 l 368 190 l 1117 190 l 1117 0 l 128 0 m 292 1032 q 317 1114 293 1072 q 384 1183 340 1156 q 490 1211 428 1211 q 590 1197 542 1211 q 683 1167 638 1182 q 772 1153 729 1153 q 822 1170 804 1153 q 846 1211 839 1188 l 951 1211 q 925 1128 950 1171 q 856 1058 900 1086 q 750 1031 813 1031 q 653 1045 701 1031 q 558 1074 604 1060 q 471 1089 513 1089 q 420 1072 439 1089 q 394 1032 401 1054 l 292 1032 z "},"F":{"ha":1101,"x_min":128,"x_max":1049,"o":"m 128 0 l 128 954 l 1049 954 l 1049 765 l 368 765 l 368 550 l 979 550 l 979 360 l 368 360 l 368 0 l 128 0 z "},"G":{"ha":1407,"x_min":86,"x_max":1289,"o":"m 665 -17 q 231 106 376 -17 q 86 476 86 228 q 160 749 86 639 q 376 915 235 860 q 714 971 517 971 q 944 949 839 971 q 1126 883 1049 928 q 1246 772 1204 839 q 1288 615 1288 706 l 1054 615 q 1027 693 1054 661 q 953 744 1000 725 q 848 773 907 764 q 724 782 789 782 q 565 765 638 782 q 441 712 493 747 q 360 622 389 676 q 332 494 332 568 l 332 461 q 376 295 332 358 q 503 203 421 232 q 699 174 585 174 q 895 194 817 174 q 1014 256 974 215 q 1054 351 1054 296 l 1054 361 l 689 361 l 689 533 l 1289 533 l 1289 0 l 1144 0 l 1121 121 q 998 42 1068 72 q 844 -2 928 13 q 665 -17 760 -17 z "},"Ğ":{"ha":1407,"x_min":86,"x_max":1289,"o":"m 665 -17 q 231 106 376 -17 q 86 476 86 228 q 160 749 86 639 q 376 915 235 860 q 714 971 517 971 q 944 949 839 971 q 1126 883 1049 928 q 1246 772 1204 839 q 1288 615 1288 706 l 1054 615 q 1027 693 1054 661 q 953 744 1000 725 q 848 773 907 764 q 724 782 789 782 q 565 765 638 782 q 441 712 493 747 q 360 622 389 676 q 332 494 332 568 l 332 461 q 376 295 332 358 q 503 203 421 232 q 699 174 585 174 q 895 194 817 174 q 1014 256 974 215 q 1054 351 1054 296 l 1054 361 l 689 361 l 689 533 l 1289 533 l 1289 0 l 1144 0 l 1121 121 q 998 42 1068 72 q 844 -2 928 13 q 665 -17 760 -17 m 703 1035 q 544 1063 607 1035 q 449 1135 481 1092 q 418 1221 418 1178 l 544 1221 q 569 1186 549 1203 q 624 1158 589 1169 q 703 1147 658 1147 q 790 1160 756 1147 q 842 1190 824 1172 q 864 1221 861 1207 l 989 1221 q 958 1135 989 1178 q 863 1063 926 1092 q 703 1035 800 1035 z "},"Ǧ":{"ha":1407,"x_min":86,"x_max":1289,"o":"m 665 -17 q 231 106 376 -17 q 86 476 86 228 q 160 749 86 639 q 376 915 235 860 q 714 971 517 971 q 944 949 839 971 q 1126 883 1049 928 q 1246 772 1204 839 q 1288 615 1288 706 l 1054 615 q 1027 693 1054 661 q 953 744 1000 725 q 848 773 907 764 q 724 782 789 782 q 565 765 638 782 q 441 712 493 747 q 360 622 389 676 q 332 494 332 568 l 332 461 q 376 295 332 358 q 503 203 421 232 q 699 174 585 174 q 895 194 817 174 q 1014 256 974 215 q 1054 351 1054 296 l 1054 361 l 689 361 l 689 533 l 1289 533 l 1289 0 l 1144 0 l 1121 121 q 998 42 1068 72 q 844 -2 928 13 q 665 -17 760 -17 m 403 1221 l 572 1221 l 749 1064 l 656 1064 l 833 1221 l 1007 1221 l 786 1024 l 624 1024 l 403 1221 z "},"Ĝ":{"ha":1407,"x_min":86,"x_max":1289,"o":"m 665 -17 q 231 106 376 -17 q 86 476 86 228 q 160 749 86 639 q 376 915 235 860 q 714 971 517 971 q 944 949 839 971 q 1126 883 1049 928 q 1246 772 1204 839 q 1288 615 1288 706 l 1054 615 q 1027 693 1054 661 q 953 744 1000 725 q 848 773 907 764 q 724 782 789 782 q 565 765 638 782 q 441 712 493 747 q 360 622 389 676 q 332 494 332 568 l 332 461 q 376 295 332 358 q 503 203 421 232 q 699 174 585 174 q 895 194 817 174 q 1014 256 974 215 q 1054 351 1054 296 l 1054 361 l 689 361 l 689 533 l 1289 533 l 1289 0 l 1144 0 l 1121 121 q 998 42 1068 72 q 844 -2 928 13 q 665 -17 760 -17 m 403 1024 l 624 1221 l 786 1221 l 1007 1024 l 833 1024 l 656 1181 l 749 1181 l 572 1024 l 403 1024 z "},"Ģ":{"ha":1407,"x_min":86,"x_max":1289,"o":"m 665 -17 q 231 106 376 -17 q 86 476 86 228 q 160 749 86 639 q 376 915 235 860 q 714 971 517 971 q 944 949 839 971 q 1126 883 1049 928 q 1246 772 1204 839 q 1288 615 1288 706 l 1054 615 q 1027 693 1054 661 q 953 744 1000 725 q 848 773 907 764 q 724 782 789 782 q 565 765 638 782 q 441 712 493 747 q 360 622 389 676 q 332 494 332 568 l 332 461 q 376 295 332 358 q 503 203 421 232 q 699 174 585 174 q 895 194 817 174 q 1014 256 974 215 q 1054 351 1054 296 l 1054 361 l 689 361 l 689 533 l 1289 533 l 1289 0 l 1144 0 l 1121 121 q 998 42 1068 72 q 844 -2 928 13 q 665 -17 760 -17 m 575 -550 l 575 -449 q 665 -408 633 -442 q 696 -317 696 -374 l 585 -317 l 585 -100 l 825 -100 l 825 -290 q 798 -426 825 -371 q 715 -512 771 -482 q 575 -550 660 -542 z "},"Ġ":{"ha":1407,"x_min":86,"x_max":1289,"o":"m 665 -17 q 231 106 376 -17 q 86 476 86 228 q 160 749 86 639 q 376 915 235 860 q 714 971 517 971 q 944 949 839 971 q 1126 883 1049 928 q 1246 772 1204 839 q 1288 615 1288 706 l 1054 615 q 1027 693 1054 661 q 953 744 1000 725 q 848 773 907 764 q 724 782 789 782 q 565 765 638 782 q 441 712 493 747 q 360 622 389 676 q 332 494 332 568 l 332 461 q 376 295 332 358 q 503 203 421 232 q 699 174 585 174 q 895 194 817 174 q 1014 256 974 215 q 1054 351 1054 296 l 1054 361 l 689 361 l 689 533 l 1289 533 l 1289 0 l 1144 0 l 1121 121 q 998 42 1068 72 q 844 -2 928 13 q 665 -17 760 -17 m 606 1047 l 606 1219 l 804 1219 l 804 1047 l 606 1047 z "},"H":{"ha":1354,"x_min":128,"x_max":1226,"o":"m 128 0 l 128 954 l 368 954 l 368 588 l 986 588 l 986 954 l 1226 954 l 1226 0 l 986 0 l 986 385 l 368 385 l 368 0 l 128 0 z "},"Ħ":{"ha":1354,"x_min":-4,"x_max":1358,"o":"m 128 0 l 128 954 l 368 954 l 368 588 l 986 588 l 986 954 l 1226 954 l 1226 0 l 986 0 l 986 385 l 368 385 l 368 0 l 128 0 m -4 703 l -4 846 l 1358 846 l 1358 703 l -4 703 z "},"Ĥ":{"ha":1354,"x_min":128,"x_max":1226,"o":"m 128 0 l 128 954 l 368 954 l 368 588 l 986 588 l 986 954 l 1226 954 l 1226 0 l 986 0 l 986 385 l 368 385 l 368 0 l 128 0 m 376 1024 l 596 1221 l 758 1221 l 979 1024 l 806 1024 l 629 1181 l 722 1181 l 546 1024 l 376 1024 z "},"Ḥ":{"ha":1354,"x_min":128,"x_max":1226,"o":"m 128 0 l 128 954 l 368 954 l 368 588 l 986 588 l 986 954 l 1226 954 l 1226 0 l 986 0 l 986 385 l 368 385 l 368 0 l 128 0 m 578 -275 l 578 -106 l 778 -106 l 778 -275 l 578 -275 z "},"I":{"ha":496,"x_min":128,"x_max":368,"o":"m 128 0 l 128 954 l 368 954 l 368 0 l 128 0 z "},"Ĳ":{"ha":1486,"x_min":128,"x_max":1379,"o":"m 128 0 l 128 954 l 368 954 l 368 0 l 128 0 m 957 -17 q 733 20 825 -17 q 591 135 640 57 q 542 333 542 213 l 542 353 l 771 353 l 771 326 q 818 212 771 250 q 949 174 865 174 q 1090 220 1040 174 q 1140 367 1140 267 l 1140 954 l 1379 954 l 1379 378 q 1328 154 1379 242 q 1183 25 1278 67 q 957 -17 1089 -17 z "},"Í":{"ha":496,"x_min":110,"x_max":517,"o":"m 128 0 l 128 954 l 368 954 l 368 0 l 128 0 m 110 1036 l 271 1221 l 517 1221 l 517 1214 l 290 1036 l 110 1036 z "},"Ĭ":{"ha":496,"x_min":-39,"x_max":532,"o":"m 128 0 l 128 954 l 368 954 l 368 0 l 128 0 m 246 1035 q 87 1063 150 1035 q -8 1135 24 1092 q -39 1221 -39 1178 l 88 1221 q 112 1186 92 1203 q 167 1158 132 1169 q 246 1147 201 1147 q 333 1160 299 1147 q 385 1190 367 1172 q 407 1221 404 1207 l 532 1221 q 501 1135 532 1178 q 406 1063 469 1092 q 246 1035 343 1035 z "},"Ǐ":{"ha":496,"x_min":-54,"x_max":550,"o":"m 128 0 l 128 954 l 368 954 l 368 0 l 128 0 m -54 1221 l 115 1221 l 292 1064 l 199 1064 l 376 1221 l 550 1221 l 329 1024 l 167 1024 l -54 1221 z "},"Î":{"ha":496,"x_min":-54,"x_max":550,"o":"m 128 0 l 128 954 l 368 954 l 368 0 l 128 0 m -54 1024 l 167 1221 l 329 1221 l 550 1024 l 376 1024 l 199 1181 l 292 1181 l 115 1024 l -54 1024 z "},"Ȉ":{"ha":496,"x_min":-158,"x_max":515,"o":"m 128 0 l 128 954 l 368 954 l 368 0 l 128 0 m 364 1036 l 174 1211 l 174 1221 l 401 1221 l 515 1036 l 364 1036 m 32 1036 l -158 1211 l -158 1221 l 69 1221 l 183 1036 l 32 1036 z "},"Ï":{"ha":496,"x_min":-31,"x_max":526,"o":"m 128 0 l 128 954 l 368 954 l 368 0 l 128 0 m -31 1047 l -31 1219 l 168 1219 l 168 1047 l -31 1047 m 326 1047 l 326 1219 l 526 1219 l 526 1047 l 326 1047 z "},"İ":{"ha":496,"x_min":128,"x_max":368,"o":"m 128 0 l 128 954 l 368 954 l 368 0 l 128 0 m 149 1047 l 149 1219 l 347 1219 l 347 1047 l 149 1047 z "},"Ị":{"ha":496,"x_min":128,"x_max":368,"o":"m 128 0 l 128 954 l 368 954 l 368 0 l 128 0 m 149 -275 l 149 -106 l 347 -106 l 347 -275 l 149 -275 z "},"Ì":{"ha":496,"x_min":-37,"x_max":369,"o":"m 128 0 l 128 954 l 368 954 l 368 0 l 128 0 m 369 1036 l 189 1036 l -37 1214 l -37 1221 l 208 1221 l 369 1036 z "},"Ỉ":{"ha":496,"x_min":94,"x_max":435,"o":"m 128 0 l 128 954 l 368 954 l 368 0 l 128 0 m 190 1028 l 190 1108 l 200 1108 q 251 1113 239 1108 q 263 1128 263 1117 q 247 1149 263 1146 q 203 1153 232 1153 l 94 1153 l 94 1222 q 142 1228 113 1226 q 200 1233 171 1231 q 247 1235 229 1235 q 306 1231 274 1235 q 368 1215 339 1226 q 416 1187 397 1204 q 435 1142 435 1169 q 416 1099 435 1115 q 368 1074 397 1082 q 304 1064 339 1065 l 304 1028 l 190 1028 z "},"Ȋ":{"ha":496,"x_min":-39,"x_max":532,"o":"m 128 0 l 128 954 l 368 954 l 368 0 l 128 0 m -39 1031 q -8 1117 -39 1075 q 87 1188 24 1160 q 246 1217 150 1217 q 406 1188 343 1217 q 501 1117 469 1160 q 532 1031 532 1075 l 407 1031 q 385 1063 404 1046 q 333 1092 367 1079 q 246 1104 299 1104 q 167 1093 201 1104 q 112 1066 132 1082 q 88 1031 92 1050 l -39 1031 z "},"Ī":{"ha":496,"x_min":-21,"x_max":515,"o":"m 128 0 l 128 954 l 368 954 l 368 0 l 128 0 m -21 1053 l -21 1167 l 515 1167 l 515 1053 l -21 1053 z "},"Į":{"ha":496,"x_min":51,"x_max":382,"o":"m 128 0 l 128 954 l 368 954 l 368 0 l 128 0 m 231 -275 q 146 -261 188 -275 q 78 -215 104 -247 q 51 -131 51 -183 q 75 -45 51 -81 q 129 17 99 -10 l 260 17 l 260 11 q 216 -33 235 -6 q 197 -90 197 -60 q 218 -144 197 -119 q 283 -168 239 -168 l 382 -168 l 382 -256 q 308 -270 350 -265 q 231 -275 265 -275 z "},"Ĩ":{"ha":496,"x_min":-82,"x_max":578,"o":"m 128 0 l 128 954 l 368 954 l 368 0 l 128 0 m -82 1032 q -57 1114 -81 1072 q 10 1183 -33 1156 q 117 1211 54 1211 q 216 1197 168 1211 q 310 1167 264 1182 q 399 1153 356 1153 q 449 1170 431 1153 q 472 1211 467 1188 l 578 1211 q 551 1128 576 1171 q 483 1058 526 1086 q 376 1031 439 1031 q 279 1045 328 1031 q 185 1074 231 1060 q 97 1089 139 1089 q 47 1072 65 1089 q 21 1032 28 1054 l -82 1032 z "},"J":{"ha":990,"x_min":46,"x_max":883,"o":"m 461 -17 q 237 20 329 -17 q 95 135 144 57 q 46 333 46 213 l 46 353 l 276 353 l 276 326 q 323 212 276 250 q 453 174 369 174 q 595 220 546 174 q 644 367 644 267 l 644 954 l 883 954 l 883 378 q 833 154 883 242 q 688 25 782 67 q 461 -17 593 -17 z "},"Ĵ":{"ha":990,"x_min":46,"x_max":1063,"o":"m 461 -17 q 237 20 329 -17 q 95 135 144 57 q 46 333 46 213 l 46 353 l 276 353 l 276 326 q 323 212 276 250 q 453 174 369 174 q 595 220 546 174 q 644 367 644 267 l 644 954 l 883 954 l 883 378 q 833 154 883 242 q 688 25 782 67 q 461 -17 593 -17 m 460 1024 l 679 1221 l 842 1221 l 1063 1024 l 890 1024 l 713 1181 l 806 1181 l 629 1024 l 460 1024 z "},"K":{"ha":1285,"x_min":128,"x_max":1246,"o":"m 128 0 l 128 954 l 368 954 l 368 461 l 928 954 l 1236 954 l 789 558 l 1246 0 l 943 0 l 613 414 l 368 215 l 368 0 l 128 0 z "},"Ķ":{"ha":1285,"x_min":128,"x_max":1246,"o":"m 128 0 l 128 954 l 368 954 l 368 461 l 928 954 l 1236 954 l 789 558 l 1246 0 l 943 0 l 613 414 l 368 215 l 368 0 l 128 0 m 506 -550 l 506 -449 q 595 -408 564 -442 q 626 -317 626 -374 l 515 -317 l 515 -100 l 756 -100 l 756 -290 q 728 -426 756 -371 q 647 -512 701 -482 q 506 -550 592 -542 z "},"L":{"ha":1014,"x_min":128,"x_max":976,"o":"m 128 0 l 128 954 l 368 954 l 368 203 l 976 203 l 976 0 l 128 0 z "},"Ǉ":{"ha":1964,"x_min":128,"x_max":1857,"o":"m 128 0 l 128 954 l 368 954 l 368 203 l 976 203 l 976 0 l 128 0 m 1435 -17 q 1210 20 1303 -17 q 1067 135 1117 57 q 1018 333 1018 213 l 1018 353 l 1249 353 l 1249 326 q 1296 212 1249 250 q 1426 174 1343 174 q 1568 220 1518 174 q 1618 367 1618 267 l 1618 954 l 1857 954 l 1857 378 q 1806 154 1857 242 q 1660 25 1754 67 q 1435 -17 1567 -17 z "},"Ĺ":{"ha":1014,"x_min":110,"x_max":976,"o":"m 128 0 l 128 954 l 368 954 l 368 203 l 976 203 l 976 0 l 128 0 m 110 1036 l 271 1221 l 517 1221 l 517 1214 l 290 1036 l 110 1036 z "},"Ľ":{"ha":1014,"x_min":128,"x_max":976,"o":"m 128 0 l 128 954 l 368 954 l 368 203 l 976 203 l 976 0 l 128 0 m 685 771 l 685 1006 l 878 1006 l 831 771 l 685 771 z "},"Ļ":{"ha":1014,"x_min":128,"x_max":976,"o":"m 128 0 l 128 954 l 368 954 l 368 203 l 976 203 l 976 0 l 128 0 m 425 -550 l 425 -449 q 515 -408 483 -442 q 546 -317 546 -374 l 435 -317 l 435 -100 l 675 -100 l 675 -290 q 648 -426 675 -371 q 565 -512 621 -482 q 425 -550 510 -542 z "},"Ŀ":{"ha":1014,"x_min":128,"x_max":976,"o":"m 128 0 l 128 954 l 368 954 l 368 203 l 976 203 l 976 0 l 128 0 m 644 443 l 644 606 l 871 606 l 871 443 l 644 443 z "},"ǈ":{"ha":1419,"x_min":128,"x_max":1328,"o":"m 128 0 l 128 954 l 368 954 l 368 203 l 976 203 l 976 0 l 128 0 m 1110 844 l 1110 1006 l 1328 1006 l 1328 844 l 1110 844 m 1081 -279 q 1031 -276 1058 -279 q 977 -268 1003 -274 q 929 -256 951 -262 l 929 -121 l 1006 -121 q 1083 -94 1056 -121 q 1110 -21 1110 -68 l 1110 732 l 1328 732 l 1328 -25 q 1305 -162 1328 -104 q 1228 -249 1282 -219 q 1081 -279 1175 -279 z "},"Ł":{"ha":1014,"x_min":0,"x_max":976,"o":"m 128 0 l 128 954 l 368 954 l 368 203 l 976 203 l 976 0 l 128 0 m 0 235 l 0 354 l 650 721 l 650 599 l 0 235 z "},"M":{"ha":1564,"x_min":128,"x_max":1436,"o":"m 128 0 l 128 954 l 501 954 l 697 494 q 723 432 708 471 q 753 350 738 393 q 782 274 769 307 l 792 274 q 818 344 803 304 q 849 425 833 385 q 875 493 864 465 l 1072 954 l 1436 954 l 1436 0 l 1197 0 l 1197 547 q 1198 606 1197 574 q 1200 668 1199 638 q 1201 722 1201 699 l 1190 722 q 1172 667 1183 699 q 1149 603 1160 635 q 1128 547 1138 571 l 892 0 l 664 0 l 428 547 q 401 612 414 579 q 380 674 389 644 q 364 722 371 703 l 353 722 q 355 675 354 704 q 356 613 356 646 q 357 547 357 579 l 357 0 l 128 0 z "},"N":{"ha":1353,"x_min":128,"x_max":1225,"o":"m 128 0 l 128 954 l 349 954 l 860 475 q 898 439 875 463 q 946 390 921 415 q 989 344 971 364 l 1001 344 q 998 414 1000 372 q 996 483 996 456 l 996 954 l 1225 954 l 1225 0 l 1008 0 l 501 479 q 426 553 465 513 q 364 618 388 593 l 353 618 q 356 557 354 600 q 357 460 357 514 l 357 0 l 128 0 z "},"Ǌ":{"ha":2343,"x_min":128,"x_max":2238,"o":"m 128 0 l 128 954 l 349 954 l 860 475 q 898 439 875 463 q 946 390 921 415 q 989 344 971 364 l 1001 344 q 998 414 1000 372 q 996 483 996 456 l 996 954 l 1225 954 l 1225 0 l 1008 0 l 501 479 q 426 553 465 513 q 364 618 388 593 l 353 618 q 356 557 354 600 q 357 460 357 514 l 357 0 l 128 0 m 1814 -17 q 1590 20 1683 -17 q 1448 135 1497 57 q 1399 333 1399 213 l 1399 353 l 1629 353 l 1629 326 q 1676 212 1629 250 q 1806 174 1722 174 q 1948 220 1899 174 q 1997 367 1997 267 l 1997 954 l 2238 954 l 2238 378 q 2186 154 2238 242 q 2041 25 2135 67 q 1814 -17 1947 -17 z "},"Ń":{"ha":1353,"x_min":128,"x_max":1225,"o":"m 128 0 l 128 954 l 349 954 l 860 475 q 898 439 875 463 q 946 390 921 415 q 989 344 971 364 l 1001 344 q 998 414 1000 372 q 996 483 996 456 l 996 954 l 1225 954 l 1225 0 l 1008 0 l 501 479 q 426 553 465 513 q 364 618 388 593 l 353 618 q 356 557 354 600 q 357 460 357 514 l 357 0 l 128 0 m 539 1036 l 700 1221 l 946 1221 l 946 1214 l 719 1036 l 539 1036 z "},"Ň":{"ha":1353,"x_min":128,"x_max":1225,"o":"m 128 0 l 128 954 l 349 954 l 860 475 q 898 439 875 463 q 946 390 921 415 q 989 344 971 364 l 1001 344 q 998 414 1000 372 q 996 483 996 456 l 996 954 l 1225 954 l 1225 0 l 1008 0 l 501 479 q 426 553 465 513 q 364 618 388 593 l 353 618 q 356 557 354 600 q 357 460 357 514 l 357 0 l 128 0 m 375 1221 l 544 1221 l 721 1064 l 629 1064 l 806 1221 l 979 1221 l 758 1024 l 596 1024 l 375 1221 z "},"Ņ":{"ha":1353,"x_min":128,"x_max":1225,"o":"m 128 0 l 128 954 l 349 954 l 860 475 q 898 439 875 463 q 946 390 921 415 q 989 344 971 364 l 1001 344 q 998 414 1000 372 q 996 483 996 456 l 996 954 l 1225 954 l 1225 0 l 1008 0 l 501 479 q 426 553 465 513 q 364 618 388 593 l 353 618 q 356 557 354 600 q 357 460 357 514 l 357 0 l 128 0 m 547 -550 l 547 -449 q 637 -408 606 -442 q 668 -317 668 -374 l 557 -317 l 557 -100 l 797 -100 l 797 -290 q 770 -426 797 -371 q 688 -512 743 -482 q 547 -550 633 -542 z "},"Ŋ":{"ha":1353,"x_min":128,"x_max":1225,"o":"m 963 -279 q 918 -276 943 -279 q 869 -269 893 -274 q 828 -260 846 -264 l 828 -118 l 893 -118 q 970 -92 943 -118 q 997 -21 997 -67 l 997 10 l 501 479 q 426 553 465 513 q 364 618 388 593 l 353 618 q 356 557 354 600 q 357 460 357 514 l 357 0 l 128 0 l 128 954 l 349 954 l 860 475 q 898 439 875 463 q 946 390 921 415 q 989 344 971 364 l 1001 344 q 998 414 1000 372 q 996 483 996 456 l 996 954 l 1225 954 l 1225 11 q 1217 -103 1225 -50 q 1184 -196 1210 -157 q 1106 -257 1158 -235 q 963 -279 1054 -279 z "},"Ɲ":{"ha":1353,"x_min":-42,"x_max":1225,"o":"m 93 -279 q 48 -276 72 -279 q -1 -269 24 -274 q -42 -260 -25 -264 l -42 -118 l 24 -118 q 101 -92 74 -118 q 128 -21 128 -67 l 128 954 l 349 954 l 860 475 q 898 439 875 463 q 946 390 921 415 q 989 344 971 364 l 1001 344 q 998 414 1000 372 q 996 483 996 456 l 996 954 l 1225 954 l 1225 0 l 1008 0 l 501 479 q 426 553 465 513 q 364 618 388 593 l 353 618 q 356 557 354 600 q 357 460 357 514 l 357 11 q 349 -103 357 -50 q 315 -196 340 -157 q 237 -257 290 -235 q 93 -279 183 -279 z "},"ǋ":{"ha":1758,"x_min":128,"x_max":1665,"o":"m 128 0 l 128 954 l 349 954 l 860 475 q 898 439 875 463 q 946 390 921 415 q 989 344 971 364 l 1001 344 q 998 414 1000 372 q 996 483 996 456 l 996 954 l 1225 954 l 1225 0 l 1008 0 l 501 479 q 426 553 465 513 q 364 618 388 593 l 353 618 q 356 557 354 600 q 357 460 357 514 l 357 0 l 128 0 m 1449 844 l 1449 1006 l 1665 1006 l 1665 844 l 1449 844 m 1419 -279 q 1369 -276 1396 -279 q 1315 -268 1342 -274 q 1268 -256 1289 -262 l 1268 -121 l 1343 -121 q 1422 -94 1394 -121 q 1449 -21 1449 -68 l 1449 732 l 1665 732 l 1665 -25 q 1643 -162 1665 -104 q 1567 -249 1621 -219 q 1419 -279 1513 -279 z "},"Ñ":{"ha":1353,"x_min":128,"x_max":1225,"o":"m 128 0 l 128 954 l 349 954 l 860 475 q 898 439 875 463 q 946 390 921 415 q 989 344 971 364 l 1001 344 q 998 414 1000 372 q 996 483 996 456 l 996 954 l 1225 954 l 1225 0 l 1008 0 l 501 479 q 426 553 465 513 q 364 618 388 593 l 353 618 q 356 557 354 600 q 357 460 357 514 l 357 0 l 128 0 m 347 1032 q 373 1114 350 1072 q 440 1183 396 1156 q 546 1211 485 1211 q 645 1197 597 1211 q 739 1167 693 1182 q 828 1153 785 1153 q 878 1170 860 1153 q 901 1211 896 1188 l 1007 1211 q 981 1128 1006 1171 q 913 1058 957 1086 q 806 1031 868 1031 q 708 1045 757 1031 q 614 1074 660 1060 q 528 1089 568 1089 q 476 1072 494 1089 q 450 1032 457 1054 l 347 1032 z "},"O":{"ha":1411,"x_min":86,"x_max":1325,"o":"m 706 -17 q 376 42 515 -17 q 161 210 236 100 q 86 478 86 321 q 161 745 86 635 q 376 913 236 856 q 706 971 515 971 q 1036 913 897 971 q 1250 745 1175 856 q 1325 478 1325 635 q 1250 210 1325 321 q 1036 42 1175 100 q 706 -17 897 -17 m 706 174 q 856 192 788 174 q 974 247 924 211 q 1051 338 1024 283 q 1078 463 1078 393 l 1078 494 q 1051 618 1078 564 q 974 708 1024 672 q 856 763 924 744 q 706 782 788 782 q 556 763 624 782 q 438 708 488 744 q 360 618 388 672 q 333 494 333 564 l 333 463 q 360 338 333 393 q 438 247 388 283 q 556 192 488 211 q 706 174 624 174 z "},"Ó":{"ha":1411,"x_min":86,"x_max":1325,"o":"m 706 -17 q 375 42 514 -17 q 161 210 236 100 q 86 478 86 321 q 161 745 86 635 q 375 913 236 856 q 706 971 514 971 q 1036 913 897 971 q 1250 745 1175 856 q 1325 478 1325 635 q 1250 210 1325 321 q 1036 42 1175 100 q 706 -17 897 -17 m 706 174 q 856 192 788 174 q 974 247 924 211 q 1051 338 1024 283 q 1078 463 1078 392 l 1078 494 q 1051 619 1078 565 q 974 708 1024 672 q 856 763 924 744 q 706 782 788 782 q 556 763 624 782 q 438 708 488 744 q 360 619 388 672 q 333 494 333 565 l 333 463 q 360 338 333 392 q 438 247 388 283 q 556 192 488 211 q 706 174 624 174 m 567 1036 l 728 1221 l 975 1221 l 975 1214 l 747 1036 l 567 1036 z "},"Ŏ":{"ha":1411,"x_min":86,"x_max":1325,"o":"m 706 -17 q 375 42 514 -17 q 161 210 236 100 q 86 478 86 321 q 161 745 86 635 q 375 913 236 856 q 706 971 514 971 q 1036 913 897 971 q 1250 745 1175 856 q 1325 478 1325 635 q 1250 210 1325 321 q 1036 42 1175 100 q 706 -17 897 -17 m 706 174 q 856 192 788 174 q 974 247 924 211 q 1051 338 1024 283 q 1078 463 1078 392 l 1078 494 q 1051 619 1078 565 q 974 708 1024 672 q 856 763 924 744 q 706 782 788 782 q 556 763 624 782 q 438 708 488 744 q 360 619 388 672 q 333 494 333 565 l 333 463 q 360 338 333 392 q 438 247 388 283 q 556 192 488 211 q 706 174 624 174 m 704 1035 q 544 1063 607 1035 q 450 1135 481 1092 q 419 1221 419 1178 l 544 1221 q 569 1186 549 1203 q 625 1158 590 1169 q 704 1147 660 1147 q 791 1160 757 1147 q 844 1190 825 1172 q 865 1221 863 1207 l 990 1221 q 959 1135 990 1178 q 864 1063 928 1092 q 704 1035 800 1035 z "},"Ǒ":{"ha":1411,"x_min":86,"x_max":1325,"o":"m 706 -17 q 375 42 514 -17 q 161 210 236 100 q 86 478 86 321 q 161 745 86 635 q 375 913 236 856 q 706 971 514 971 q 1036 913 897 971 q 1250 745 1175 856 q 1325 478 1325 635 q 1250 210 1325 321 q 1036 42 1175 100 q 706 -17 897 -17 m 706 174 q 856 192 788 174 q 974 247 924 211 q 1051 338 1024 283 q 1078 463 1078 392 l 1078 494 q 1051 619 1078 565 q 974 708 1024 672 q 856 763 924 744 q 706 782 788 782 q 556 763 624 782 q 438 708 488 744 q 360 619 388 672 q 333 494 333 565 l 333 463 q 360 338 333 392 q 438 247 388 283 q 556 192 488 211 q 706 174 624 174 m 404 1221 l 574 1221 l 750 1064 l 657 1064 l 833 1221 l 1007 1221 l 786 1024 l 624 1024 l 404 1221 z "},"Ô":{"ha":1411,"x_min":86,"x_max":1325,"o":"m 706 -17 q 375 42 514 -17 q 161 210 236 100 q 86 478 86 321 q 161 745 86 635 q 375 913 236 856 q 706 971 514 971 q 1036 913 897 971 q 1250 745 1175 856 q 1325 478 1325 635 q 1250 210 1325 321 q 1036 42 1175 100 q 706 -17 897 -17 m 706 174 q 856 192 788 174 q 974 247 924 211 q 1051 338 1024 283 q 1078 463 1078 392 l 1078 494 q 1051 619 1078 565 q 974 708 1024 672 q 856 763 924 744 q 706 782 788 782 q 556 763 624 782 q 438 708 488 744 q 360 619 388 672 q 333 494 333 565 l 333 463 q 360 338 333 392 q 438 247 388 283 q 556 192 488 211 q 706 174 624 174 m 404 1024 l 624 1221 l 786 1221 l 1007 1024 l 833 1024 l 657 1181 l 750 1181 l 574 1024 l 404 1024 z "},"Ố":{"ha":1411,"x_min":86,"x_max":1325,"o":"m 706 -17 q 375 42 514 -17 q 161 210 236 100 q 86 478 86 321 q 161 745 86 635 q 375 913 236 856 q 706 971 514 971 q 1036 913 897 971 q 1250 745 1175 856 q 1325 478 1325 635 q 1250 210 1325 321 q 1036 42 1175 100 q 706 -17 897 -17 m 706 174 q 856 192 788 174 q 974 247 924 211 q 1051 338 1024 283 q 1078 463 1078 392 l 1078 494 q 1051 619 1078 565 q 974 708 1024 672 q 856 763 924 744 q 706 782 788 782 q 556 763 624 782 q 438 708 488 744 q 360 619 388 672 q 333 494 333 565 l 333 463 q 360 338 333 392 q 438 247 388 283 q 556 192 488 211 q 706 174 624 174 m 404 1024 l 624 1221 l 786 1221 l 1007 1024 l 833 1024 l 657 1181 l 750 1181 l 574 1024 l 404 1024 m 567 1263 l 728 1447 l 975 1447 l 975 1440 l 747 1263 l 567 1263 z "},"Ộ":{"ha":1411,"x_min":86,"x_max":1325,"o":"m 706 -17 q 375 42 514 -17 q 161 210 236 100 q 86 478 86 321 q 161 745 86 635 q 375 913 236 856 q 706 971 514 971 q 1036 913 897 971 q 1250 745 1175 856 q 1325 478 1325 635 q 1250 210 1325 321 q 1036 42 1175 100 q 706 -17 897 -17 m 706 174 q 856 192 788 174 q 974 247 924 211 q 1051 338 1024 283 q 1078 463 1078 392 l 1078 494 q 1051 619 1078 565 q 974 708 1024 672 q 856 763 924 744 q 706 782 788 782 q 556 763 624 782 q 438 708 488 744 q 360 619 388 672 q 333 494 333 565 l 333 463 q 360 338 333 392 q 438 247 388 283 q 556 192 488 211 q 706 174 624 174 m 606 -275 l 606 -106 l 806 -106 l 806 -275 l 606 -275 m 404 1024 l 624 1221 l 786 1221 l 1007 1024 l 833 1024 l 657 1181 l 750 1181 l 574 1024 l 404 1024 z "},"Ồ":{"ha":1411,"x_min":86,"x_max":1325,"o":"m 706 -17 q 375 42 514 -17 q 161 210 236 100 q 86 478 86 321 q 161 745 86 635 q 375 913 236 856 q 706 971 514 971 q 1036 913 897 971 q 1250 745 1175 856 q 1325 478 1325 635 q 1250 210 1325 321 q 1036 42 1175 100 q 706 -17 897 -17 m 706 174 q 856 192 788 174 q 974 247 924 211 q 1051 338 1024 283 q 1078 463 1078 392 l 1078 494 q 1051 619 1078 565 q 974 708 1024 672 q 856 763 924 744 q 706 782 788 782 q 556 763 624 782 q 438 708 488 744 q 360 619 388 672 q 333 494 333 565 l 333 463 q 360 338 333 392 q 438 247 388 283 q 556 192 488 211 q 706 174 624 174 m 404 1024 l 624 1221 l 786 1221 l 1007 1024 l 833 1024 l 657 1181 l 750 1181 l 574 1024 l 404 1024 m 826 1263 l 647 1263 l 419 1440 l 419 1447 l 667 1447 l 826 1263 z "},"Ổ":{"ha":1411,"x_min":86,"x_max":1325,"o":"m 706 -17 q 375 42 514 -17 q 161 210 236 100 q 86 478 86 321 q 161 745 86 635 q 375 913 236 856 q 706 971 514 971 q 1036 913 897 971 q 1250 745 1175 856 q 1325 478 1325 635 q 1250 210 1325 321 q 1036 42 1175 100 q 706 -17 897 -17 m 706 174 q 856 192 788 174 q 974 247 924 211 q 1051 338 1024 283 q 1078 463 1078 392 l 1078 494 q 1051 619 1078 565 q 974 708 1024 672 q 856 763 924 744 q 706 782 788 782 q 556 763 624 782 q 438 708 488 744 q 360 619 388 672 q 333 494 333 565 l 333 463 q 360 338 333 392 q 438 247 388 283 q 556 192 488 211 q 706 174 624 174 m 404 1024 l 624 1221 l 786 1221 l 1007 1024 l 833 1024 l 657 1181 l 750 1181 l 574 1024 l 404 1024 m 649 1254 l 649 1335 l 657 1335 q 708 1339 697 1335 q 719 1354 719 1343 q 705 1376 719 1372 q 661 1379 690 1379 l 553 1379 l 553 1449 q 600 1456 571 1453 q 658 1460 629 1458 q 704 1461 686 1461 q 763 1456 731 1461 q 825 1441 796 1451 q 873 1413 854 1431 q 892 1367 892 1396 q 874 1325 892 1342 q 826 1300 856 1308 q 763 1290 797 1292 l 763 1254 l 649 1254 z "},"Ỗ":{"ha":1411,"x_min":86,"x_max":1325,"o":"m 706 -17 q 375 42 514 -17 q 161 210 236 100 q 86 478 86 321 q 161 745 86 635 q 375 913 236 856 q 706 971 514 971 q 1036 913 897 971 q 1250 745 1175 856 q 1325 478 1325 635 q 1250 210 1325 321 q 1036 42 1175 100 q 706 -17 897 -17 m 706 174 q 856 192 788 174 q 974 247 924 211 q 1051 338 1024 283 q 1078 463 1078 392 l 1078 494 q 1051 619 1078 565 q 974 708 1024 672 q 856 763 924 744 q 706 782 788 782 q 556 763 624 782 q 438 708 488 744 q 360 619 388 672 q 333 494 333 565 l 333 463 q 360 338 333 392 q 438 247 388 283 q 556 192 488 211 q 706 174 624 174 m 404 1024 l 624 1221 l 786 1221 l 1007 1024 l 833 1024 l 657 1181 l 750 1181 l 574 1024 l 404 1024 m 375 1258 q 401 1340 378 1299 q 469 1408 425 1381 q 575 1436 513 1436 q 674 1422 626 1436 q 768 1394 722 1408 q 856 1379 814 1379 q 906 1397 888 1379 q 929 1436 924 1414 l 1036 1436 q 1010 1355 1035 1397 q 940 1285 985 1313 q 835 1257 896 1257 q 736 1272 785 1257 q 642 1300 688 1286 q 556 1314 597 1314 q 504 1297 522 1314 q 478 1258 486 1279 l 375 1258 z "},"Ȍ":{"ha":1411,"x_min":86,"x_max":1325,"o":"m 706 -17 q 375 42 514 -17 q 161 210 236 100 q 86 478 86 321 q 161 745 86 635 q 375 913 236 856 q 706 971 514 971 q 1036 913 897 971 q 1250 745 1175 856 q 1325 478 1325 635 q 1250 210 1325 321 q 1036 42 1175 100 q 706 -17 897 -17 m 706 174 q 856 192 788 174 q 974 247 924 211 q 1051 338 1024 283 q 1078 463 1078 392 l 1078 494 q 1051 619 1078 565 q 974 708 1024 672 q 856 763 924 744 q 706 782 788 782 q 556 763 624 782 q 438 708 488 744 q 360 619 388 672 q 333 494 333 565 l 333 463 q 360 338 333 392 q 438 247 388 283 q 556 192 488 211 q 706 174 624 174 m 821 1036 l 631 1211 l 631 1221 l 860 1221 l 972 1036 l 821 1036 m 489 1036 l 299 1211 l 299 1221 l 526 1221 l 640 1036 l 489 1036 z "},"Ö":{"ha":1411,"x_min":86,"x_max":1325,"o":"m 706 -17 q 376 42 515 -17 q 161 210 236 100 q 86 478 86 321 q 161 745 86 635 q 376 913 236 856 q 706 971 515 971 q 1036 913 897 971 q 1250 745 1175 856 q 1325 478 1325 635 q 1250 210 1325 321 q 1036 42 1175 100 q 706 -17 897 -17 m 706 174 q 856 192 788 174 q 974 247 924 211 q 1051 338 1024 283 q 1078 463 1078 393 l 1078 494 q 1051 618 1078 564 q 974 708 1024 672 q 856 763 924 744 q 706 782 788 782 q 556 763 624 782 q 438 708 488 744 q 360 618 388 672 q 333 494 333 564 l 333 463 q 360 338 333 393 q 438 247 388 283 q 556 192 488 211 q 706 174 624 174 m 426 1047 l 426 1219 l 625 1219 l 625 1047 l 426 1047 m 785 1047 l 785 1219 l 985 1219 l 985 1047 l 785 1047 z "},"Ȫ":{"ha":1411,"x_min":86,"x_max":1325,"o":"m 706 -17 q 376 42 515 -17 q 161 210 236 100 q 86 478 86 321 q 161 745 86 635 q 376 913 236 856 q 706 971 515 971 q 1036 913 897 971 q 1250 745 1175 856 q 1325 478 1325 635 q 1250 210 1325 321 q 1036 42 1175 100 q 706 -17 897 -17 m 706 174 q 856 192 788 174 q 974 247 924 211 q 1051 338 1024 283 q 1078 463 1078 393 l 1078 494 q 1051 618 1078 564 q 974 708 1024 672 q 856 763 924 744 q 706 782 788 782 q 556 763 624 782 q 438 708 488 744 q 360 618 388 672 q 333 494 333 564 l 333 463 q 360 338 333 393 q 438 247 388 283 q 556 192 488 211 q 706 174 624 174 m 426 1047 l 426 1219 l 625 1219 l 625 1047 l 426 1047 m 785 1047 l 785 1219 l 985 1219 l 985 1047 l 785 1047 m 438 1296 l 438 1410 l 972 1410 l 972 1296 l 438 1296 z "},"Ȱ":{"ha":1411,"x_min":86,"x_max":1325,"o":"m 706 -17 q 376 42 515 -17 q 161 210 236 100 q 86 478 86 321 q 161 745 86 635 q 376 913 236 856 q 706 971 515 971 q 1036 913 897 971 q 1250 745 1175 856 q 1325 478 1325 635 q 1250 210 1325 321 q 1036 42 1175 100 q 706 -17 897 -17 m 706 174 q 856 192 788 174 q 974 247 924 211 q 1051 338 1024 283 q 1078 463 1078 393 l 1078 494 q 1051 618 1078 564 q 974 708 1024 672 q 856 763 924 744 q 706 782 788 782 q 556 763 624 782 q 438 708 488 744 q 360 618 388 672 q 333 494 333 564 l 333 463 q 360 338 333 393 q 438 247 388 283 q 556 192 488 211 q 706 174 624 174 m 606 1047 l 606 1219 l 806 1219 l 806 1047 l 606 1047 m 438 1296 l 438 1410 l 972 1410 l 972 1296 l 438 1296 z "},"Ọ":{"ha":1411,"x_min":86,"x_max":1325,"o":"m 706 -17 q 376 42 515 -17 q 161 210 236 100 q 86 478 86 321 q 161 745 86 635 q 376 913 236 856 q 706 971 515 971 q 1036 913 897 971 q 1250 745 1175 856 q 1325 478 1325 635 q 1250 210 1325 321 q 1036 42 1175 100 q 706 -17 897 -17 m 706 174 q 856 192 788 174 q 974 247 924 211 q 1051 338 1024 283 q 1078 463 1078 393 l 1078 494 q 1051 618 1078 564 q 974 708 1024 672 q 856 763 924 744 q 706 782 788 782 q 556 763 624 782 q 438 708 488 744 q 360 618 388 672 q 333 494 333 564 l 333 463 q 360 338 333 393 q 438 247 388 283 q 556 192 488 211 q 706 174 624 174 m 606 -275 l 606 -106 l 806 -106 l 806 -275 l 606 -275 z "},"Ò":{"ha":1411,"x_min":86,"x_max":1325,"o":"m 706 -17 q 375 42 514 -17 q 161 210 236 100 q 86 478 86 321 q 161 745 86 635 q 375 913 236 856 q 706 971 514 971 q 1036 913 897 971 q 1250 745 1175 856 q 1325 478 1325 635 q 1250 210 1325 321 q 1036 42 1175 100 q 706 -17 897 -17 m 706 174 q 856 192 788 174 q 974 247 924 211 q 1051 338 1024 283 q 1078 463 1078 392 l 1078 494 q 1051 619 1078 565 q 974 708 1024 672 q 856 763 924 744 q 706 782 788 782 q 556 763 624 782 q 438 708 488 744 q 360 619 388 672 q 333 494 333 565 l 333 463 q 360 338 333 392 q 438 247 388 283 q 556 192 488 211 q 706 174 624 174 m 826 1036 l 647 1036 l 419 1214 l 419 1221 l 667 1221 l 826 1036 z "},"Ỏ":{"ha":1411,"x_min":86,"x_max":1325,"o":"m 706 -17 q 376 42 515 -17 q 161 210 236 100 q 86 478 86 321 q 161 745 86 635 q 376 913 236 856 q 706 971 515 971 q 1036 913 897 971 q 1250 745 1175 856 q 1325 478 1325 635 q 1250 210 1325 321 q 1036 42 1175 100 q 706 -17 897 -17 m 706 174 q 856 192 788 174 q 974 247 924 211 q 1051 338 1024 283 q 1078 463 1078 393 l 1078 494 q 1051 618 1078 564 q 974 708 1024 672 q 856 763 924 744 q 706 782 788 782 q 556 763 624 782 q 438 708 488 744 q 360 618 388 672 q 333 494 333 564 l 333 463 q 360 338 333 393 q 438 247 388 283 q 556 192 488 211 q 706 174 624 174 m 649 1028 l 649 1108 l 657 1108 q 708 1113 697 1108 q 719 1128 719 1117 q 704 1149 719 1146 q 661 1153 689 1153 l 553 1153 l 553 1222 q 600 1228 571 1226 q 658 1233 629 1231 q 704 1235 686 1235 q 764 1231 732 1235 q 825 1215 796 1226 q 873 1187 854 1204 q 892 1142 892 1169 q 874 1099 892 1115 q 826 1074 856 1082 q 763 1064 797 1065 l 763 1028 l 649 1028 z "},"Ơ":{"ha":1411,"x_min":86,"x_max":1338,"o":"m 706 -17 q 376 42 515 -17 q 161 210 236 100 q 86 478 86 321 q 161 745 86 635 q 376 913 236 856 q 706 971 515 971 q 1036 913 897 971 q 1250 745 1175 856 q 1325 478 1325 635 q 1250 210 1325 321 q 1036 42 1175 100 q 706 -17 897 -17 m 706 174 q 856 192 788 174 q 974 247 924 211 q 1051 338 1024 283 q 1078 463 1078 393 l 1078 494 q 1051 618 1078 564 q 974 708 1024 672 q 856 763 924 744 q 706 782 788 782 q 556 763 624 782 q 438 708 488 744 q 360 618 388 672 q 333 494 333 564 l 333 463 q 360 338 333 393 q 438 247 388 283 q 556 192 488 211 q 706 174 624 174 m 971 768 l 971 860 q 1150 889 1085 860 q 1215 969 1215 918 l 1117 969 l 1117 1140 l 1338 1140 l 1338 1014 q 1294 881 1338 936 q 1168 797 1250 825 q 971 768 1086 768 z "},"Ớ":{"ha":1411,"x_min":86,"x_max":1338,"o":"m 706 -17 q 375 42 514 -17 q 161 210 236 100 q 86 478 86 321 q 161 745 86 635 q 375 913 236 856 q 706 971 514 971 q 1036 913 897 971 q 1250 745 1175 856 q 1325 478 1325 635 q 1250 210 1325 321 q 1036 42 1175 100 q 706 -17 897 -17 m 706 174 q 856 192 788 174 q 974 247 924 211 q 1051 338 1024 283 q 1078 463 1078 392 l 1078 494 q 1051 619 1078 565 q 974 708 1024 672 q 856 763 924 744 q 706 782 788 782 q 556 763 624 782 q 438 708 488 744 q 360 619 388 672 q 333 494 333 565 l 333 463 q 360 338 333 392 q 438 247 388 283 q 556 192 488 211 q 706 174 624 174 m 971 768 l 971 860 q 1150 889 1085 860 q 1215 969 1215 918 l 1117 969 l 1117 1140 l 1338 1140 l 1338 1014 q 1294 881 1338 936 q 1168 797 1250 825 q 971 768 1086 768 m 567 1036 l 728 1221 l 975 1221 l 975 1214 l 747 1036 l 567 1036 z "},"Ợ":{"ha":1411,"x_min":86,"x_max":1338,"o":"m 706 -17 q 376 42 515 -17 q 161 210 236 100 q 86 478 86 321 q 161 745 86 635 q 376 913 236 856 q 706 971 515 971 q 1036 913 897 971 q 1250 745 1175 856 q 1325 478 1325 635 q 1250 210 1325 321 q 1036 42 1175 100 q 706 -17 897 -17 m 706 174 q 856 192 788 174 q 974 247 924 211 q 1051 338 1024 283 q 1078 463 1078 393 l 1078 494 q 1051 618 1078 564 q 974 708 1024 672 q 856 763 924 744 q 706 782 788 782 q 556 763 624 782 q 438 708 488 744 q 360 618 388 672 q 333 494 333 564 l 333 463 q 360 338 333 393 q 438 247 388 283 q 556 192 488 211 q 706 174 624 174 m 971 768 l 971 860 q 1150 889 1085 860 q 1215 969 1215 918 l 1117 969 l 1117 1140 l 1338 1140 l 1338 1014 q 1294 881 1338 936 q 1168 797 1250 825 q 971 768 1086 768 m 606 -275 l 606 -106 l 806 -106 l 806 -275 l 606 -275 z "},"Ờ":{"ha":1411,"x_min":86,"x_max":1338,"o":"m 706 -17 q 375 42 514 -17 q 161 210 236 100 q 86 478 86 321 q 161 745 86 635 q 375 913 236 856 q 706 971 514 971 q 1036 913 897 971 q 1250 745 1175 856 q 1325 478 1325 635 q 1250 210 1325 321 q 1036 42 1175 100 q 706 -17 897 -17 m 706 174 q 856 192 788 174 q 974 247 924 211 q 1051 338 1024 283 q 1078 463 1078 392 l 1078 494 q 1051 619 1078 565 q 974 708 1024 672 q 856 763 924 744 q 706 782 788 782 q 556 763 624 782 q 438 708 488 744 q 360 619 388 672 q 333 494 333 565 l 333 463 q 360 338 333 392 q 438 247 388 283 q 556 192 488 211 q 706 174 624 174 m 971 768 l 971 860 q 1150 889 1085 860 q 1215 969 1215 918 l 1117 969 l 1117 1140 l 1338 1140 l 1338 1014 q 1294 881 1338 936 q 1168 797 1250 825 q 971 768 1086 768 m 826 1036 l 647 1036 l 419 1214 l 419 1221 l 667 1221 l 826 1036 z "},"Ở":{"ha":1411,"x_min":86,"x_max":1338,"o":"m 706 -17 q 376 42 515 -17 q 161 210 236 100 q 86 478 86 321 q 161 745 86 635 q 376 913 236 856 q 706 971 515 971 q 1036 913 897 971 q 1250 745 1175 856 q 1325 478 1325 635 q 1250 210 1325 321 q 1036 42 1175 100 q 706 -17 897 -17 m 706 174 q 856 192 788 174 q 974 247 924 211 q 1051 338 1024 283 q 1078 463 1078 393 l 1078 494 q 1051 618 1078 564 q 974 708 1024 672 q 856 763 924 744 q 706 782 788 782 q 556 763 624 782 q 438 708 488 744 q 360 618 388 672 q 333 494 333 564 l 333 463 q 360 338 333 393 q 438 247 388 283 q 556 192 488 211 q 706 174 624 174 m 971 768 l 971 860 q 1150 889 1085 860 q 1215 969 1215 918 l 1117 969 l 1117 1140 l 1338 1140 l 1338 1014 q 1294 881 1338 936 q 1168 797 1250 825 q 971 768 1086 768 m 649 1028 l 649 1108 l 657 1108 q 708 1113 697 1108 q 719 1128 719 1117 q 704 1149 719 1146 q 661 1153 689 1153 l 553 1153 l 553 1222 q 600 1228 571 1226 q 658 1233 629 1231 q 704 1235 686 1235 q 764 1231 732 1235 q 825 1215 796 1226 q 873 1187 854 1204 q 892 1142 892 1169 q 874 1099 892 1115 q 826 1074 856 1082 q 763 1064 797 1065 l 763 1028 l 649 1028 z "},"Ỡ":{"ha":1411,"x_min":86,"x_max":1338,"o":"m 706 -17 q 375 42 514 -17 q 161 210 236 100 q 86 478 86 321 q 161 745 86 635 q 375 913 236 856 q 706 971 514 971 q 1036 913 897 971 q 1250 745 1175 856 q 1325 478 1325 635 q 1250 210 1325 321 q 1036 42 1175 100 q 706 -17 897 -17 m 706 174 q 856 192 788 174 q 974 247 924 211 q 1051 338 1024 283 q 1078 463 1078 392 l 1078 494 q 1051 619 1078 565 q 974 708 1024 672 q 856 763 924 744 q 706 782 788 782 q 556 763 624 782 q 438 708 488 744 q 360 619 388 672 q 333 494 333 565 l 333 463 q 360 338 333 392 q 438 247 388 283 q 556 192 488 211 q 706 174 624 174 m 971 768 l 971 860 q 1150 889 1085 860 q 1215 969 1215 918 l 1117 969 l 1117 1140 l 1338 1140 l 1338 1014 q 1294 881 1338 936 q 1168 797 1250 825 q 971 768 1086 768 m 383 1032 q 409 1114 386 1072 q 474 1183 432 1156 q 578 1211 517 1211 q 675 1197 628 1211 q 767 1167 722 1182 q 853 1153 811 1153 q 901 1170 883 1153 q 925 1211 918 1188 l 1028 1211 q 1002 1128 1026 1171 q 935 1058 978 1086 q 832 1031 892 1031 q 736 1045 783 1031 q 644 1074 689 1060 q 558 1089 599 1089 q 508 1072 526 1089 q 483 1032 490 1054 l 383 1032 z "},"Ő":{"ha":1411,"x_min":86,"x_max":1325,"o":"m 706 -17 q 375 42 514 -17 q 161 210 236 100 q 86 478 86 321 q 161 745 86 635 q 375 913 236 856 q 706 971 514 971 q 1036 913 897 971 q 1250 745 1175 856 q 1325 478 1325 635 q 1250 210 1325 321 q 1036 42 1175 100 q 706 -17 897 -17 m 706 174 q 856 192 788 174 q 974 247 924 211 q 1051 338 1024 283 q 1078 463 1078 392 l 1078 494 q 1051 619 1078 565 q 974 708 1024 672 q 856 763 924 744 q 706 782 788 782 q 556 763 624 782 q 438 708 488 744 q 360 619 388 672 q 333 494 333 565 l 333 463 q 360 338 333 392 q 438 247 388 283 q 556 192 488 211 q 706 174 624 174 m 760 1036 l 872 1221 l 1101 1221 l 1101 1211 l 911 1036 l 760 1036 m 428 1036 l 540 1221 l 769 1221 l 769 1211 l 579 1036 l 428 1036 z "},"Ȏ":{"ha":1411,"x_min":86,"x_max":1325,"o":"m 706 -17 q 375 42 514 -17 q 161 210 236 100 q 86 478 86 321 q 161 745 86 635 q 375 913 236 856 q 706 971 514 971 q 1036 913 897 971 q 1250 745 1175 856 q 1325 478 1325 635 q 1250 210 1325 321 q 1036 42 1175 100 q 706 -17 897 -17 m 706 174 q 856 192 788 174 q 974 247 924 211 q 1051 338 1024 283 q 1078 463 1078 392 l 1078 494 q 1051 619 1078 565 q 974 708 1024 672 q 856 763 924 744 q 706 782 788 782 q 556 763 624 782 q 438 708 488 744 q 360 619 388 672 q 333 494 333 565 l 333 463 q 360 338 333 392 q 438 247 388 283 q 556 192 488 211 q 706 174 624 174 m 419 1031 q 450 1117 419 1075 q 544 1188 481 1160 q 704 1217 607 1217 q 864 1188 800 1217 q 959 1117 928 1160 q 990 1031 990 1075 l 865 1031 q 844 1063 863 1046 q 791 1092 825 1079 q 704 1104 757 1104 q 625 1093 660 1104 q 569 1066 590 1082 q 544 1031 549 1050 l 419 1031 z "},"Ō":{"ha":1411,"x_min":86,"x_max":1325,"o":"m 706 -17 q 376 42 515 -17 q 161 210 236 100 q 86 478 86 321 q 161 745 86 635 q 376 913 236 856 q 706 971 515 971 q 1036 913 897 971 q 1250 745 1175 856 q 1325 478 1325 635 q 1250 210 1325 321 q 1036 42 1175 100 q 706 -17 897 -17 m 706 174 q 856 192 788 174 q 974 247 924 211 q 1051 338 1024 283 q 1078 463 1078 393 l 1078 494 q 1051 618 1078 564 q 974 708 1024 672 q 856 763 924 744 q 706 782 788 782 q 556 763 624 782 q 438 708 488 744 q 360 618 388 672 q 333 494 333 564 l 333 463 q 360 338 333 393 q 438 247 388 283 q 556 192 488 211 q 706 174 624 174 m 438 1053 l 438 1167 l 972 1167 l 972 1053 l 438 1053 z "},"Ǫ":{"ha":1411,"x_min":86,"x_max":1325,"o":"m 706 -17 q 376 42 515 -17 q 161 210 236 100 q 86 478 86 321 q 161 745 86 635 q 376 913 236 856 q 706 971 515 971 q 1036 913 897 971 q 1250 745 1175 856 q 1325 478 1325 635 q 1250 210 1325 321 q 1036 42 1175 100 q 706 -17 897 -17 m 706 174 q 856 192 788 174 q 974 247 924 211 q 1051 338 1024 283 q 1078 463 1078 393 l 1078 494 q 1051 618 1078 564 q 974 708 1024 672 q 856 763 924 744 q 706 782 788 782 q 556 763 624 782 q 438 708 488 744 q 360 618 388 672 q 333 494 333 564 l 333 463 q 360 338 333 393 q 438 247 388 283 q 556 192 488 211 q 706 174 624 174 m 908 -275 q 824 -261 865 -275 q 756 -215 782 -247 q 729 -131 729 -183 q 753 -45 729 -81 q 807 17 776 -10 l 938 17 l 938 11 q 894 -33 913 -6 q 875 -90 875 -60 q 896 -144 875 -119 q 960 -168 917 -168 l 1060 -168 l 1060 -256 q 985 -270 1028 -265 q 908 -275 943 -275 z "},"Ø":{"ha":1411,"x_min":86,"x_max":1325,"o":"m 706 -17 q 375 42 514 -17 q 161 210 236 100 q 86 478 86 321 q 161 745 86 635 q 375 913 236 856 q 706 971 514 971 q 1036 913 897 971 q 1250 745 1175 856 q 1325 478 1325 635 q 1250 210 1325 321 q 1036 42 1175 100 q 706 -17 897 -17 m 706 174 q 856 192 788 174 q 974 247 924 211 q 1051 338 1024 283 q 1078 463 1078 392 l 1078 494 q 1051 619 1078 565 q 974 708 1024 672 q 856 763 924 744 q 706 782 788 782 q 556 763 624 782 q 438 708 488 744 q 360 619 388 672 q 333 494 333 565 l 333 463 q 360 338 333 392 q 438 247 388 283 q 556 192 488 211 q 706 174 624 174 m 115 -58 l 1128 1013 l 1296 1013 l 282 -58 l 115 -58 z "},"Ǿ":{"ha":1411,"x_min":86,"x_max":1325,"o":"m 706 -17 q 375 42 514 -17 q 161 210 236 100 q 86 478 86 321 q 161 745 86 635 q 375 913 236 856 q 706 971 514 971 q 1036 913 897 971 q 1250 745 1175 856 q 1325 478 1325 635 q 1250 210 1325 321 q 1036 42 1175 100 q 706 -17 897 -17 m 706 174 q 856 192 788 174 q 974 247 924 211 q 1051 338 1024 283 q 1078 463 1078 392 l 1078 494 q 1051 619 1078 565 q 974 708 1024 672 q 856 763 924 744 q 706 782 788 782 q 556 763 624 782 q 438 708 488 744 q 360 619 388 672 q 333 494 333 565 l 333 463 q 360 338 333 392 q 438 247 388 283 q 556 192 488 211 q 706 174 624 174 m 115 -58 l 1128 1013 l 1296 1013 l 282 -58 l 115 -58 m 567 1036 l 728 1221 l 975 1221 l 975 1214 l 747 1036 l 567 1036 z "},"Õ":{"ha":1411,"x_min":86,"x_max":1325,"o":"m 706 -17 q 375 42 514 -17 q 161 210 236 100 q 86 478 86 321 q 161 745 86 635 q 375 913 236 856 q 706 971 514 971 q 1036 913 897 971 q 1250 745 1175 856 q 1325 478 1325 635 q 1250 210 1325 321 q 1036 42 1175 100 q 706 -17 897 -17 m 706 174 q 856 192 788 174 q 974 247 924 211 q 1051 338 1024 283 q 1078 463 1078 392 l 1078 494 q 1051 619 1078 565 q 974 708 1024 672 q 856 763 924 744 q 706 782 788 782 q 556 763 624 782 q 438 708 488 744 q 360 619 388 672 q 333 494 333 565 l 333 463 q 360 338 333 392 q 438 247 388 283 q 556 192 488 211 q 706 174 624 174 m 375 1032 q 401 1114 378 1072 q 469 1183 425 1156 q 575 1211 513 1211 q 674 1197 626 1211 q 768 1167 722 1182 q 856 1153 814 1153 q 906 1170 888 1153 q 929 1211 924 1188 l 1036 1211 q 1010 1128 1035 1171 q 940 1058 985 1086 q 835 1031 896 1031 q 736 1045 785 1031 q 642 1074 688 1060 q 556 1089 597 1089 q 504 1072 522 1089 q 478 1032 486 1054 l 375 1032 z "},"Ȭ":{"ha":1411,"x_min":86,"x_max":1325,"o":"m 706 -17 q 375 42 514 -17 q 161 210 236 100 q 86 478 86 321 q 161 745 86 635 q 375 913 236 856 q 706 971 514 971 q 1036 913 897 971 q 1250 745 1175 856 q 1325 478 1325 635 q 1250 210 1325 321 q 1036 42 1175 100 q 706 -17 897 -17 m 706 174 q 856 192 788 174 q 974 247 924 211 q 1051 338 1024 283 q 1078 463 1078 392 l 1078 494 q 1051 619 1078 565 q 974 708 1024 672 q 856 763 924 744 q 706 782 788 782 q 556 763 624 782 q 438 708 488 744 q 360 619 388 672 q 333 494 333 565 l 333 463 q 360 338 333 392 q 438 247 388 283 q 556 192 488 211 q 706 174 624 174 m 375 1032 q 401 1114 378 1072 q 469 1183 425 1156 q 575 1211 513 1211 q 674 1197 626 1211 q 768 1167 722 1182 q 856 1153 814 1153 q 906 1170 888 1153 q 929 1211 924 1188 l 1036 1211 q 1010 1128 1035 1171 q 940 1058 985 1086 q 835 1031 896 1031 q 736 1045 785 1031 q 642 1074 688 1060 q 556 1089 597 1089 q 504 1072 522 1089 q 478 1032 486 1054 l 375 1032 m 438 1285 l 438 1399 l 972 1399 l 972 1285 l 438 1285 z "},"Œ":{"ha":2151,"x_min":86,"x_max":2067,"o":"m 696 -17 q 371 42 507 -17 q 160 210 235 100 q 86 478 86 321 q 160 745 86 635 q 371 913 235 856 q 696 971 507 971 q 912 942 815 971 q 1078 858 1008 913 l 1078 954 l 2056 954 l 2056 765 l 1318 765 l 1318 578 l 1969 578 l 1969 392 l 1318 392 l 1318 190 l 2067 190 l 2067 0 l 1078 0 l 1078 97 q 912 12 1008 40 q 696 -17 815 -17 m 706 174 q 856 192 788 174 q 974 247 924 211 q 1051 338 1024 283 q 1078 463 1078 392 l 1078 494 q 1051 619 1078 565 q 974 708 1024 672 q 856 763 924 744 q 706 782 788 782 q 556 763 624 782 q 438 708 488 744 q 360 619 388 672 q 333 494 333 565 l 333 463 q 360 338 333 392 q 438 247 388 283 q 556 192 488 211 q 706 174 624 174 z "},"P":{"ha":1192,"x_min":128,"x_max":1153,"o":"m 128 0 l 128 954 l 843 954 q 1006 914 936 954 q 1114 802 1075 874 q 1153 638 1153 731 q 1113 472 1153 544 q 1003 358 1074 399 q 839 318 932 318 l 368 318 l 368 0 l 128 0 m 368 508 l 772 508 q 879 542 842 508 q 917 636 917 575 q 900 705 917 676 q 851 749 883 733 q 772 765 818 765 l 368 765 l 368 508 z "},"Þ":{"ha":1210,"x_min":128,"x_max":1153,"o":"m 128 0 l 128 954 l 368 954 l 368 810 l 843 810 q 1006 769 936 810 q 1114 658 1075 729 q 1153 493 1153 586 q 1113 328 1153 400 q 1003 215 1074 256 q 839 174 932 174 l 368 174 l 368 0 l 128 0 m 368 364 l 772 364 q 879 398 842 364 q 917 492 917 432 q 900 561 917 532 q 851 606 883 590 q 772 621 818 621 l 368 621 l 368 364 z "},"Q":{"ha":1411,"x_min":86,"x_max":1325,"o":"m 921 -181 l 740 -15 q 719 -16 731 -15 q 697 -17 708 -17 q 373 42 510 -17 q 161 210 236 100 q 86 478 86 321 q 161 745 86 635 q 375 913 236 856 q 706 971 514 971 q 1036 913 897 971 q 1250 745 1175 856 q 1325 478 1325 635 q 1238 194 1325 308 q 993 26 1151 79 l 1235 -181 l 921 -181 m 706 174 q 856 192 788 174 q 974 247 924 211 q 1051 338 1024 283 q 1078 463 1078 392 l 1078 494 q 1051 619 1078 565 q 974 708 1024 672 q 856 763 924 744 q 706 782 788 782 q 556 763 624 782 q 438 708 488 744 q 360 619 388 672 q 333 494 333 565 l 333 463 q 360 338 333 392 q 438 247 388 283 q 556 192 488 211 q 706 174 624 174 z "},"R":{"ha":1285,"x_min":128,"x_max":1222,"o":"m 128 0 l 128 954 l 899 954 q 1067 913 1001 954 q 1167 803 1133 871 q 1200 651 1200 735 q 1156 491 1200 565 q 1024 374 1113 417 l 1222 0 l 953 0 l 785 331 l 368 331 l 368 0 l 128 0 m 368 519 l 828 519 q 920 555 886 519 q 954 646 954 590 q 939 711 954 685 q 896 751 924 738 q 828 765 868 765 l 368 765 l 368 519 z "},"Ŕ":{"ha":1285,"x_min":128,"x_max":1222,"o":"m 128 0 l 128 954 l 899 954 q 1067 913 1001 954 q 1167 803 1133 871 q 1200 651 1200 735 q 1156 491 1200 565 q 1024 374 1113 417 l 1222 0 l 953 0 l 785 331 l 368 331 l 368 0 l 128 0 m 368 519 l 828 519 q 920 555 886 519 q 954 646 954 590 q 939 711 954 685 q 896 751 924 738 q 828 765 868 765 l 368 765 l 368 519 m 504 1036 l 665 1221 l 911 1221 l 911 1214 l 685 1036 l 504 1036 z "},"Ř":{"ha":1285,"x_min":128,"x_max":1222,"o":"m 128 0 l 128 954 l 899 954 q 1067 913 1001 954 q 1167 803 1133 871 q 1200 651 1200 735 q 1156 491 1200 565 q 1024 374 1113 417 l 1222 0 l 953 0 l 785 331 l 368 331 l 368 0 l 128 0 m 368 519 l 828 519 q 920 555 886 519 q 954 646 954 590 q 939 711 954 685 q 896 751 924 738 q 828 765 868 765 l 368 765 l 368 519 m 340 1221 l 510 1221 l 686 1064 l 594 1064 l 771 1221 l 944 1221 l 724 1024 l 561 1024 l 340 1221 z "},"Ŗ":{"ha":1285,"x_min":128,"x_max":1222,"o":"m 128 0 l 128 954 l 899 954 q 1067 913 1001 954 q 1167 803 1133 871 q 1200 651 1200 735 q 1156 491 1200 565 q 1024 374 1113 417 l 1222 0 l 953 0 l 785 331 l 368 331 l 368 0 l 128 0 m 368 519 l 828 519 q 920 555 886 519 q 954 646 954 590 q 939 711 954 685 q 896 751 924 738 q 828 765 868 765 l 368 765 l 368 519 m 513 -550 l 513 -449 q 602 -408 571 -442 q 633 -317 633 -374 l 522 -317 l 522 -100 l 763 -100 l 763 -290 q 735 -426 763 -371 q 653 -512 708 -482 q 513 -550 599 -542 z "},"Ȑ":{"ha":1285,"x_min":128,"x_max":1222,"o":"m 128 0 l 128 954 l 899 954 q 1067 913 1001 954 q 1167 803 1133 871 q 1200 651 1200 735 q 1156 491 1200 565 q 1024 374 1113 417 l 1222 0 l 953 0 l 785 331 l 368 331 l 368 0 l 128 0 m 368 519 l 828 519 q 920 555 886 519 q 954 646 954 590 q 939 711 954 685 q 896 751 924 738 q 828 765 868 765 l 368 765 l 368 519 m 758 1036 l 568 1211 l 568 1221 l 796 1221 l 910 1036 l 758 1036 m 426 1036 l 236 1211 l 236 1221 l 464 1221 l 578 1036 l 426 1036 z "},"Ȓ":{"ha":1285,"x_min":128,"x_max":1222,"o":"m 128 0 l 128 954 l 899 954 q 1067 913 1001 954 q 1167 803 1133 871 q 1200 651 1200 735 q 1156 491 1200 565 q 1024 374 1113 417 l 1222 0 l 953 0 l 785 331 l 368 331 l 368 0 l 128 0 m 368 519 l 828 519 q 920 555 886 519 q 954 646 954 590 q 939 711 954 685 q 896 751 924 738 q 828 765 868 765 l 368 765 l 368 519 m 357 1031 q 388 1117 357 1075 q 481 1188 418 1160 q 642 1217 544 1217 q 801 1188 738 1217 q 897 1117 865 1160 q 928 1031 928 1075 l 803 1031 q 781 1063 800 1046 q 728 1092 763 1079 q 642 1104 694 1104 q 562 1093 596 1104 q 507 1066 528 1082 q 482 1031 486 1050 l 357 1031 z "},"S":{"ha":1190,"x_min":78,"x_max":1121,"o":"m 611 -17 q 402 -3 499 -17 q 232 44 306 10 q 118 141 158 79 q 78 299 78 203 q 78 306 78 301 q 79 313 78 310 l 314 313 q 313 300 313 307 q 313 285 313 293 q 347 216 313 242 q 447 178 382 190 q 600 167 513 167 q 676 169 638 167 q 749 178 714 172 q 813 196 785 185 q 857 224 840 207 q 874 265 874 242 q 841 319 874 299 q 753 351 808 339 q 630 373 699 364 q 488 394 561 382 q 345 426 414 406 q 222 478 276 446 q 134 563 167 511 q 101 689 101 614 q 136 811 101 758 q 236 900 171 864 q 394 953 301 936 q 601 971 486 971 q 808 952 718 971 q 960 898 899 933 q 1053 810 1022 863 q 1085 692 1085 758 l 1085 671 l 851 671 l 851 686 q 822 740 851 717 q 738 776 792 763 q 614 790 685 790 q 463 778 521 790 q 376 747 404 767 q 349 703 349 726 q 381 654 349 672 q 469 625 414 636 q 592 605 524 614 q 735 583 661 596 q 877 552 808 571 q 1001 500 946 533 q 1088 417 1056 467 q 1121 294 1121 368 q 1056 113 1121 182 q 876 14 990 44 q 611 -17 761 -17 z "},"Ś":{"ha":1190,"x_min":78,"x_max":1121,"o":"m 611 -17 q 402 -3 499 -17 q 232 44 306 10 q 118 141 158 79 q 78 299 78 203 q 78 306 78 301 q 79 313 78 310 l 314 313 q 313 300 313 307 q 313 285 313 293 q 347 216 313 242 q 447 178 382 190 q 600 167 513 167 q 676 169 638 167 q 749 178 714 172 q 813 196 785 185 q 857 224 840 207 q 874 265 874 242 q 841 319 874 299 q 753 351 808 339 q 630 373 699 364 q 488 394 561 382 q 345 426 414 406 q 222 478 276 446 q 134 563 167 511 q 101 689 101 614 q 136 811 101 758 q 236 900 171 864 q 394 953 301 936 q 601 971 486 971 q 808 952 718 971 q 960 898 899 933 q 1053 810 1022 863 q 1085 692 1085 758 l 1085 671 l 851 671 l 851 686 q 822 740 851 717 q 738 776 792 763 q 614 790 685 790 q 463 778 521 790 q 376 747 404 767 q 349 703 349 726 q 381 654 349 672 q 469 625 414 636 q 592 605 524 614 q 735 583 661 596 q 877 552 808 571 q 1001 500 946 533 q 1088 417 1056 467 q 1121 294 1121 368 q 1056 113 1121 182 q 876 14 990 44 q 611 -17 761 -17 m 457 1036 l 618 1221 l 864 1221 l 864 1214 l 638 1036 l 457 1036 z "},"Š":{"ha":1190,"x_min":78,"x_max":1121,"o":"m 611 -17 q 402 -3 499 -17 q 232 44 306 10 q 118 141 158 79 q 78 299 78 203 q 78 306 78 301 q 79 313 78 310 l 314 313 q 313 300 313 307 q 313 285 313 293 q 347 216 313 242 q 447 178 382 190 q 600 167 513 167 q 676 169 638 167 q 749 178 714 172 q 813 196 785 185 q 857 224 840 207 q 874 265 874 242 q 841 319 874 299 q 753 351 808 339 q 630 373 699 364 q 488 394 561 382 q 345 426 414 406 q 222 478 276 446 q 134 563 167 511 q 101 689 101 614 q 136 811 101 758 q 236 900 171 864 q 394 953 301 936 q 601 971 486 971 q 808 952 718 971 q 960 898 899 933 q 1053 810 1022 863 q 1085 692 1085 758 l 1085 671 l 851 671 l 851 686 q 822 740 851 717 q 738 776 792 763 q 614 790 685 790 q 463 778 521 790 q 376 747 404 767 q 349 703 349 726 q 381 654 349 672 q 469 625 414 636 q 592 605 524 614 q 735 583 661 596 q 877 552 808 571 q 1001 500 946 533 q 1088 417 1056 467 q 1121 294 1121 368 q 1056 113 1121 182 q 876 14 990 44 q 611 -17 761 -17 m 293 1221 l 463 1221 l 639 1064 l 546 1064 l 724 1221 l 897 1221 l 676 1024 l 514 1024 l 293 1221 z "},"Ş":{"ha":1190,"x_min":78,"x_max":1121,"o":"m 611 -17 q 402 -3 499 -17 q 232 44 306 10 q 118 141 158 79 q 78 299 78 203 q 78 306 78 301 q 79 313 78 310 l 314 313 q 313 300 313 307 q 313 285 313 293 q 347 216 313 242 q 447 178 382 190 q 600 167 513 167 q 676 169 638 167 q 749 178 714 172 q 813 196 785 185 q 857 224 840 207 q 874 265 874 242 q 841 319 874 299 q 753 351 808 339 q 630 373 699 364 q 488 394 561 382 q 345 426 414 406 q 222 478 276 446 q 134 563 167 511 q 101 689 101 614 q 136 811 101 758 q 236 900 171 864 q 394 953 301 936 q 601 971 486 971 q 808 952 718 971 q 960 898 899 933 q 1053 810 1022 863 q 1085 692 1085 758 l 1085 671 l 851 671 l 851 686 q 822 740 851 717 q 738 776 792 763 q 614 790 685 790 q 463 778 521 790 q 376 747 404 767 q 349 703 349 726 q 381 654 349 672 q 469 625 414 636 q 592 605 524 614 q 735 583 661 596 q 877 552 808 571 q 1001 500 946 533 q 1088 417 1056 467 q 1121 294 1121 368 q 1056 113 1121 182 q 876 14 990 44 q 611 -17 761 -17 m 604 -275 q 501 -271 554 -275 q 413 -258 447 -267 l 413 -189 l 597 -189 q 642 -183 625 -189 q 658 -154 658 -176 q 645 -128 658 -135 q 600 -121 632 -121 l 510 -121 l 542 42 l 660 42 l 643 -46 q 717 -58 683 -47 q 772 -93 751 -69 q 793 -160 793 -117 q 776 -218 793 -194 q 730 -253 758 -242 q 668 -270 701 -265 q 604 -275 635 -275 z "},"Ŝ":{"ha":1190,"x_min":78,"x_max":1121,"o":"m 611 -17 q 402 -3 499 -17 q 232 44 306 10 q 118 141 158 79 q 78 299 78 203 q 78 306 78 301 q 79 313 78 310 l 314 313 q 313 300 313 307 q 313 285 313 293 q 347 216 313 242 q 447 178 382 190 q 600 167 513 167 q 676 169 638 167 q 749 178 714 172 q 813 196 785 185 q 857 224 840 207 q 874 265 874 242 q 841 319 874 299 q 753 351 808 339 q 630 373 699 364 q 488 394 561 382 q 345 426 414 406 q 222 478 276 446 q 134 563 167 511 q 101 689 101 614 q 136 811 101 758 q 236 900 171 864 q 394 953 301 936 q 601 971 486 971 q 808 952 718 971 q 960 898 899 933 q 1053 810 1022 863 q 1085 692 1085 758 l 1085 671 l 851 671 l 851 686 q 822 740 851 717 q 738 776 792 763 q 614 790 685 790 q 463 778 521 790 q 376 747 404 767 q 349 703 349 726 q 381 654 349 672 q 469 625 414 636 q 592 605 524 614 q 735 583 661 596 q 877 552 808 571 q 1001 500 946 533 q 1088 417 1056 467 q 1121 294 1121 368 q 1056 113 1121 182 q 876 14 990 44 q 611 -17 761 -17 m 293 1024 l 514 1221 l 676 1221 l 897 1024 l 724 1024 l 546 1181 l 639 1181 l 463 1024 l 293 1024 z "},"Ș":{"ha":1190,"x_min":78,"x_max":1121,"o":"m 611 -17 q 402 -3 499 -17 q 232 44 306 10 q 118 141 158 79 q 78 299 78 203 q 78 306 78 301 q 79 313 78 310 l 314 313 q 313 300 313 307 q 313 285 313 293 q 347 216 313 242 q 447 178 382 190 q 600 167 513 167 q 676 169 638 167 q 749 178 714 172 q 813 196 785 185 q 857 224 840 207 q 874 265 874 242 q 841 319 874 299 q 753 351 808 339 q 630 373 699 364 q 488 394 561 382 q 345 426 414 406 q 222 478 276 446 q 134 563 167 511 q 101 689 101 614 q 136 811 101 758 q 236 900 171 864 q 394 953 301 936 q 601 971 486 971 q 808 952 718 971 q 960 898 899 933 q 1053 810 1022 863 q 1085 692 1085 758 l 1085 671 l 851 671 l 851 686 q 822 740 851 717 q 738 776 792 763 q 614 790 685 790 q 463 778 521 790 q 376 747 404 767 q 349 703 349 726 q 381 654 349 672 q 469 625 414 636 q 592 605 524 614 q 735 583 661 596 q 877 552 808 571 q 1001 500 946 533 q 1088 417 1056 467 q 1121 294 1121 368 q 1056 113 1121 182 q 876 14 990 44 q 611 -17 761 -17 m 465 -550 l 465 -449 q 555 -408 524 -442 q 586 -317 586 -374 l 475 -317 l 475 -100 l 715 -100 l 715 -290 q 688 -426 715 -371 q 606 -512 661 -482 q 465 -550 550 -542 z "},"Ṣ":{"ha":1190,"x_min":78,"x_max":1121,"o":"m 611 -17 q 402 -3 499 -17 q 232 44 306 10 q 118 141 158 79 q 78 299 78 203 q 78 306 78 301 q 79 313 78 310 l 314 313 q 313 300 313 307 q 313 285 313 293 q 347 216 313 242 q 447 178 382 190 q 600 167 513 167 q 676 169 638 167 q 749 178 714 172 q 813 196 785 185 q 857 224 840 207 q 874 265 874 242 q 841 319 874 299 q 753 351 808 339 q 630 373 699 364 q 488 394 561 382 q 345 426 414 406 q 222 478 276 446 q 134 563 167 511 q 101 689 101 614 q 136 811 101 758 q 236 900 171 864 q 394 953 301 936 q 601 971 486 971 q 808 952 718 971 q 960 898 899 933 q 1053 810 1022 863 q 1085 692 1085 758 l 1085 671 l 851 671 l 851 686 q 822 740 851 717 q 738 776 792 763 q 614 790 685 790 q 463 778 521 790 q 376 747 404 767 q 349 703 349 726 q 381 654 349 672 q 469 625 414 636 q 592 605 524 614 q 735 583 661 596 q 877 552 808 571 q 1001 500 946 533 q 1088 417 1056 467 q 1121 294 1121 368 q 1056 113 1121 182 q 876 14 990 44 q 611 -17 761 -17 m 496 -275 l 496 -106 l 694 -106 l 694 -275 l 496 -275 z "},"ẞ":{"ha":1390,"x_min":117,"x_max":1317,"o":"m 117 0 l 117 583 q 188 792 117 706 q 396 925 258 879 q 735 971 533 971 q 947 955 850 971 q 1117 906 1044 939 q 1228 821 1189 872 q 1267 697 1267 769 q 1246 602 1267 643 q 1190 533 1225 561 q 1115 489 1156 504 l 1115 479 q 1264 404 1211 461 q 1317 261 1317 347 q 1281 127 1317 186 q 1173 34 1244 68 q 993 0 1101 0 l 513 0 l 513 190 l 942 190 q 1015 202 986 190 q 1058 236 1043 214 q 1072 288 1072 258 q 1052 344 1072 322 q 1001 374 1032 365 q 938 383 969 383 l 513 383 l 513 560 l 878 560 q 982 588 940 560 q 1024 664 1024 617 q 954 757 1024 729 q 722 785 885 785 q 513 761 593 785 q 394 689 432 738 q 357 565 357 640 l 357 0 l 117 0 z "},"Ə":{"ha":1394,"x_min":86,"x_max":1308,"o":"m 700 -17 q 443 15 557 -17 q 250 108 329 46 q 128 262 171 169 q 86 478 86 354 l 86 531 l 1058 531 q 1010 667 1057 611 q 879 753 963 724 q 685 782 796 782 q 563 772 622 782 q 453 742 503 761 q 372 692 404 722 q 332 624 339 663 l 86 624 q 147 774 94 710 q 282 883 199 839 q 471 949 365 928 q 693 971 576 971 q 1027 913 890 971 q 1236 745 1164 856 q 1308 478 1308 635 q 1234 210 1308 321 q 1024 42 1160 100 q 700 -17 888 -17 m 700 174 q 867 197 793 174 q 990 268 942 219 q 1049 389 1038 317 l 344 389 q 381 290 353 331 q 456 223 410 249 q 565 185 503 197 q 700 174 628 174 z "},"T":{"ha":1150,"x_min":35,"x_max":1114,"o":"m 456 0 l 456 751 l 35 751 l 35 954 l 1114 954 l 1114 751 l 694 751 l 694 0 l 456 0 z "},"Ŧ":{"ha":1150,"x_min":35,"x_max":1114,"o":"m 456 0 l 456 751 l 35 751 l 35 954 l 1114 954 l 1114 751 l 694 751 l 694 0 l 456 0 m 242 379 l 242 515 l 908 515 l 908 379 l 242 379 z "},"Ť":{"ha":1150,"x_min":35,"x_max":1114,"o":"m 456 0 l 456 751 l 35 751 l 35 954 l 1114 954 l 1114 751 l 694 751 l 694 0 l 456 0 m 274 1221 l 443 1221 l 619 1064 l 526 1064 l 703 1221 l 876 1221 l 656 1024 l 493 1024 l 274 1221 z "},"Ţ":{"ha":1150,"x_min":35,"x_max":1114,"o":"m 456 0 l 456 751 l 35 751 l 35 954 l 1114 954 l 1114 751 l 694 751 l 694 0 l 456 0 m 583 -275 q 481 -271 533 -275 q 392 -258 428 -267 l 392 -189 l 578 -189 q 621 -183 604 -189 q 638 -154 638 -176 q 625 -128 638 -135 q 581 -121 613 -121 l 489 -121 l 522 42 l 640 42 l 622 -46 q 697 -58 663 -47 q 752 -93 731 -69 q 774 -160 774 -117 q 756 -218 774 -194 q 710 -253 739 -242 q 649 -270 682 -265 q 583 -275 615 -275 z "},"Ț":{"ha":1150,"x_min":35,"x_max":1114,"o":"m 456 0 l 456 751 l 35 751 l 35 954 l 1114 954 l 1114 751 l 694 751 l 694 0 l 456 0 m 444 -550 l 444 -449 q 534 -408 503 -442 q 565 -317 565 -374 l 456 -317 l 456 -100 l 694 -100 l 694 -290 q 667 -426 694 -371 q 585 -512 640 -482 q 444 -550 531 -542 z "},"Ṭ":{"ha":1150,"x_min":35,"x_max":1114,"o":"m 456 0 l 456 751 l 35 751 l 35 954 l 1114 954 l 1114 751 l 694 751 l 694 0 l 456 0 m 475 -275 l 475 -106 l 675 -106 l 675 -275 l 475 -275 z "},"U":{"ha":1325,"x_min":121,"x_max":1203,"o":"m 663 -17 q 359 39 479 -17 q 180 197 239 94 q 121 442 121 300 l 121 954 l 361 954 l 361 453 q 440 247 361 319 q 663 174 518 174 q 885 247 807 174 q 964 453 964 319 l 964 954 l 1203 954 l 1203 442 q 1144 197 1203 300 q 966 39 1086 94 q 663 -17 846 -17 z "},"Ú":{"ha":1325,"x_min":121,"x_max":1203,"o":"m 663 -17 q 359 39 479 -17 q 180 197 239 94 q 121 442 121 300 l 121 954 l 361 954 l 361 453 q 440 247 361 319 q 663 174 518 174 q 885 247 807 174 q 964 453 964 319 l 964 954 l 1203 954 l 1203 442 q 1144 197 1203 300 q 966 39 1086 94 q 663 -17 846 -17 m 524 1036 l 685 1221 l 932 1221 l 932 1214 l 704 1036 l 524 1036 z "},"Ŭ":{"ha":1325,"x_min":121,"x_max":1203,"o":"m 663 -17 q 359 39 479 -17 q 180 197 239 94 q 121 442 121 300 l 121 954 l 361 954 l 361 453 q 440 247 361 319 q 663 174 518 174 q 885 247 807 174 q 964 453 964 319 l 964 954 l 1203 954 l 1203 442 q 1144 197 1203 300 q 966 39 1086 94 q 663 -17 846 -17 m 661 1035 q 501 1063 564 1035 q 407 1135 438 1092 q 376 1221 376 1178 l 501 1221 q 527 1186 507 1203 q 582 1158 547 1169 q 661 1147 617 1147 q 748 1160 714 1147 q 801 1190 782 1172 q 822 1221 819 1207 l 947 1221 q 916 1135 947 1178 q 821 1063 885 1092 q 661 1035 757 1035 z "},"Ǔ":{"ha":1325,"x_min":121,"x_max":1203,"o":"m 663 -17 q 359 39 479 -17 q 180 197 239 94 q 121 442 121 300 l 121 954 l 361 954 l 361 453 q 440 247 361 319 q 663 174 518 174 q 885 247 807 174 q 964 453 964 319 l 964 954 l 1203 954 l 1203 442 q 1144 197 1203 300 q 966 39 1086 94 q 663 -17 846 -17 m 361 1221 l 531 1221 l 707 1064 l 614 1064 l 790 1221 l 964 1221 l 743 1024 l 581 1024 l 361 1221 z "},"Û":{"ha":1325,"x_min":121,"x_max":1203,"o":"m 663 -17 q 359 39 479 -17 q 180 197 239 94 q 121 442 121 300 l 121 954 l 361 954 l 361 453 q 440 247 361 319 q 663 174 518 174 q 885 247 807 174 q 964 453 964 319 l 964 954 l 1203 954 l 1203 442 q 1144 197 1203 300 q 966 39 1086 94 q 663 -17 846 -17 m 361 1024 l 581 1221 l 743 1221 l 964 1024 l 790 1024 l 614 1181 l 707 1181 l 531 1024 l 361 1024 z "},"Ȕ":{"ha":1325,"x_min":121,"x_max":1203,"o":"m 663 -17 q 359 39 479 -17 q 180 197 239 94 q 121 442 121 300 l 121 954 l 361 954 l 361 453 q 440 247 361 319 q 663 174 518 174 q 885 247 807 174 q 964 453 964 319 l 964 954 l 1203 954 l 1203 442 q 1144 197 1203 300 q 966 39 1086 94 q 663 -17 846 -17 m 778 1036 l 588 1211 l 588 1221 l 817 1221 l 929 1036 l 778 1036 m 446 1036 l 256 1211 l 256 1221 l 485 1221 l 597 1036 l 446 1036 z "},"Ü":{"ha":1325,"x_min":121,"x_max":1203,"o":"m 663 -17 q 359 39 479 -17 q 180 197 239 94 q 121 442 121 300 l 121 954 l 361 954 l 361 453 q 440 247 361 319 q 663 174 518 174 q 885 247 807 174 q 964 453 964 319 l 964 954 l 1203 954 l 1203 442 q 1144 197 1203 300 q 966 39 1086 94 q 663 -17 846 -17 m 383 1047 l 383 1219 l 582 1219 l 582 1047 l 383 1047 m 742 1047 l 742 1219 l 942 1219 l 942 1047 l 742 1047 z "},"Ǘ":{"ha":1325,"x_min":121,"x_max":1203,"o":"m 663 -17 q 359 39 479 -17 q 180 197 239 94 q 121 442 121 300 l 121 954 l 361 954 l 361 453 q 440 247 361 319 q 663 174 518 174 q 885 247 807 174 q 964 453 964 319 l 964 954 l 1203 954 l 1203 442 q 1144 197 1203 300 q 966 39 1086 94 q 663 -17 846 -17 m 383 1047 l 383 1219 l 582 1219 l 582 1047 l 383 1047 m 742 1047 l 742 1219 l 942 1219 l 942 1047 l 742 1047 m 524 1279 l 685 1464 l 932 1464 l 932 1457 l 704 1279 l 524 1279 z "},"Ǚ":{"ha":1325,"x_min":121,"x_max":1203,"o":"m 663 -17 q 359 39 479 -17 q 180 197 239 94 q 121 442 121 300 l 121 954 l 361 954 l 361 453 q 440 247 361 319 q 663 174 518 174 q 885 247 807 174 q 964 453 964 319 l 964 954 l 1203 954 l 1203 442 q 1144 197 1203 300 q 966 39 1086 94 q 663 -17 846 -17 m 383 1047 l 383 1219 l 582 1219 l 582 1047 l 383 1047 m 742 1047 l 742 1219 l 942 1219 l 942 1047 l 742 1047 m 361 1464 l 531 1464 l 707 1307 l 614 1307 l 790 1464 l 964 1464 l 743 1267 l 581 1267 l 361 1464 z "},"Ǜ":{"ha":1325,"x_min":121,"x_max":1203,"o":"m 663 -17 q 359 39 479 -17 q 180 197 239 94 q 121 442 121 300 l 121 954 l 361 954 l 361 453 q 440 247 361 319 q 663 174 518 174 q 885 247 807 174 q 964 453 964 319 l 964 954 l 1203 954 l 1203 442 q 1144 197 1203 300 q 966 39 1086 94 q 663 -17 846 -17 m 383 1047 l 383 1219 l 582 1219 l 582 1047 l 383 1047 m 742 1047 l 742 1219 l 942 1219 l 942 1047 l 742 1047 m 783 1279 l 604 1279 l 376 1457 l 376 1464 l 624 1464 l 783 1279 z "},"Ǖ":{"ha":1325,"x_min":121,"x_max":1203,"o":"m 663 -17 q 359 39 479 -17 q 180 197 239 94 q 121 442 121 300 l 121 954 l 361 954 l 361 453 q 440 247 361 319 q 663 174 518 174 q 885 247 807 174 q 964 453 964 319 l 964 954 l 1203 954 l 1203 442 q 1144 197 1203 300 q 966 39 1086 94 q 663 -17 846 -17 m 383 1047 l 383 1219 l 582 1219 l 582 1047 l 383 1047 m 742 1047 l 742 1219 l 942 1219 l 942 1047 l 742 1047 m 394 1296 l 394 1410 l 931 1410 l 931 1296 l 394 1296 z "},"Ụ":{"ha":1325,"x_min":121,"x_max":1203,"o":"m 663 -17 q 359 39 479 -17 q 180 197 239 94 q 121 442 121 300 l 121 954 l 361 954 l 361 453 q 440 247 361 319 q 663 174 518 174 q 885 247 807 174 q 964 453 964 319 l 964 954 l 1203 954 l 1203 442 q 1144 197 1203 300 q 966 39 1086 94 q 663 -17 846 -17 m 563 -275 l 563 -106 l 763 -106 l 763 -275 l 563 -275 z "},"Ù":{"ha":1325,"x_min":121,"x_max":1203,"o":"m 663 -17 q 359 39 479 -17 q 180 197 239 94 q 121 442 121 300 l 121 954 l 361 954 l 361 453 q 440 247 361 319 q 663 174 518 174 q 885 247 807 174 q 964 453 964 319 l 964 954 l 1203 954 l 1203 442 q 1144 197 1203 300 q 966 39 1086 94 q 663 -17 846 -17 m 783 1036 l 604 1036 l 376 1214 l 376 1221 l 624 1221 l 783 1036 z "},"Ủ":{"ha":1325,"x_min":121,"x_max":1203,"o":"m 663 -17 q 359 39 479 -17 q 180 197 239 94 q 121 442 121 300 l 121 954 l 361 954 l 361 453 q 440 247 361 319 q 663 174 518 174 q 885 247 807 174 q 964 453 964 319 l 964 954 l 1203 954 l 1203 442 q 1144 197 1203 300 q 966 39 1086 94 q 663 -17 846 -17 m 606 1028 l 606 1108 l 614 1108 q 665 1113 654 1108 q 676 1128 676 1117 q 662 1149 676 1146 q 618 1153 647 1153 l 510 1153 l 510 1222 q 557 1229 528 1226 q 615 1233 586 1232 q 661 1235 644 1235 q 722 1231 689 1235 q 783 1215 754 1226 q 831 1187 811 1204 q 850 1142 850 1169 q 831 1099 850 1115 q 783 1074 813 1082 q 719 1064 754 1065 l 719 1028 l 606 1028 z "},"Ư":{"ha":1325,"x_min":121,"x_max":1349,"o":"m 663 -17 q 359 39 479 -17 q 180 197 239 94 q 121 442 121 300 l 121 954 l 361 954 l 361 453 q 440 247 361 319 q 663 174 518 174 q 885 247 807 174 q 964 453 964 319 l 964 954 l 1203 954 l 1203 442 q 1144 197 1203 300 q 966 39 1086 94 q 663 -17 846 -17 m 982 863 l 982 954 q 1160 984 1094 954 q 1225 1065 1225 1014 l 1128 1065 l 1128 1235 l 1349 1235 l 1349 1110 q 1305 976 1349 1031 q 1179 892 1261 921 q 982 863 1097 863 z "},"Ứ":{"ha":1325,"x_min":121,"x_max":1349,"o":"m 663 -17 q 359 39 479 -17 q 180 197 239 94 q 121 442 121 300 l 121 954 l 361 954 l 361 453 q 440 247 361 319 q 663 174 518 174 q 885 247 807 174 q 964 453 964 319 l 964 954 l 1203 954 l 1203 442 q 1144 197 1203 300 q 966 39 1086 94 q 663 -17 846 -17 m 982 863 l 982 954 q 1160 984 1094 954 q 1225 1065 1225 1014 l 1128 1065 l 1128 1235 l 1349 1235 l 1349 1110 q 1305 976 1349 1031 q 1179 892 1261 921 q 982 863 1097 863 m 524 1036 l 685 1221 l 932 1221 l 932 1214 l 704 1036 l 524 1036 z "},"Ự":{"ha":1325,"x_min":121,"x_max":1349,"o":"m 663 -17 q 359 39 479 -17 q 180 197 239 94 q 121 442 121 300 l 121 954 l 361 954 l 361 453 q 440 247 361 319 q 663 174 518 174 q 885 247 807 174 q 964 453 964 319 l 964 954 l 1203 954 l 1203 442 q 1144 197 1203 300 q 966 39 1086 94 q 663 -17 846 -17 m 982 863 l 982 954 q 1160 984 1094 954 q 1225 1065 1225 1014 l 1128 1065 l 1128 1235 l 1349 1235 l 1349 1110 q 1305 976 1349 1031 q 1179 892 1261 921 q 982 863 1097 863 m 563 -275 l 563 -106 l 763 -106 l 763 -275 l 563 -275 z "},"Ừ":{"ha":1325,"x_min":121,"x_max":1349,"o":"m 663 -17 q 359 39 479 -17 q 180 197 239 94 q 121 442 121 300 l 121 954 l 361 954 l 361 453 q 440 247 361 319 q 663 174 518 174 q 885 247 807 174 q 964 453 964 319 l 964 954 l 1203 954 l 1203 442 q 1144 197 1203 300 q 966 39 1086 94 q 663 -17 846 -17 m 982 863 l 982 954 q 1160 984 1094 954 q 1225 1065 1225 1014 l 1128 1065 l 1128 1235 l 1349 1235 l 1349 1110 q 1305 976 1349 1031 q 1179 892 1261 921 q 982 863 1097 863 m 783 1036 l 604 1036 l 376 1214 l 376 1221 l 624 1221 l 783 1036 z "},"Ử":{"ha":1325,"x_min":121,"x_max":1349,"o":"m 663 -17 q 359 39 479 -17 q 180 197 239 94 q 121 442 121 300 l 121 954 l 361 954 l 361 453 q 440 247 361 319 q 663 174 518 174 q 885 247 807 174 q 964 453 964 319 l 964 954 l 1203 954 l 1203 442 q 1144 197 1203 300 q 966 39 1086 94 q 663 -17 846 -17 m 982 863 l 982 954 q 1160 984 1094 954 q 1225 1065 1225 1014 l 1128 1065 l 1128 1235 l 1349 1235 l 1349 1110 q 1305 976 1349 1031 q 1179 892 1261 921 q 982 863 1097 863 m 606 1028 l 606 1108 l 614 1108 q 665 1113 654 1108 q 676 1128 676 1117 q 662 1149 676 1146 q 618 1153 647 1153 l 510 1153 l 510 1222 q 557 1229 528 1226 q 615 1233 586 1232 q 661 1235 644 1235 q 722 1231 689 1235 q 783 1215 754 1226 q 831 1187 811 1204 q 850 1142 850 1169 q 831 1099 850 1115 q 783 1074 813 1082 q 719 1064 754 1065 l 719 1028 l 606 1028 z "},"Ữ":{"ha":1325,"x_min":121,"x_max":1349,"o":"m 663 -17 q 359 39 479 -17 q 180 197 239 94 q 121 442 121 300 l 121 954 l 361 954 l 361 453 q 440 247 361 319 q 663 174 518 174 q 885 247 807 174 q 964 453 964 319 l 964 954 l 1203 954 l 1203 442 q 1144 197 1203 300 q 966 39 1086 94 q 663 -17 846 -17 m 982 863 l 982 954 q 1160 984 1094 954 q 1225 1065 1225 1014 l 1128 1065 l 1128 1235 l 1349 1235 l 1349 1110 q 1305 976 1349 1031 q 1179 892 1261 921 q 982 863 1097 863 m 340 1032 q 366 1114 343 1072 q 431 1183 389 1156 q 535 1211 474 1211 q 632 1197 585 1211 q 724 1167 679 1182 q 810 1153 768 1153 q 858 1170 840 1153 q 882 1211 875 1188 l 985 1211 q 959 1128 983 1171 q 892 1058 935 1086 q 789 1031 849 1031 q 693 1045 740 1031 q 601 1074 646 1060 q 517 1089 556 1089 q 466 1072 483 1089 q 440 1032 449 1054 l 340 1032 z "},"Ű":{"ha":1325,"x_min":121,"x_max":1203,"o":"m 663 -17 q 359 39 479 -17 q 180 197 239 94 q 121 442 121 300 l 121 954 l 361 954 l 361 453 q 440 247 361 319 q 663 174 518 174 q 885 247 807 174 q 964 453 964 319 l 964 954 l 1203 954 l 1203 442 q 1144 197 1203 300 q 966 39 1086 94 q 663 -17 846 -17 m 717 1036 l 831 1221 l 1058 1221 l 1058 1211 l 868 1036 l 717 1036 m 385 1036 l 497 1221 l 726 1221 l 726 1211 l 536 1036 l 385 1036 z "},"Ȗ":{"ha":1325,"x_min":121,"x_max":1203,"o":"m 663 -17 q 359 39 479 -17 q 180 197 239 94 q 121 442 121 300 l 121 954 l 361 954 l 361 453 q 440 247 361 319 q 663 174 518 174 q 885 247 807 174 q 964 453 964 319 l 964 954 l 1203 954 l 1203 442 q 1144 197 1203 300 q 966 39 1086 94 q 663 -17 846 -17 m 376 1031 q 407 1117 376 1075 q 501 1188 438 1160 q 661 1217 564 1217 q 821 1188 757 1217 q 916 1117 885 1160 q 947 1031 947 1075 l 822 1031 q 801 1063 819 1046 q 748 1092 782 1079 q 661 1104 714 1104 q 582 1093 617 1104 q 527 1066 547 1082 q 501 1031 507 1050 l 376 1031 z "},"Ū":{"ha":1325,"x_min":121,"x_max":1203,"o":"m 663 -17 q 359 39 479 -17 q 180 197 239 94 q 121 442 121 300 l 121 954 l 361 954 l 361 453 q 440 247 361 319 q 663 174 518 174 q 885 247 807 174 q 964 453 964 319 l 964 954 l 1203 954 l 1203 442 q 1144 197 1203 300 q 966 39 1086 94 q 663 -17 846 -17 m 394 1053 l 394 1167 l 931 1167 l 931 1053 l 394 1053 z "},"Ų":{"ha":1325,"x_min":121,"x_max":1203,"o":"m 663 -17 q 359 39 479 -17 q 180 197 239 94 q 121 442 121 300 l 121 954 l 361 954 l 361 453 q 440 247 361 319 q 663 174 518 174 q 885 247 807 174 q 964 453 964 319 l 964 954 l 1203 954 l 1203 442 q 1144 197 1203 300 q 966 39 1086 94 q 663 -17 846 -17 m 858 -275 q 774 -261 815 -275 q 706 -215 732 -247 q 679 -131 679 -183 q 703 -45 679 -81 q 757 17 726 -10 l 888 17 l 888 11 q 844 -33 863 -6 q 825 -90 825 -60 q 846 -144 825 -119 q 911 -168 867 -168 l 1010 -168 l 1010 -256 q 935 -270 978 -265 q 858 -275 893 -275 z "},"Ů":{"ha":1325,"x_min":121,"x_max":1203,"o":"m 663 -17 q 359 39 479 -17 q 180 197 239 94 q 121 442 121 300 l 121 954 l 361 954 l 361 453 q 440 247 361 319 q 663 174 518 174 q 885 247 807 174 q 964 453 964 319 l 964 954 l 1203 954 l 1203 442 q 1144 197 1203 300 q 966 39 1086 94 q 663 -17 846 -17 m 661 1003 q 556 1044 597 1003 q 514 1147 514 1085 q 556 1252 514 1211 q 663 1293 597 1293 q 768 1253 726 1293 q 810 1149 810 1213 q 768 1044 810 1085 q 661 1003 726 1003 m 661 1082 q 712 1100 692 1082 q 732 1147 732 1118 q 712 1197 732 1178 q 661 1215 692 1215 q 612 1197 632 1215 q 592 1149 592 1178 q 612 1101 592 1119 q 661 1082 632 1082 z "},"Ũ":{"ha":1325,"x_min":121,"x_max":1203,"o":"m 663 -17 q 359 39 479 -17 q 180 197 239 94 q 121 442 121 300 l 121 954 l 361 954 l 361 453 q 440 247 361 319 q 663 174 518 174 q 885 247 807 174 q 964 453 964 319 l 964 954 l 1203 954 l 1203 442 q 1144 197 1203 300 q 966 39 1086 94 q 663 -17 846 -17 m 332 1032 q 358 1114 335 1072 q 426 1183 382 1156 q 532 1211 469 1211 q 631 1197 583 1211 q 725 1167 679 1182 q 813 1153 771 1153 q 863 1170 844 1153 q 888 1211 881 1188 l 993 1211 q 967 1128 992 1171 q 897 1058 942 1086 q 792 1031 853 1031 q 694 1045 743 1031 q 599 1074 644 1060 q 513 1089 554 1089 q 461 1072 479 1089 q 435 1032 443 1054 l 332 1032 z "},"V":{"ha":1222,"x_min":22,"x_max":1200,"o":"m 479 0 l 22 954 l 289 954 l 522 446 q 553 374 538 414 q 585 297 569 335 q 611 232 601 260 l 622 232 q 647 294 632 257 q 678 370 661 331 q 711 444 696 410 l 946 954 l 1200 954 l 743 0 l 479 0 z "},"W":{"ha":1667,"x_min":14,"x_max":1653,"o":"m 329 0 l 14 954 l 269 954 l 444 382 q 458 338 451 364 q 471 286 464 313 q 481 240 478 260 l 490 240 q 497 276 493 256 q 506 316 501 296 q 515 353 510 336 q 522 382 519 371 l 685 954 l 1003 954 l 1167 382 q 1177 340 1171 365 q 1190 288 1183 315 q 1199 240 1196 261 l 1208 240 q 1216 275 1211 256 q 1226 314 1221 294 q 1237 351 1232 333 q 1246 382 1242 368 l 1421 954 l 1653 954 l 1338 0 l 1049 0 l 871 606 q 858 651 865 626 q 847 701 851 676 q 839 743 842 725 l 832 743 q 822 697 828 724 q 809 647 815 671 q 799 606 803 622 l 625 0 l 329 0 z "},"Ẃ":{"ha":1667,"x_min":14,"x_max":1653,"o":"m 329 0 l 14 954 l 269 954 l 444 382 q 458 338 451 364 q 471 286 464 313 q 481 240 478 260 l 490 240 q 497 276 493 256 q 506 316 501 296 q 515 353 510 336 q 522 382 519 371 l 685 954 l 1003 954 l 1167 382 q 1177 340 1171 365 q 1190 288 1183 315 q 1199 240 1196 261 l 1208 240 q 1216 275 1211 256 q 1226 314 1221 294 q 1237 351 1232 333 q 1246 382 1242 368 l 1421 954 l 1653 954 l 1338 0 l 1049 0 l 871 606 q 858 651 865 626 q 847 701 851 676 q 839 743 842 725 l 832 743 q 822 697 828 724 q 809 647 815 671 q 799 606 803 622 l 625 0 l 329 0 m 696 1036 l 856 1221 l 1103 1221 l 1103 1214 l 875 1036 l 696 1036 z "},"Ŵ":{"ha":1667,"x_min":14,"x_max":1653,"o":"m 329 0 l 14 954 l 269 954 l 444 382 q 458 338 451 364 q 471 286 464 313 q 481 240 478 260 l 490 240 q 497 276 493 256 q 506 316 501 296 q 515 353 510 336 q 522 382 519 371 l 685 954 l 1003 954 l 1167 382 q 1177 340 1171 365 q 1190 288 1183 315 q 1199 240 1196 261 l 1208 240 q 1216 275 1211 256 q 1226 314 1221 294 q 1237 351 1232 333 q 1246 382 1242 368 l 1421 954 l 1653 954 l 1338 0 l 1049 0 l 871 606 q 858 651 865 626 q 847 701 851 676 q 839 743 842 725 l 832 743 q 822 697 828 724 q 809 647 815 671 q 799 606 803 622 l 625 0 l 329 0 m 532 1024 l 751 1221 l 914 1221 l 1135 1024 l 963 1024 l 785 1181 l 878 1181 l 701 1024 l 532 1024 z "},"Ẅ":{"ha":1667,"x_min":14,"x_max":1653,"o":"m 329 0 l 14 954 l 269 954 l 444 382 q 458 338 451 364 q 472 286 465 313 q 481 240 478 260 l 489 240 q 497 276 493 256 q 506 316 501 296 q 515 353 510 336 q 522 382 519 371 l 685 954 l 1003 954 l 1167 382 q 1177 340 1171 365 q 1190 288 1183 315 q 1200 240 1196 261 l 1208 240 q 1217 275 1211 256 q 1227 314 1222 294 q 1237 351 1232 333 q 1244 382 1242 368 l 1421 954 l 1653 954 l 1338 0 l 1049 0 l 869 606 q 858 651 865 626 q 847 701 851 676 q 839 743 842 725 l 832 743 q 822 697 828 724 q 810 647 815 671 q 799 606 804 622 l 625 0 l 329 0 m 554 1047 l 554 1219 l 753 1219 l 753 1047 l 554 1047 m 913 1047 l 913 1219 l 1113 1219 l 1113 1047 l 913 1047 z "},"Ẁ":{"ha":1667,"x_min":14,"x_max":1653,"o":"m 329 0 l 14 954 l 269 954 l 444 382 q 458 338 451 364 q 471 286 464 313 q 481 240 478 260 l 490 240 q 497 276 493 256 q 506 316 501 296 q 515 353 510 336 q 522 382 519 371 l 685 954 l 1003 954 l 1167 382 q 1177 340 1171 365 q 1190 288 1183 315 q 1199 240 1196 261 l 1208 240 q 1216 275 1211 256 q 1226 314 1221 294 q 1237 351 1232 333 q 1246 382 1242 368 l 1421 954 l 1653 954 l 1338 0 l 1049 0 l 871 606 q 858 651 865 626 q 847 701 851 676 q 839 743 842 725 l 832 743 q 822 697 828 724 q 809 647 815 671 q 799 606 803 622 l 625 0 l 329 0 m 956 1036 l 775 1036 l 547 1214 l 547 1221 l 794 1221 l 956 1036 z "},"X":{"ha":1283,"x_min":44,"x_max":1246,"o":"m 44 0 l 493 494 l 85 954 l 394 954 l 643 658 l 658 658 l 915 954 l 1203 954 l 796 504 l 1246 0 l 935 0 l 644 342 l 629 342 l 332 0 l 44 0 z "},"Y":{"ha":1228,"x_min":25,"x_max":1203,"o":"m 493 0 l 493 383 l 25 954 l 311 954 l 613 572 l 626 572 l 931 954 l 1203 954 l 733 383 l 733 0 l 493 0 z "},"Ý":{"ha":1228,"x_min":25,"x_max":1203,"o":"m 493 0 l 493 383 l 25 954 l 311 954 l 613 572 l 626 572 l 931 954 l 1203 954 l 733 383 l 733 0 l 493 0 m 476 1036 l 638 1221 l 883 1221 l 883 1214 l 656 1036 l 476 1036 z "},"Ŷ":{"ha":1228,"x_min":25,"x_max":1203,"o":"m 493 0 l 493 383 l 25 954 l 311 954 l 613 572 l 626 572 l 931 954 l 1203 954 l 733 383 l 733 0 l 493 0 m 313 1024 l 532 1221 l 694 1221 l 917 1024 l 743 1024 l 565 1181 l 658 1181 l 482 1024 l 313 1024 z "},"Ÿ":{"ha":1228,"x_min":25,"x_max":1203,"o":"m 493 0 l 493 383 l 25 954 l 311 954 l 613 572 l 626 572 l 931 954 l 1203 954 l 733 383 l 733 0 l 493 0 m 335 1047 l 335 1219 l 533 1219 l 533 1047 l 335 1047 m 693 1047 l 693 1219 l 893 1219 l 893 1047 l 693 1047 z "},"Ỵ":{"ha":1228,"x_min":25,"x_max":1203,"o":"m 493 0 l 493 383 l 25 954 l 311 954 l 613 572 l 626 572 l 931 954 l 1203 954 l 733 383 l 733 0 l 493 0 m 515 -275 l 515 -106 l 714 -106 l 714 -275 l 515 -275 z "},"Ỳ":{"ha":1228,"x_min":25,"x_max":1203,"o":"m 493 0 l 493 383 l 25 954 l 311 954 l 613 572 l 626 572 l 931 954 l 1203 954 l 733 383 l 733 0 l 493 0 m 736 1036 l 556 1036 l 328 1214 l 328 1221 l 575 1221 l 736 1036 z "},"Ỷ":{"ha":1228,"x_min":25,"x_max":1203,"o":"m 493 0 l 493 383 l 25 954 l 311 954 l 613 572 l 626 572 l 931 954 l 1203 954 l 733 383 l 733 0 l 493 0 m 557 1028 l 557 1108 l 567 1108 q 617 1113 606 1108 q 629 1128 629 1117 q 614 1149 629 1146 q 569 1153 599 1153 l 461 1153 l 461 1222 q 508 1229 479 1226 q 567 1233 538 1232 q 613 1235 596 1235 q 673 1231 640 1235 q 735 1215 706 1226 q 783 1187 764 1204 q 801 1142 801 1169 q 783 1099 801 1115 q 735 1074 764 1082 q 671 1064 706 1065 l 671 1028 l 557 1028 z "},"Ȳ":{"ha":1228,"x_min":25,"x_max":1203,"o":"m 493 0 l 493 383 l 25 954 l 311 954 l 613 572 l 626 572 l 931 954 l 1203 954 l 733 383 l 733 0 l 493 0 m 346 1053 l 346 1167 l 882 1167 l 882 1053 l 346 1053 z "},"Ỹ":{"ha":1228,"x_min":25,"x_max":1203,"o":"m 493 0 l 493 383 l 25 954 l 311 954 l 613 572 l 626 572 l 931 954 l 1203 954 l 733 383 l 733 0 l 493 0 m 285 1032 q 310 1114 286 1072 q 377 1183 333 1156 q 483 1211 421 1211 q 583 1197 535 1211 q 676 1167 631 1182 q 765 1153 722 1153 q 815 1170 797 1153 q 839 1211 832 1188 l 944 1211 q 918 1128 943 1171 q 849 1058 893 1086 q 743 1031 806 1031 q 646 1045 694 1031 q 551 1074 597 1060 q 464 1089 506 1089 q 413 1072 431 1089 q 388 1032 394 1054 l 285 1032 z "},"Z":{"ha":1171,"x_min":57,"x_max":1089,"o":"m 57 0 l 57 97 l 678 765 l 100 765 l 100 954 l 1082 954 l 1082 858 l 458 190 l 1089 190 l 1089 0 l 57 0 z "},"Ź":{"ha":1171,"x_min":57,"x_max":1089,"o":"m 57 0 l 57 97 l 678 765 l 100 765 l 100 954 l 1082 954 l 1082 858 l 458 190 l 1089 190 l 1089 0 l 57 0 m 442 1036 l 601 1221 l 849 1221 l 849 1214 l 621 1036 l 442 1036 z "},"Ž":{"ha":1171,"x_min":57,"x_max":1089,"o":"m 57 0 l 57 97 l 678 765 l 100 765 l 100 954 l 1082 954 l 1082 858 l 458 190 l 1089 190 l 1089 0 l 57 0 m 278 1221 l 447 1221 l 624 1064 l 531 1064 l 708 1221 l 881 1221 l 660 1024 l 497 1024 l 278 1221 z "},"Ż":{"ha":1171,"x_min":57,"x_max":1089,"o":"m 57 0 l 57 97 l 678 765 l 100 765 l 100 954 l 1082 954 l 1082 858 l 458 190 l 1089 190 l 1089 0 l 57 0 m 479 1047 l 479 1219 l 679 1219 l 679 1047 l 479 1047 z "},"a":{"ha":1047,"x_min":60,"x_max":1047,"o":"m 375 -17 q 251 -6 308 -17 q 151 28 194 4 q 84 94 108 53 q 60 200 60 136 q 108 338 60 288 q 245 411 157 389 q 452 440 333 433 q 711 446 571 446 l 711 472 q 689 544 711 518 q 622 583 667 571 q 504 594 576 594 q 405 587 450 594 q 333 563 360 579 q 307 522 307 547 l 307 508 l 89 508 q 87 519 88 514 q 86 531 86 524 q 135 645 86 596 q 280 722 183 694 q 519 749 376 749 q 744 725 653 749 q 882 647 835 701 q 929 503 929 593 l 929 196 q 940 156 929 171 q 975 142 950 142 l 1047 142 l 1047 8 q 992 -8 1031 1 q 906 -17 953 -17 q 805 -2 842 -17 q 751 38 768 13 q 728 94 735 64 l 717 94 q 624 35 678 60 q 508 -3 571 10 q 375 -17 446 -17 m 432 138 q 519 147 471 138 q 611 173 567 156 q 683 217 656 190 q 711 281 711 243 l 711 319 q 467 308 563 319 q 324 274 371 297 q 276 207 276 250 q 299 163 276 178 q 358 143 322 149 q 432 138 394 138 z "},"á":{"ha":1047,"x_min":60,"x_max":1047,"o":"m 375 -17 q 251 -6 308 -17 q 151 28 194 4 q 84 94 108 53 q 60 200 60 136 q 108 338 60 288 q 245 411 157 389 q 452 440 333 433 q 711 446 571 446 l 711 472 q 689 544 711 518 q 622 583 667 571 q 504 594 576 594 q 405 587 450 594 q 333 563 360 579 q 307 522 307 547 l 307 508 l 89 508 q 87 519 88 514 q 86 531 86 524 q 135 645 86 596 q 280 722 183 694 q 519 749 376 749 q 744 725 653 749 q 882 647 835 701 q 929 503 929 593 l 929 196 q 940 156 929 171 q 975 142 950 142 l 1047 142 l 1047 8 q 992 -8 1031 1 q 906 -17 953 -17 q 805 -2 842 -17 q 751 38 768 13 q 728 94 735 64 l 717 94 q 624 35 678 60 q 508 -3 571 10 q 375 -17 446 -17 m 432 138 q 519 147 471 138 q 611 173 567 156 q 683 217 656 190 q 711 281 711 243 l 711 319 q 467 308 563 319 q 324 274 371 297 q 276 207 276 250 q 299 163 276 178 q 358 143 322 149 q 432 138 394 138 m 354 821 l 515 1006 l 763 1006 l 763 999 l 535 821 l 354 821 z "},"ă":{"ha":1047,"x_min":60,"x_max":1047,"o":"m 375 -17 q 251 -6 308 -17 q 151 28 194 4 q 84 94 108 53 q 60 200 60 136 q 108 338 60 288 q 245 411 157 389 q 452 440 333 433 q 711 446 571 446 l 711 472 q 689 544 711 518 q 622 583 667 571 q 504 594 576 594 q 405 587 450 594 q 333 563 360 579 q 307 522 307 547 l 307 508 l 89 508 q 87 519 88 514 q 86 531 86 524 q 135 645 86 596 q 280 722 183 694 q 519 749 376 749 q 744 725 653 749 q 882 647 835 701 q 929 503 929 593 l 929 196 q 940 156 929 171 q 975 142 950 142 l 1047 142 l 1047 8 q 992 -8 1031 1 q 906 -17 953 -17 q 805 -2 842 -17 q 751 38 768 13 q 728 94 735 64 l 717 94 q 624 35 678 60 q 508 -3 571 10 q 375 -17 446 -17 m 432 138 q 519 147 471 138 q 611 173 567 156 q 683 217 656 190 q 711 281 711 243 l 711 319 q 467 308 563 319 q 324 274 371 297 q 276 207 276 250 q 299 163 276 178 q 358 143 322 149 q 432 138 394 138 m 510 819 q 349 848 413 819 q 256 919 286 876 q 225 1006 225 963 l 350 1006 q 375 971 354 988 q 430 944 396 954 q 510 933 464 933 q 597 945 563 933 q 649 974 631 957 q 671 1006 668 992 l 796 1006 q 765 919 796 963 q 669 848 733 876 q 510 819 606 819 z "},"ắ":{"ha":1047,"x_min":60,"x_max":1047,"o":"m 375 -17 q 251 -6 308 -17 q 151 28 194 4 q 84 94 108 53 q 60 200 60 136 q 108 338 60 288 q 245 411 157 389 q 452 440 333 433 q 711 446 571 446 l 711 472 q 689 544 711 518 q 622 583 667 571 q 504 594 576 594 q 405 587 450 594 q 333 563 360 579 q 307 522 307 547 l 307 508 l 89 508 q 87 519 88 514 q 86 531 86 524 q 135 645 86 596 q 280 722 183 694 q 519 749 376 749 q 744 725 653 749 q 882 647 835 701 q 929 503 929 593 l 929 196 q 940 156 929 171 q 975 142 950 142 l 1047 142 l 1047 8 q 992 -8 1031 1 q 906 -17 953 -17 q 805 -2 842 -17 q 751 38 768 13 q 728 94 735 64 l 717 94 q 624 35 678 60 q 508 -3 571 10 q 375 -17 446 -17 m 432 138 q 519 147 471 138 q 611 173 567 156 q 683 217 656 190 q 711 281 711 243 l 711 319 q 467 308 563 319 q 324 274 371 297 q 276 207 276 250 q 299 163 276 178 q 358 143 322 149 q 432 138 394 138 m 510 819 q 349 848 413 819 q 256 919 286 876 q 225 1006 225 963 l 350 1006 q 375 971 354 988 q 430 944 396 954 q 510 933 464 933 q 597 945 563 933 q 649 974 631 957 q 671 1006 668 992 l 796 1006 q 765 919 796 963 q 669 848 733 876 q 510 819 606 819 m 354 1075 l 515 1260 l 763 1260 l 763 1253 l 535 1075 l 354 1075 z "},"ặ":{"ha":1047,"x_min":60,"x_max":1047,"o":"m 375 -17 q 251 -6 308 -17 q 151 28 194 4 q 84 94 108 53 q 60 200 60 136 q 108 338 60 288 q 245 411 157 389 q 452 440 333 433 q 711 446 571 446 l 711 472 q 689 544 711 518 q 622 583 667 571 q 504 594 576 594 q 405 587 450 594 q 333 563 360 579 q 307 522 307 547 l 307 508 l 89 508 q 87 519 88 514 q 86 531 86 524 q 135 645 86 596 q 280 722 183 694 q 519 749 376 749 q 744 725 653 749 q 882 647 835 701 q 929 503 929 593 l 929 196 q 940 156 929 171 q 975 142 950 142 l 1047 142 l 1047 8 q 992 -8 1031 1 q 906 -17 953 -17 q 805 -2 842 -17 q 751 38 768 13 q 728 94 735 64 l 717 94 q 624 35 678 60 q 508 -3 571 10 q 375 -17 446 -17 m 432 138 q 519 147 471 138 q 611 173 567 156 q 683 217 656 190 q 711 281 711 243 l 711 319 q 467 308 563 319 q 324 274 371 297 q 276 207 276 250 q 299 163 276 178 q 358 143 322 149 q 432 138 394 138 m 411 -275 l 411 -106 l 610 -106 l 610 -275 l 411 -275 m 510 819 q 349 848 413 819 q 256 919 286 876 q 225 1006 225 963 l 350 1006 q 375 971 354 988 q 430 944 396 954 q 510 933 464 933 q 597 945 563 933 q 649 974 631 957 q 671 1006 668 992 l 796 1006 q 765 919 796 963 q 669 848 733 876 q 510 819 606 819 z "},"ằ":{"ha":1047,"x_min":60,"x_max":1047,"o":"m 375 -17 q 251 -6 308 -17 q 151 28 194 4 q 84 94 108 53 q 60 200 60 136 q 108 338 60 288 q 245 411 157 389 q 452 440 333 433 q 711 446 571 446 l 711 472 q 689 544 711 518 q 622 583 667 571 q 504 594 576 594 q 405 587 450 594 q 333 563 360 579 q 307 522 307 547 l 307 508 l 89 508 q 87 519 88 514 q 86 531 86 524 q 135 645 86 596 q 280 722 183 694 q 519 749 376 749 q 744 725 653 749 q 882 647 835 701 q 929 503 929 593 l 929 196 q 940 156 929 171 q 975 142 950 142 l 1047 142 l 1047 8 q 992 -8 1031 1 q 906 -17 953 -17 q 805 -2 842 -17 q 751 38 768 13 q 728 94 735 64 l 717 94 q 624 35 678 60 q 508 -3 571 10 q 375 -17 446 -17 m 432 138 q 519 147 471 138 q 611 173 567 156 q 683 217 656 190 q 711 281 711 243 l 711 319 q 467 308 563 319 q 324 274 371 297 q 276 207 276 250 q 299 163 276 178 q 358 143 322 149 q 432 138 394 138 m 510 819 q 349 848 413 819 q 256 919 286 876 q 225 1006 225 963 l 350 1006 q 375 971 354 988 q 430 944 396 954 q 510 933 464 933 q 597 945 563 933 q 649 974 631 957 q 671 1006 668 992 l 796 1006 q 765 919 796 963 q 669 848 733 876 q 510 819 606 819 m 669 1075 l 489 1075 l 263 1253 l 263 1260 l 508 1260 l 669 1075 z "},"ẳ":{"ha":1047,"x_min":60,"x_max":1047,"o":"m 375 -17 q 251 -6 308 -17 q 151 28 194 4 q 84 94 108 53 q 60 200 60 136 q 108 338 60 288 q 245 411 157 389 q 452 440 333 433 q 711 446 571 446 l 711 472 q 689 544 711 518 q 622 583 667 571 q 504 594 576 594 q 405 587 450 594 q 333 563 360 579 q 307 522 307 547 l 307 508 l 89 508 q 87 519 88 514 q 86 531 86 524 q 135 645 86 596 q 280 722 183 694 q 519 749 376 749 q 744 725 653 749 q 882 647 835 701 q 929 503 929 593 l 929 196 q 940 156 929 171 q 975 142 950 142 l 1047 142 l 1047 8 q 992 -8 1031 1 q 906 -17 953 -17 q 805 -2 842 -17 q 751 38 768 13 q 728 94 735 64 l 717 94 q 624 35 678 60 q 508 -3 571 10 q 375 -17 446 -17 m 432 138 q 519 147 471 138 q 611 173 567 156 q 683 217 656 190 q 711 281 711 243 l 711 319 q 467 308 563 319 q 324 274 371 297 q 276 207 276 250 q 299 163 276 178 q 358 143 322 149 q 432 138 394 138 m 510 819 q 349 848 413 819 q 256 919 286 876 q 225 1006 225 963 l 350 1006 q 375 971 354 988 q 430 944 396 954 q 510 933 464 933 q 597 945 563 933 q 649 974 631 957 q 671 1006 668 992 l 796 1006 q 765 919 796 963 q 669 848 733 876 q 510 819 606 819 m 453 1075 l 453 1154 l 463 1154 q 513 1158 501 1154 q 525 1175 525 1163 q 510 1196 525 1192 q 465 1200 494 1200 l 357 1200 l 357 1268 q 404 1275 375 1272 q 463 1279 433 1278 q 508 1281 492 1281 q 569 1276 536 1281 q 631 1262 601 1272 q 678 1233 660 1251 q 697 1188 697 1215 q 678 1145 697 1163 q 631 1120 660 1128 q 567 1111 601 1113 l 567 1075 l 453 1075 z "},"ẵ":{"ha":1047,"x_min":60,"x_max":1047,"o":"m 375 -17 q 251 -6 308 -17 q 151 28 194 4 q 84 94 108 53 q 60 200 60 136 q 108 338 60 288 q 245 411 157 389 q 452 440 333 433 q 711 446 571 446 l 711 472 q 689 544 711 518 q 622 583 667 571 q 504 594 576 594 q 405 587 450 594 q 333 563 360 579 q 307 522 307 547 l 307 508 l 89 508 q 87 519 88 514 q 86 531 86 524 q 135 645 86 596 q 280 722 183 694 q 519 749 376 749 q 744 725 653 749 q 882 647 835 701 q 929 503 929 593 l 929 196 q 940 156 929 171 q 975 142 950 142 l 1047 142 l 1047 8 q 992 -8 1031 1 q 906 -17 953 -17 q 805 -2 842 -17 q 751 38 768 13 q 728 94 735 64 l 717 94 q 624 35 678 60 q 508 -3 571 10 q 375 -17 446 -17 m 432 138 q 519 147 471 138 q 611 173 567 156 q 683 217 656 190 q 711 281 711 243 l 711 319 q 467 308 563 319 q 324 274 371 297 q 276 207 276 250 q 299 163 276 178 q 358 143 322 149 q 432 138 394 138 m 510 819 q 349 848 413 819 q 256 919 286 876 q 225 1006 225 963 l 350 1006 q 375 971 354 988 q 430 944 396 954 q 510 933 464 933 q 597 945 563 933 q 649 974 631 957 q 671 1006 668 992 l 796 1006 q 765 919 796 963 q 669 848 733 876 q 510 819 606 819 m 179 1081 q 206 1163 182 1121 q 273 1232 229 1204 q 379 1260 317 1260 q 478 1246 431 1260 q 572 1217 526 1232 q 660 1203 618 1203 q 710 1219 692 1203 q 735 1260 728 1236 l 840 1260 q 814 1178 839 1219 q 744 1108 789 1136 q 639 1081 700 1081 q 541 1095 590 1081 q 447 1124 492 1110 q 360 1138 401 1138 q 308 1120 326 1138 q 282 1081 290 1103 l 179 1081 z "},"ǎ":{"ha":1047,"x_min":60,"x_max":1047,"o":"m 375 -17 q 251 -6 308 -17 q 151 28 194 4 q 84 94 108 53 q 60 200 60 136 q 108 338 60 288 q 245 411 157 389 q 452 440 333 433 q 711 446 571 446 l 711 472 q 689 544 711 518 q 622 583 667 571 q 504 594 576 594 q 405 587 450 594 q 333 563 360 579 q 307 522 307 547 l 307 508 l 89 508 q 87 519 88 514 q 86 531 86 524 q 135 645 86 596 q 280 722 183 694 q 519 749 376 749 q 744 725 653 749 q 882 647 835 701 q 929 503 929 593 l 929 196 q 940 156 929 171 q 975 142 950 142 l 1047 142 l 1047 8 q 992 -8 1031 1 q 906 -17 953 -17 q 805 -2 842 -17 q 751 38 768 13 q 728 94 735 64 l 717 94 q 624 35 678 60 q 508 -3 571 10 q 375 -17 446 -17 m 432 138 q 519 147 471 138 q 611 173 567 156 q 683 217 656 190 q 711 281 711 243 l 711 319 q 467 308 563 319 q 324 274 371 297 q 276 207 276 250 q 299 163 276 178 q 358 143 322 149 q 432 138 394 138 m 208 1006 l 378 1006 l 554 849 l 463 849 l 639 1006 l 813 1006 l 592 808 l 429 808 l 208 1006 z "},"â":{"ha":1047,"x_min":60,"x_max":1047,"o":"m 375 -17 q 251 -6 308 -17 q 151 28 194 4 q 84 94 108 53 q 60 200 60 136 q 108 338 60 288 q 245 411 157 389 q 452 440 333 433 q 711 446 571 446 l 711 472 q 689 544 711 518 q 622 583 667 571 q 504 594 576 594 q 405 587 450 594 q 333 563 360 579 q 307 522 307 547 l 307 508 l 89 508 q 87 519 88 514 q 86 531 86 524 q 135 645 86 596 q 280 722 183 694 q 519 749 376 749 q 744 725 653 749 q 882 647 835 701 q 929 503 929 593 l 929 196 q 940 156 929 171 q 975 142 950 142 l 1047 142 l 1047 8 q 992 -8 1031 1 q 906 -17 953 -17 q 805 -2 842 -17 q 751 38 768 13 q 728 94 735 64 l 717 94 q 624 35 678 60 q 508 -3 571 10 q 375 -17 446 -17 m 432 138 q 519 147 471 138 q 611 173 567 156 q 683 217 656 190 q 711 281 711 243 l 711 319 q 467 308 563 319 q 324 274 371 297 q 276 207 276 250 q 299 163 276 178 q 358 143 322 149 q 432 138 394 138 m 208 808 l 429 1006 l 592 1006 l 813 808 l 639 808 l 463 965 l 554 965 l 378 808 l 208 808 z "},"ấ":{"ha":1047,"x_min":60,"x_max":1047,"o":"m 375 -17 q 251 -6 308 -17 q 151 28 194 4 q 84 94 108 53 q 60 200 60 136 q 108 338 60 288 q 245 411 157 389 q 452 440 333 433 q 711 446 571 446 l 711 472 q 689 544 711 518 q 622 583 667 571 q 504 594 576 594 q 405 587 450 594 q 333 563 360 579 q 307 522 307 547 l 307 508 l 89 508 q 87 519 88 514 q 86 531 86 524 q 135 645 86 596 q 280 722 183 694 q 519 749 376 749 q 744 725 653 749 q 882 647 835 701 q 929 503 929 593 l 929 196 q 940 156 929 171 q 975 142 950 142 l 1047 142 l 1047 8 q 992 -8 1031 1 q 906 -17 953 -17 q 805 -2 842 -17 q 751 38 768 13 q 728 94 735 64 l 717 94 q 624 35 678 60 q 508 -3 571 10 q 375 -17 446 -17 m 432 138 q 519 147 471 138 q 611 173 567 156 q 683 217 656 190 q 711 281 711 243 l 711 319 q 467 308 563 319 q 324 274 371 297 q 276 207 276 250 q 299 163 276 178 q 358 143 322 149 q 432 138 394 138 m 208 808 l 429 1006 l 592 1006 l 813 808 l 639 808 l 463 965 l 554 965 l 378 808 l 208 808 m 354 1075 l 515 1260 l 763 1260 l 763 1253 l 535 1075 l 354 1075 z "},"ậ":{"ha":1047,"x_min":60,"x_max":1047,"o":"m 375 -17 q 251 -6 308 -17 q 151 28 194 4 q 84 94 108 53 q 60 200 60 136 q 108 338 60 288 q 245 411 157 389 q 452 440 333 433 q 711 446 571 446 l 711 472 q 689 544 711 518 q 622 583 667 571 q 504 594 576 594 q 405 587 450 594 q 333 563 360 579 q 307 522 307 547 l 307 508 l 89 508 q 87 519 88 514 q 86 531 86 524 q 135 645 86 596 q 280 722 183 694 q 519 749 376 749 q 744 725 653 749 q 882 647 835 701 q 929 503 929 593 l 929 196 q 940 156 929 171 q 975 142 950 142 l 1047 142 l 1047 8 q 992 -8 1031 1 q 906 -17 953 -17 q 805 -2 842 -17 q 751 38 768 13 q 728 94 735 64 l 717 94 q 624 35 678 60 q 508 -3 571 10 q 375 -17 446 -17 m 432 138 q 519 147 471 138 q 611 173 567 156 q 683 217 656 190 q 711 281 711 243 l 711 319 q 467 308 563 319 q 324 274 371 297 q 276 207 276 250 q 299 163 276 178 q 358 143 322 149 q 432 138 394 138 m 411 -275 l 411 -106 l 610 -106 l 610 -275 l 411 -275 m 208 808 l 429 1006 l 592 1006 l 813 808 l 639 808 l 463 965 l 554 965 l 378 808 l 208 808 z "},"ầ":{"ha":1047,"x_min":60,"x_max":1047,"o":"m 375 -17 q 251 -6 308 -17 q 151 28 194 4 q 84 94 108 53 q 60 200 60 136 q 108 338 60 288 q 245 411 157 389 q 452 440 333 433 q 711 446 571 446 l 711 472 q 689 544 711 518 q 622 583 667 571 q 504 594 576 594 q 405 587 450 594 q 333 563 360 579 q 307 522 307 547 l 307 508 l 89 508 q 87 519 88 514 q 86 531 86 524 q 135 645 86 596 q 280 722 183 694 q 519 749 376 749 q 744 725 653 749 q 882 647 835 701 q 929 503 929 593 l 929 196 q 940 156 929 171 q 975 142 950 142 l 1047 142 l 1047 8 q 992 -8 1031 1 q 906 -17 953 -17 q 805 -2 842 -17 q 751 38 768 13 q 728 94 735 64 l 717 94 q 624 35 678 60 q 508 -3 571 10 q 375 -17 446 -17 m 432 138 q 519 147 471 138 q 611 173 567 156 q 683 217 656 190 q 711 281 711 243 l 711 319 q 467 308 563 319 q 324 274 371 297 q 276 207 276 250 q 299 163 276 178 q 358 143 322 149 q 432 138 394 138 m 208 808 l 429 1006 l 592 1006 l 813 808 l 639 808 l 463 965 l 554 965 l 378 808 l 208 808 m 669 1075 l 489 1075 l 263 1253 l 263 1260 l 508 1260 l 669 1075 z "},"ẩ":{"ha":1047,"x_min":60,"x_max":1047,"o":"m 375 -17 q 251 -6 308 -17 q 151 28 194 4 q 84 94 108 53 q 60 200 60 136 q 108 338 60 288 q 245 411 157 389 q 452 440 333 433 q 711 446 571 446 l 711 472 q 689 544 711 518 q 622 583 667 571 q 504 594 576 594 q 405 587 450 594 q 333 563 360 579 q 307 522 307 547 l 307 508 l 89 508 q 87 519 88 514 q 86 531 86 524 q 135 645 86 596 q 280 722 183 694 q 519 749 376 749 q 744 725 653 749 q 882 647 835 701 q 929 503 929 593 l 929 196 q 940 156 929 171 q 975 142 950 142 l 1047 142 l 1047 8 q 992 -8 1031 1 q 906 -17 953 -17 q 805 -2 842 -17 q 751 38 768 13 q 728 94 735 64 l 717 94 q 624 35 678 60 q 508 -3 571 10 q 375 -17 446 -17 m 432 138 q 519 147 471 138 q 611 173 567 156 q 683 217 656 190 q 711 281 711 243 l 711 319 q 467 308 563 319 q 324 274 371 297 q 276 207 276 250 q 299 163 276 178 q 358 143 322 149 q 432 138 394 138 m 208 808 l 429 1006 l 592 1006 l 813 808 l 639 808 l 463 965 l 554 965 l 378 808 l 208 808 m 453 1075 l 453 1154 l 463 1154 q 513 1158 501 1154 q 525 1175 525 1163 q 510 1196 525 1192 q 465 1200 494 1200 l 357 1200 l 357 1268 q 404 1275 375 1272 q 463 1279 433 1278 q 508 1281 492 1281 q 569 1276 536 1281 q 631 1262 601 1272 q 678 1233 660 1251 q 697 1188 697 1215 q 678 1145 697 1163 q 631 1120 660 1128 q 567 1111 601 1113 l 567 1075 l 453 1075 z "},"ẫ":{"ha":1047,"x_min":60,"x_max":1047,"o":"m 375 -17 q 251 -6 308 -17 q 151 28 194 4 q 84 94 108 53 q 60 200 60 136 q 108 338 60 288 q 245 411 157 389 q 452 440 333 433 q 711 446 571 446 l 711 472 q 689 544 711 518 q 622 583 667 571 q 504 594 576 594 q 405 587 450 594 q 333 563 360 579 q 307 522 307 547 l 307 508 l 89 508 q 87 519 88 514 q 86 531 86 524 q 135 645 86 596 q 280 722 183 694 q 519 749 376 749 q 744 725 653 749 q 882 647 835 701 q 929 503 929 593 l 929 196 q 940 156 929 171 q 975 142 950 142 l 1047 142 l 1047 8 q 992 -8 1031 1 q 906 -17 953 -17 q 805 -2 842 -17 q 751 38 768 13 q 728 94 735 64 l 717 94 q 624 35 678 60 q 508 -3 571 10 q 375 -17 446 -17 m 432 138 q 519 147 471 138 q 611 173 567 156 q 683 217 656 190 q 711 281 711 243 l 711 319 q 467 308 563 319 q 324 274 371 297 q 276 207 276 250 q 299 163 276 178 q 358 143 322 149 q 432 138 394 138 m 208 808 l 429 1006 l 592 1006 l 813 808 l 639 808 l 463 965 l 554 965 l 378 808 l 208 808 m 179 1081 q 206 1163 182 1121 q 273 1232 229 1204 q 379 1260 317 1260 q 478 1246 431 1260 q 572 1217 526 1232 q 660 1203 618 1203 q 710 1219 692 1203 q 735 1260 728 1236 l 840 1260 q 814 1178 839 1219 q 744 1108 789 1136 q 639 1081 700 1081 q 541 1095 590 1081 q 447 1124 492 1110 q 360 1138 401 1138 q 308 1120 326 1138 q 282 1081 290 1103 l 179 1081 z "},"ȁ":{"ha":1047,"x_min":60,"x_max":1047,"o":"m 375 -17 q 251 -6 308 -17 q 151 28 194 4 q 84 94 108 53 q 60 200 60 136 q 108 338 60 288 q 245 411 157 389 q 452 440 333 433 q 711 446 571 446 l 711 472 q 689 544 711 518 q 622 583 667 571 q 504 594 576 594 q 405 587 450 594 q 333 563 360 579 q 307 522 307 547 l 307 508 l 89 508 q 87 519 88 514 q 86 531 86 524 q 135 645 86 596 q 280 722 183 694 q 519 749 376 749 q 744 725 653 749 q 882 647 835 701 q 929 503 929 593 l 929 196 q 940 156 929 171 q 975 142 950 142 l 1047 142 l 1047 8 q 992 -8 1031 1 q 906 -17 953 -17 q 805 -2 842 -17 q 751 38 768 13 q 728 94 735 64 l 717 94 q 624 35 678 60 q 508 -3 571 10 q 375 -17 446 -17 m 432 138 q 519 147 471 138 q 611 173 567 156 q 683 217 656 190 q 711 281 711 243 l 711 319 q 467 308 563 319 q 324 274 371 297 q 276 207 276 250 q 299 163 276 178 q 358 143 322 149 q 432 138 394 138 m 610 822 l 419 997 l 419 1007 l 647 1007 l 761 822 l 610 822 m 278 822 l 88 997 l 88 1007 l 315 1007 l 429 822 l 278 822 z "},"ä":{"ha":1047,"x_min":60,"x_max":1047,"o":"m 375 -17 q 251 -6 308 -17 q 151 28 194 4 q 84 94 108 53 q 60 200 60 136 q 108 338 60 288 q 245 411 157 389 q 452 440 333 433 q 711 446 571 446 l 711 472 q 689 544 711 518 q 622 583 667 571 q 504 594 576 594 q 405 587 450 594 q 333 563 360 579 q 307 522 307 547 l 307 508 l 89 508 q 87 519 88 514 q 86 531 86 524 q 135 645 86 596 q 280 722 183 694 q 519 749 376 749 q 744 725 653 749 q 882 647 835 701 q 929 503 929 593 l 929 196 q 940 156 929 171 q 975 142 950 142 l 1047 142 l 1047 8 q 992 -8 1031 1 q 906 -17 953 -17 q 805 -2 842 -17 q 751 38 768 13 q 728 94 735 64 l 717 94 q 624 35 678 60 q 508 -3 571 10 q 375 -17 446 -17 m 432 138 q 519 147 471 138 q 611 173 567 156 q 683 217 656 190 q 711 281 711 243 l 711 319 q 467 308 563 319 q 324 274 371 297 q 276 207 276 250 q 299 163 276 178 q 358 143 322 149 q 432 138 394 138 m 232 831 l 232 1003 l 431 1003 l 431 831 l 232 831 m 589 831 l 589 1003 l 789 1003 l 789 831 l 589 831 z "},"ạ":{"ha":1047,"x_min":60,"x_max":1047,"o":"m 375 -17 q 251 -6 308 -17 q 151 28 194 4 q 84 94 108 53 q 60 200 60 136 q 108 338 60 288 q 245 411 157 389 q 452 440 333 433 q 711 446 571 446 l 711 472 q 689 544 711 518 q 622 583 667 571 q 504 594 576 594 q 405 587 450 594 q 333 563 360 579 q 307 522 307 547 l 307 508 l 89 508 q 87 519 88 514 q 86 531 86 524 q 135 645 86 596 q 280 722 183 694 q 519 749 376 749 q 744 725 653 749 q 882 647 835 701 q 929 503 929 593 l 929 196 q 940 156 929 171 q 975 142 950 142 l 1047 142 l 1047 8 q 992 -8 1031 1 q 906 -17 953 -17 q 805 -2 842 -17 q 751 38 768 13 q 728 94 735 64 l 717 94 q 624 35 678 60 q 508 -3 571 10 q 375 -17 446 -17 m 432 138 q 519 147 471 138 q 611 173 567 156 q 683 217 656 190 q 711 281 711 243 l 711 319 q 467 308 563 319 q 324 274 371 297 q 276 207 276 250 q 299 163 276 178 q 358 143 322 149 q 432 138 394 138 m 411 -275 l 411 -106 l 610 -106 l 610 -275 l 411 -275 z "},"à":{"ha":1047,"x_min":60,"x_max":1047,"o":"m 375 -17 q 251 -6 308 -17 q 151 28 194 4 q 84 94 108 53 q 60 200 60 136 q 108 338 60 288 q 245 411 157 389 q 452 440 333 433 q 711 446 571 446 l 711 472 q 689 544 711 518 q 622 583 667 571 q 504 594 576 594 q 405 587 450 594 q 333 563 360 579 q 307 522 307 547 l 307 508 l 89 508 q 87 519 88 514 q 86 531 86 524 q 135 645 86 596 q 280 722 183 694 q 519 749 376 749 q 744 725 653 749 q 882 647 835 701 q 929 503 929 593 l 929 196 q 940 156 929 171 q 975 142 950 142 l 1047 142 l 1047 8 q 992 -8 1031 1 q 906 -17 953 -17 q 805 -2 842 -17 q 751 38 768 13 q 728 94 735 64 l 717 94 q 624 35 678 60 q 508 -3 571 10 q 375 -17 446 -17 m 432 138 q 519 147 471 138 q 611 173 567 156 q 683 217 656 190 q 711 281 711 243 l 711 319 q 467 308 563 319 q 324 274 371 297 q 276 207 276 250 q 299 163 276 178 q 358 143 322 149 q 432 138 394 138 m 669 821 l 489 821 l 263 999 l 263 1006 l 508 1006 l 669 821 z "},"ả":{"ha":1047,"x_min":60,"x_max":1047,"o":"m 375 -17 q 251 -6 308 -17 q 151 28 194 4 q 84 94 108 53 q 60 200 60 136 q 108 338 60 288 q 245 411 157 389 q 452 440 333 433 q 711 446 571 446 l 711 472 q 689 544 711 518 q 622 583 667 571 q 504 594 576 594 q 405 587 450 594 q 333 563 360 579 q 307 522 307 547 l 307 508 l 89 508 q 87 519 88 514 q 86 531 86 524 q 135 645 86 596 q 280 722 183 694 q 519 749 376 749 q 744 725 653 749 q 882 647 835 701 q 929 503 929 593 l 929 196 q 940 156 929 171 q 975 142 950 142 l 1047 142 l 1047 8 q 992 -8 1031 1 q 906 -17 953 -17 q 805 -2 842 -17 q 751 38 768 13 q 728 94 735 64 l 717 94 q 624 35 678 60 q 508 -3 571 10 q 375 -17 446 -17 m 432 138 q 519 147 471 138 q 611 173 567 156 q 683 217 656 190 q 711 281 711 243 l 711 319 q 467 308 563 319 q 324 274 371 297 q 276 207 276 250 q 299 163 276 178 q 358 143 322 149 q 432 138 394 138 m 453 821 l 453 901 l 463 901 q 513 906 501 901 q 525 921 525 910 q 510 942 525 939 q 465 946 494 946 l 357 946 l 357 1014 q 404 1021 375 1018 q 463 1025 433 1024 q 508 1026 492 1026 q 569 1022 536 1026 q 631 1008 601 1018 q 678 980 660 997 q 697 933 697 963 q 678 892 697 908 q 631 867 660 875 q 567 857 601 858 l 567 821 l 453 821 z "},"ȃ":{"ha":1047,"x_min":60,"x_max":1047,"o":"m 375 -17 q 251 -6 308 -17 q 151 28 194 4 q 84 94 108 53 q 60 200 60 136 q 108 338 60 288 q 245 411 157 389 q 452 440 333 433 q 711 446 571 446 l 711 472 q 689 544 711 518 q 622 583 667 571 q 504 594 576 594 q 405 587 450 594 q 333 563 360 579 q 307 522 307 547 l 307 508 l 89 508 q 87 519 88 514 q 86 531 86 524 q 135 645 86 596 q 280 722 183 694 q 519 749 376 749 q 744 725 653 749 q 882 647 835 701 q 929 503 929 593 l 929 196 q 940 156 929 171 q 975 142 950 142 l 1047 142 l 1047 8 q 992 -8 1031 1 q 906 -17 953 -17 q 805 -2 842 -17 q 751 38 768 13 q 728 94 735 64 l 717 94 q 624 35 678 60 q 508 -3 571 10 q 375 -17 446 -17 m 432 138 q 519 147 471 138 q 611 173 567 156 q 683 217 656 190 q 711 281 711 243 l 711 319 q 467 308 563 319 q 324 274 371 297 q 276 207 276 250 q 299 163 276 178 q 358 143 322 149 q 432 138 394 138 m 510 1004 q 670 976 607 1004 q 765 904 733 947 q 796 818 796 861 l 671 818 q 649 850 668 833 q 597 878 631 867 q 510 890 563 890 q 431 880 465 890 q 376 853 396 869 q 351 818 356 836 l 225 818 q 256 904 225 861 q 350 976 286 947 q 510 1004 414 1004 z "},"ā":{"ha":1047,"x_min":60,"x_max":1047,"o":"m 375 -17 q 251 -6 308 -17 q 151 28 194 4 q 84 94 108 53 q 60 200 60 136 q 108 338 60 288 q 245 411 157 389 q 452 440 333 433 q 711 446 571 446 l 711 472 q 689 544 711 518 q 622 583 667 571 q 504 594 576 594 q 405 587 450 594 q 333 563 360 579 q 307 522 307 547 l 307 508 l 89 508 q 87 519 88 514 q 86 531 86 524 q 135 645 86 596 q 280 722 183 694 q 519 749 376 749 q 744 725 653 749 q 882 647 835 701 q 929 503 929 593 l 929 196 q 940 156 929 171 q 975 142 950 142 l 1047 142 l 1047 8 q 992 -8 1031 1 q 906 -17 953 -17 q 805 -2 842 -17 q 751 38 768 13 q 728 94 735 64 l 717 94 q 624 35 678 60 q 508 -3 571 10 q 375 -17 446 -17 m 432 138 q 519 147 471 138 q 611 173 567 156 q 683 217 656 190 q 711 281 711 243 l 711 319 q 467 308 563 319 q 324 274 371 297 q 276 207 276 250 q 299 163 276 178 q 358 143 322 149 q 432 138 394 138 m 242 858 l 242 972 l 778 972 l 778 858 l 242 858 z "},"ą":{"ha":1047,"x_min":60,"x_max":1047,"o":"m 375 -17 q 251 -6 308 -17 q 151 28 194 4 q 84 94 108 53 q 60 200 60 136 q 108 338 60 288 q 245 411 157 389 q 452 440 333 433 q 711 446 571 446 l 711 472 q 689 544 711 518 q 622 583 667 571 q 504 594 576 594 q 405 587 450 594 q 333 563 360 579 q 307 522 307 547 l 307 508 l 89 508 q 87 519 88 514 q 86 531 86 524 q 135 645 86 596 q 280 722 183 694 q 519 749 376 749 q 744 725 653 749 q 882 647 835 701 q 929 503 929 593 l 929 196 q 940 156 929 171 q 975 142 950 142 l 1047 142 l 1047 8 q 992 -8 1031 1 q 906 -17 953 -17 q 805 -2 842 -17 q 751 38 768 13 q 728 94 735 64 l 717 94 q 624 35 678 60 q 508 -3 571 10 q 375 -17 446 -17 m 432 138 q 519 147 471 138 q 611 173 567 156 q 683 217 656 190 q 711 281 711 243 l 711 319 q 467 308 563 319 q 324 274 371 297 q 276 207 276 250 q 299 163 276 178 q 358 143 322 149 q 432 138 394 138 m 894 -275 q 810 -261 851 -275 q 742 -215 769 -247 q 715 -131 715 -183 q 739 -45 715 -81 q 793 17 763 -10 l 924 17 l 924 11 q 880 -33 899 -6 q 861 -90 861 -60 q 883 -144 861 -119 q 947 -168 904 -168 l 1047 -168 l 1047 -256 q 972 -270 1014 -265 q 894 -275 929 -275 z "},"å":{"ha":1047,"x_min":60,"x_max":1047,"o":"m 375 -17 q 251 -6 308 -17 q 151 28 194 4 q 84 94 108 53 q 60 200 60 136 q 108 338 60 288 q 245 411 157 389 q 452 440 333 433 q 711 446 571 446 l 711 472 q 689 544 711 518 q 622 583 667 571 q 504 594 576 594 q 405 587 450 594 q 333 563 360 579 q 307 522 307 547 l 307 508 l 89 508 q 87 519 88 514 q 86 531 86 524 q 135 645 86 596 q 280 722 183 694 q 519 749 376 749 q 744 725 653 749 q 882 647 835 701 q 929 503 929 593 l 929 196 q 940 156 929 171 q 975 142 950 142 l 1047 142 l 1047 8 q 992 -8 1031 1 q 906 -17 953 -17 q 805 -2 842 -17 q 751 38 768 13 q 728 94 735 64 l 717 94 q 624 35 678 60 q 508 -3 571 10 q 375 -17 446 -17 m 432 138 q 519 147 471 138 q 611 173 567 156 q 683 217 656 190 q 711 281 711 243 l 711 319 q 467 308 563 319 q 324 274 371 297 q 276 207 276 250 q 299 163 276 178 q 358 143 322 149 q 432 138 394 138 m 510 789 q 403 833 447 789 q 360 939 360 876 q 403 1046 360 1001 q 510 1090 447 1090 q 617 1046 572 1090 q 661 939 661 1001 q 617 833 661 876 q 510 789 572 789 m 510 867 q 561 888 540 867 q 582 939 582 910 q 561 991 582 969 q 510 1013 540 1013 q 459 991 481 1013 q 438 939 438 969 q 459 888 438 910 q 510 867 481 867 z "},"ǻ":{"ha":1047,"x_min":60,"x_max":1047,"o":"m 375 -17 q 251 -6 308 -17 q 151 28 194 4 q 84 94 108 53 q 60 200 60 136 q 108 338 60 288 q 245 411 157 389 q 452 440 333 433 q 711 446 571 446 l 711 472 q 689 544 711 518 q 622 583 667 571 q 504 594 576 594 q 405 587 450 594 q 333 563 360 579 q 307 522 307 547 l 307 508 l 89 508 q 87 519 88 514 q 86 531 86 524 q 135 645 86 596 q 280 722 183 694 q 519 749 376 749 q 744 725 653 749 q 882 647 835 701 q 929 503 929 593 l 929 196 q 940 156 929 171 q 975 142 950 142 l 1047 142 l 1047 8 q 992 -8 1031 1 q 906 -17 953 -17 q 805 -2 842 -17 q 751 38 768 13 q 728 94 735 64 l 717 94 q 624 35 678 60 q 508 -3 571 10 q 375 -17 446 -17 m 432 138 q 519 147 471 138 q 611 173 567 156 q 683 217 656 190 q 711 281 711 243 l 711 319 q 467 308 563 319 q 324 274 371 297 q 276 207 276 250 q 299 163 276 178 q 358 143 322 149 q 432 138 394 138 m 510 789 q 403 833 447 789 q 360 939 360 876 q 403 1046 360 1001 q 510 1090 447 1090 q 617 1046 572 1090 q 661 939 661 1001 q 617 833 661 876 q 510 789 572 789 m 510 867 q 561 888 540 867 q 582 939 582 910 q 561 991 582 969 q 510 1013 540 1013 q 459 991 481 1013 q 438 939 438 969 q 459 888 438 910 q 510 867 481 867 m 354 1139 l 515 1324 l 763 1324 l 763 1317 l 535 1139 l 354 1139 z "},"ã":{"ha":1047,"x_min":60,"x_max":1047,"o":"m 375 -17 q 251 -6 308 -17 q 151 28 194 4 q 84 94 108 53 q 60 200 60 136 q 108 338 60 288 q 245 411 157 389 q 452 440 333 433 q 711 446 571 446 l 711 472 q 689 544 711 518 q 622 583 667 571 q 504 594 576 594 q 405 587 450 594 q 333 563 360 579 q 307 522 307 547 l 307 508 l 89 508 q 87 519 88 514 q 86 531 86 524 q 135 645 86 596 q 280 722 183 694 q 519 749 376 749 q 744 725 653 749 q 882 647 835 701 q 929 503 929 593 l 929 196 q 940 156 929 171 q 975 142 950 142 l 1047 142 l 1047 8 q 992 -8 1031 1 q 906 -17 953 -17 q 805 -2 842 -17 q 751 38 768 13 q 728 94 735 64 l 717 94 q 624 35 678 60 q 508 -3 571 10 q 375 -17 446 -17 m 432 138 q 519 147 471 138 q 611 173 567 156 q 683 217 656 190 q 711 281 711 243 l 711 319 q 467 308 563 319 q 324 274 371 297 q 276 207 276 250 q 299 163 276 178 q 358 143 322 149 q 432 138 394 138 m 179 828 q 206 908 182 867 q 273 978 229 950 q 379 1006 317 1006 q 478 992 431 1006 q 572 963 526 978 q 660 949 618 949 q 710 966 692 949 q 735 1006 728 983 l 840 1006 q 814 924 839 965 q 744 854 789 882 q 639 826 700 826 q 541 841 590 826 q 447 869 492 856 q 360 883 401 883 q 308 866 326 883 q 282 828 290 849 l 179 828 z "},"æ":{"ha":1693,"x_min":60,"x_max":1628,"o":"m 408 -17 q 271 -7 335 -17 q 160 26 207 3 q 86 89 113 50 q 60 186 60 128 q 108 333 60 279 q 245 410 157 386 q 452 440 333 433 q 711 446 571 446 l 711 472 q 689 544 711 518 q 622 583 667 571 q 504 594 576 594 q 405 587 450 594 q 333 563 360 579 q 307 522 307 547 l 307 508 l 89 508 q 87 519 88 514 q 86 531 86 524 q 135 645 86 596 q 280 722 183 694 q 519 749 376 749 q 719 725 635 749 q 851 647 803 701 q 991 723 911 697 q 1168 749 1071 749 q 1419 707 1317 749 q 1575 583 1522 665 q 1628 381 1628 501 l 1628 317 l 933 317 q 967 213 936 253 q 1053 156 999 174 q 1182 138 1108 138 q 1251 145 1214 138 q 1322 167 1289 153 q 1376 202 1354 181 q 1401 254 1397 224 l 1624 254 q 1592 146 1624 196 q 1503 60 1561 96 q 1362 3 1444 24 q 1176 -17 1279 -17 q 966 13 1058 -17 q 813 103 874 43 q 703 38 767 65 q 565 -3 640 11 q 408 -17 490 -17 m 432 138 q 519 147 471 138 q 611 173 567 156 q 683 217 656 190 q 711 281 711 243 l 711 319 q 467 308 563 319 q 324 274 371 297 q 276 207 276 250 q 299 163 276 178 q 358 143 322 149 q 432 138 394 138 m 933 449 l 1397 449 q 1380 512 1397 485 q 1332 558 1363 539 q 1260 585 1301 576 q 1174 594 1219 594 q 1052 577 1104 594 q 970 527 1000 560 q 933 449 940 494 z "},"ǽ":{"ha":1693,"x_min":60,"x_max":1628,"o":"m 408 -17 q 271 -7 335 -17 q 160 26 207 3 q 86 89 113 50 q 60 186 60 128 q 108 333 60 279 q 245 410 157 386 q 452 440 333 433 q 711 446 571 446 l 711 472 q 689 544 711 518 q 622 583 667 571 q 504 594 576 594 q 405 587 450 594 q 333 563 360 579 q 307 522 307 547 l 307 508 l 89 508 q 87 519 88 514 q 86 531 86 524 q 135 645 86 596 q 280 722 183 694 q 519 749 376 749 q 719 725 635 749 q 851 647 803 701 q 991 723 911 697 q 1168 749 1071 749 q 1419 707 1317 749 q 1575 583 1522 665 q 1628 381 1628 501 l 1628 317 l 933 317 q 967 213 936 253 q 1053 156 999 174 q 1182 138 1108 138 q 1251 145 1214 138 q 1322 167 1289 153 q 1376 202 1354 181 q 1401 254 1397 224 l 1624 254 q 1592 146 1624 196 q 1503 60 1561 96 q 1362 3 1444 24 q 1176 -17 1279 -17 q 966 13 1058 -17 q 813 103 874 43 q 703 38 767 65 q 565 -3 640 11 q 408 -17 490 -17 m 432 138 q 519 147 471 138 q 611 173 567 156 q 683 217 656 190 q 711 281 711 243 l 711 319 q 467 308 563 319 q 324 274 371 297 q 276 207 276 250 q 299 163 276 178 q 358 143 322 149 q 432 138 394 138 m 933 449 l 1397 449 q 1380 512 1397 485 q 1332 558 1363 539 q 1260 585 1301 576 q 1174 594 1219 594 q 1052 577 1104 594 q 970 527 1000 560 q 933 449 940 494 m 692 821 l 851 1006 l 1099 1006 l 1099 999 l 871 821 l 692 821 z "},"b":{"ha":1032,"x_min":96,"x_max":967,"o":"m 589 -17 q 427 13 501 -17 q 300 115 353 43 l 289 115 l 271 0 l 96 0 l 96 1006 l 313 1006 l 313 642 l 324 642 q 397 701 354 678 q 492 737 440 725 q 599 749 544 749 q 790 707 707 749 q 919 581 872 665 q 967 365 967 496 q 919 152 967 238 q 786 25 871 67 q 589 -17 701 -17 m 529 157 q 647 181 599 157 q 721 249 696 204 q 746 356 746 293 l 746 376 q 721 483 746 439 q 648 552 696 528 q 532 576 600 576 q 438 562 479 576 q 369 521 397 547 q 326 457 340 494 q 311 371 311 419 l 311 360 q 337 251 311 297 q 412 181 363 206 q 529 157 461 157 z "},"c":{"ha":1032,"x_min":67,"x_max":965,"o":"m 529 -17 q 281 26 385 -17 q 122 153 178 68 q 67 367 67 239 q 122 579 67 494 q 281 706 178 664 q 529 749 385 749 q 699 730 619 749 q 839 673 779 711 q 932 578 899 635 q 965 444 965 521 l 746 444 q 717 524 746 492 q 638 573 688 556 q 529 590 589 590 q 400 565 453 590 q 319 494 347 540 q 292 381 292 447 l 292 353 q 320 240 292 288 q 403 167 349 193 q 538 142 458 142 q 645 160 596 142 q 724 213 694 179 q 754 289 754 246 l 965 289 q 931 153 965 211 q 838 58 897 96 q 699 2 779 21 q 529 -17 619 -17 z "},"ć":{"ha":1032,"x_min":67,"x_max":965,"o":"m 529 -17 q 281 26 385 -17 q 122 153 178 68 q 67 367 67 239 q 122 579 67 494 q 281 706 178 664 q 529 749 385 749 q 699 730 619 749 q 839 673 779 711 q 932 578 899 635 q 965 444 965 521 l 746 444 q 717 524 746 492 q 638 573 688 556 q 529 590 589 590 q 400 565 453 590 q 319 494 347 540 q 292 381 292 447 l 292 353 q 320 240 292 288 q 403 167 349 193 q 538 142 458 142 q 645 160 596 142 q 724 213 694 179 q 754 289 754 246 l 965 289 q 931 153 965 211 q 838 58 897 96 q 699 2 779 21 q 529 -17 619 -17 m 372 821 l 533 1006 l 781 1006 l 781 999 l 553 821 l 372 821 z "},"č":{"ha":1032,"x_min":67,"x_max":965,"o":"m 529 -17 q 281 26 385 -17 q 122 153 178 68 q 67 367 67 239 q 122 579 67 494 q 281 706 178 664 q 529 749 385 749 q 699 730 619 749 q 839 673 779 711 q 932 578 899 635 q 965 444 965 521 l 746 444 q 717 524 746 492 q 638 573 688 556 q 529 590 589 590 q 400 565 453 590 q 319 494 347 540 q 292 381 292 447 l 292 353 q 320 240 292 288 q 403 167 349 193 q 538 142 458 142 q 645 160 596 142 q 724 213 694 179 q 754 289 754 246 l 965 289 q 931 153 965 211 q 838 58 897 96 q 699 2 779 21 q 529 -17 619 -17 m 228 1006 l 397 1006 l 574 849 l 481 849 l 657 1006 l 831 1006 l 610 808 l 447 808 l 228 1006 z "},"ç":{"ha":1032,"x_min":67,"x_max":965,"o":"m 529 -17 q 281 26 385 -17 q 122 153 178 68 q 67 367 67 239 q 122 579 67 494 q 281 706 178 664 q 529 749 385 749 q 699 730 619 749 q 839 673 779 711 q 932 578 899 635 q 965 444 965 521 l 746 444 q 717 524 746 492 q 638 573 688 556 q 529 590 589 590 q 400 565 453 590 q 319 494 347 540 q 292 381 292 447 l 292 353 q 320 240 292 288 q 403 167 349 193 q 538 142 458 142 q 645 160 596 142 q 724 213 694 179 q 754 289 754 246 l 965 289 q 931 153 965 211 q 838 58 897 96 q 699 2 779 21 q 529 -17 619 -17 m 538 -275 q 435 -271 488 -275 q 346 -258 382 -267 l 346 -189 l 532 -189 q 575 -183 558 -189 q 592 -154 592 -176 q 579 -128 592 -135 q 535 -121 567 -121 l 443 -121 l 476 42 l 594 42 l 576 -46 q 651 -58 617 -47 q 706 -93 685 -69 q 728 -160 728 -117 q 710 -218 728 -194 q 663 -253 692 -242 q 601 -270 635 -265 q 538 -275 568 -275 z "},"ĉ":{"ha":1032,"x_min":67,"x_max":965,"o":"m 529 -17 q 281 26 385 -17 q 122 153 178 68 q 67 367 67 239 q 122 579 67 494 q 281 706 178 664 q 529 749 385 749 q 699 730 619 749 q 839 673 779 711 q 932 578 899 635 q 965 444 965 521 l 746 444 q 717 524 746 492 q 638 573 688 556 q 529 590 589 590 q 400 565 453 590 q 319 494 347 540 q 292 381 292 447 l 292 353 q 320 240 292 288 q 403 167 349 193 q 538 142 458 142 q 645 160 596 142 q 724 213 694 179 q 754 289 754 246 l 965 289 q 931 153 965 211 q 838 58 897 96 q 699 2 779 21 q 529 -17 619 -17 m 228 808 l 447 1006 l 610 1006 l 831 808 l 657 808 l 481 965 l 574 965 l 397 808 l 228 808 z "},"ċ":{"ha":1032,"x_min":67,"x_max":965,"o":"m 529 -17 q 281 26 385 -17 q 122 153 178 68 q 67 367 67 239 q 122 579 67 494 q 281 706 178 664 q 529 749 385 749 q 699 730 619 749 q 839 673 779 711 q 932 578 899 635 q 965 444 965 521 l 746 444 q 717 524 746 492 q 638 573 688 556 q 529 590 589 590 q 400 565 453 590 q 319 494 347 540 q 292 381 292 447 l 292 353 q 320 240 292 288 q 403 167 349 193 q 538 142 458 142 q 645 160 596 142 q 724 213 694 179 q 754 289 754 246 l 965 289 q 931 153 965 211 q 838 58 897 96 q 699 2 779 21 q 529 -17 619 -17 m 429 831 l 429 1000 l 629 1000 l 629 831 l 429 831 z "},"d":{"ha":1032,"x_min":65,"x_max":938,"o":"m 444 -17 q 246 25 331 -17 q 113 152 161 67 q 65 365 65 238 q 113 581 65 496 q 243 707 160 665 q 435 749 326 749 q 540 737 489 749 q 635 701 592 725 q 710 642 679 678 l 719 642 l 719 1006 l 938 1006 l 938 0 l 761 0 l 743 115 l 732 115 q 605 13 679 43 q 444 -17 531 -17 m 503 157 q 621 181 572 157 q 695 251 669 206 q 721 360 721 297 l 721 371 q 706 457 721 419 q 663 521 692 494 q 594 562 635 547 q 501 576 553 576 q 385 552 433 576 q 313 483 338 528 q 288 376 288 439 l 288 356 q 313 249 288 293 q 387 181 339 204 q 503 157 435 157 z "},"ð":{"ha":1056,"x_min":65,"x_max":990,"o":"m 528 -17 q 281 26 385 -17 q 121 153 176 69 q 65 357 65 238 q 119 551 65 469 q 272 678 174 633 q 503 722 369 722 q 575 717 540 722 q 640 701 610 711 l 646 710 q 587 769 618 740 q 524 824 556 799 l 264 796 l 264 893 l 422 910 q 360 956 392 935 q 296 997 328 978 l 296 1006 l 540 1006 q 577 984 560 996 q 613 960 594 972 q 647 936 631 949 l 876 960 l 876 864 l 749 850 q 875 714 821 788 q 960 557 929 640 q 990 379 990 474 q 936 159 990 247 q 778 27 882 71 q 528 -17 675 -17 m 528 142 q 657 167 604 142 q 738 239 710 192 q 765 351 765 286 l 765 379 q 738 492 765 446 q 657 565 710 539 q 528 590 604 590 q 399 565 451 590 q 318 492 346 539 q 290 379 290 446 l 290 351 q 318 239 290 286 q 399 167 346 192 q 528 142 451 142 z "},"ď":{"ha":1032,"x_min":65,"x_max":1200,"o":"m 444 -17 q 246 25 331 -17 q 113 152 161 67 q 65 365 65 238 q 113 581 65 496 q 243 707 160 665 q 435 749 326 749 q 540 737 489 749 q 635 701 592 725 q 710 642 679 678 l 719 642 l 719 1006 l 938 1006 l 938 0 l 761 0 l 743 115 l 732 115 q 605 13 679 43 q 444 -17 531 -17 m 503 157 q 621 181 572 157 q 695 251 669 206 q 721 360 721 297 l 721 371 q 706 457 721 419 q 663 521 692 494 q 594 562 635 547 q 501 576 553 576 q 385 552 433 576 q 313 483 338 528 q 288 376 288 439 l 288 356 q 313 249 288 293 q 387 181 339 204 q 503 157 435 157 m 1007 771 l 1007 1006 l 1200 1006 l 1153 771 l 1007 771 z "},"đ":{"ha":1032,"x_min":65,"x_max":1033,"o":"m 444 -17 q 246 25 331 -17 q 113 152 161 67 q 65 365 65 238 q 113 581 65 496 q 243 707 160 665 q 435 749 326 749 q 540 737 489 749 q 635 701 592 725 q 710 642 679 678 l 719 642 l 719 1006 l 938 1006 l 938 0 l 761 0 l 743 115 l 732 115 q 605 13 679 43 q 444 -17 531 -17 m 503 157 q 621 181 572 157 q 695 251 669 206 q 721 360 721 297 l 721 371 q 706 457 721 419 q 663 521 692 494 q 594 562 635 547 q 501 576 553 576 q 385 552 433 576 q 313 483 338 528 q 288 376 288 439 l 288 356 q 313 249 288 293 q 387 181 339 204 q 503 157 435 157 m 367 800 l 367 921 l 1033 921 l 1033 800 l 367 800 z "},"ǆ":{"ha":1925,"x_min":65,"x_max":1883,"o":"m 444 -17 q 246 25 331 -17 q 113 152 161 67 q 65 365 65 238 q 113 581 65 496 q 243 707 160 665 q 435 749 326 749 q 540 737 489 749 q 635 701 592 725 q 710 642 679 678 l 719 642 l 719 1006 l 938 1006 l 938 0 l 761 0 l 743 115 l 732 115 q 605 13 679 43 q 444 -17 531 -17 m 503 157 q 621 181 572 157 q 695 251 669 206 q 721 360 721 297 l 721 371 q 706 457 721 419 q 663 521 692 494 q 594 562 635 547 q 501 576 553 576 q 385 552 433 576 q 313 483 338 528 q 288 376 288 439 l 288 356 q 313 249 288 293 q 387 181 339 204 q 503 157 435 157 m 1074 0 l 1074 83 l 1519 574 l 1103 574 l 1103 732 l 1867 732 l 1867 653 l 1417 158 l 1883 158 l 1883 0 l 1074 0 m 1185 1006 l 1354 1006 l 1531 849 l 1438 849 l 1614 1006 l 1788 1006 l 1567 808 l 1404 808 l 1185 1006 z "},"e":{"ha":1054,"x_min":65,"x_max":989,"o":"m 538 -17 q 286 24 392 -17 q 123 150 181 65 q 65 365 65 235 q 122 578 65 493 q 283 706 178 664 q 529 749 388 749 q 781 707 678 749 q 936 583 883 665 q 989 381 989 501 l 989 317 l 293 317 q 328 213 297 253 q 413 156 358 174 q 542 138 468 138 q 612 145 575 138 q 681 167 649 153 q 736 202 714 181 q 761 254 758 224 l 983 254 q 953 146 983 196 q 864 60 922 96 q 723 3 806 24 q 538 -17 640 -17 m 294 449 l 757 449 q 740 512 757 485 q 692 558 724 539 q 621 585 661 576 q 533 594 581 594 q 413 577 465 594 q 331 527 361 560 q 294 449 301 494 z "},"é":{"ha":1054,"x_min":65,"x_max":989,"o":"m 538 -17 q 286 24 392 -17 q 123 150 181 65 q 65 365 65 235 q 122 578 65 493 q 283 706 178 664 q 529 749 388 749 q 781 707 678 749 q 936 583 883 665 q 989 381 989 501 l 989 317 l 293 317 q 328 213 297 253 q 413 156 358 174 q 542 138 468 138 q 612 145 575 138 q 681 167 649 153 q 736 202 714 181 q 761 254 758 224 l 983 254 q 953 146 983 196 q 864 60 922 96 q 723 3 806 24 q 538 -17 640 -17 m 294 449 l 757 449 q 740 512 757 485 q 692 558 724 539 q 621 585 661 576 q 533 594 581 594 q 413 577 465 594 q 331 527 361 560 q 294 449 301 494 m 371 821 l 532 1006 l 778 1006 l 778 999 l 551 821 l 371 821 z "},"ĕ":{"ha":1054,"x_min":65,"x_max":989,"o":"m 538 -17 q 286 24 392 -17 q 123 150 181 65 q 65 365 65 235 q 122 578 65 493 q 283 706 178 664 q 529 749 388 749 q 781 707 678 749 q 936 583 883 665 q 989 381 989 501 l 989 317 l 293 317 q 328 213 297 253 q 413 156 358 174 q 542 138 468 138 q 612 145 575 138 q 681 167 649 153 q 736 202 714 181 q 761 254 758 224 l 983 254 q 953 146 983 196 q 864 60 922 96 q 723 3 806 24 q 538 -17 640 -17 m 294 449 l 757 449 q 740 512 757 485 q 692 558 724 539 q 621 585 661 576 q 533 594 581 594 q 413 577 465 594 q 331 527 361 560 q 294 449 301 494 m 526 819 q 366 848 429 819 q 272 919 303 876 q 242 1006 242 963 l 367 1006 q 392 971 371 988 q 447 944 413 954 q 526 933 481 933 q 613 945 579 933 q 666 974 647 957 q 688 1006 685 992 l 813 1006 q 781 919 813 963 q 686 848 750 876 q 526 819 622 819 z "},"ě":{"ha":1054,"x_min":65,"x_max":989,"o":"m 538 -17 q 286 24 392 -17 q 123 150 181 65 q 65 365 65 235 q 122 578 65 493 q 283 706 178 664 q 529 749 388 749 q 781 707 678 749 q 936 583 883 665 q 989 381 989 501 l 989 317 l 293 317 q 328 213 297 253 q 413 156 358 174 q 542 138 468 138 q 612 145 575 138 q 681 167 649 153 q 736 202 714 181 q 761 254 758 224 l 983 254 q 953 146 983 196 q 864 60 922 96 q 723 3 806 24 q 538 -17 640 -17 m 294 449 l 757 449 q 740 512 757 485 q 692 558 724 539 q 621 585 661 576 q 533 594 581 594 q 413 577 465 594 q 331 527 361 560 q 294 449 301 494 m 225 1006 l 394 1006 l 571 849 l 478 849 l 656 1006 l 829 1006 l 607 808 l 446 808 l 225 1006 z "},"ê":{"ha":1054,"x_min":65,"x_max":989,"o":"m 538 -17 q 286 24 392 -17 q 123 150 181 65 q 65 365 65 235 q 122 578 65 493 q 283 706 178 664 q 529 749 388 749 q 781 707 678 749 q 936 583 883 665 q 989 381 989 501 l 989 317 l 293 317 q 328 213 297 253 q 413 156 358 174 q 542 138 468 138 q 612 145 575 138 q 681 167 649 153 q 736 202 714 181 q 761 254 758 224 l 983 254 q 953 146 983 196 q 864 60 922 96 q 723 3 806 24 q 538 -17 640 -17 m 294 449 l 757 449 q 740 512 757 485 q 692 558 724 539 q 621 585 661 576 q 533 594 581 594 q 413 577 465 594 q 331 527 361 560 q 294 449 301 494 m 225 808 l 446 1006 l 607 1006 l 829 808 l 656 808 l 478 965 l 571 965 l 394 808 l 225 808 z "},"ế":{"ha":1054,"x_min":65,"x_max":989,"o":"m 538 -17 q 286 24 392 -17 q 123 150 181 65 q 65 365 65 235 q 122 578 65 493 q 283 706 178 664 q 529 749 388 749 q 781 707 678 749 q 936 583 883 665 q 989 381 989 501 l 989 317 l 293 317 q 328 213 297 253 q 413 156 358 174 q 542 138 468 138 q 612 145 575 138 q 681 167 649 153 q 736 202 714 181 q 761 254 758 224 l 983 254 q 953 146 983 196 q 864 60 922 96 q 723 3 806 24 q 538 -17 640 -17 m 294 449 l 757 449 q 740 512 757 485 q 692 558 724 539 q 621 585 661 576 q 533 594 581 594 q 413 577 465 594 q 331 527 361 560 q 294 449 301 494 m 225 808 l 446 1006 l 607 1006 l 829 808 l 656 808 l 478 965 l 571 965 l 394 808 l 225 808 m 371 1075 l 532 1260 l 778 1260 l 778 1253 l 551 1075 l 371 1075 z "},"ệ":{"ha":1054,"x_min":65,"x_max":989,"o":"m 538 -17 q 286 24 392 -17 q 123 150 181 65 q 65 365 65 235 q 122 578 65 493 q 283 706 178 664 q 529 749 388 749 q 781 707 678 749 q 936 583 883 665 q 989 381 989 501 l 989 317 l 293 317 q 328 213 297 253 q 413 156 358 174 q 542 138 468 138 q 612 145 575 138 q 681 167 649 153 q 736 202 714 181 q 761 254 758 224 l 983 254 q 953 146 983 196 q 864 60 922 96 q 723 3 806 24 q 538 -17 640 -17 m 294 449 l 757 449 q 740 512 757 485 q 692 558 724 539 q 621 585 661 576 q 533 594 581 594 q 413 577 465 594 q 331 527 361 560 q 294 449 301 494 m 428 -275 l 428 -106 l 626 -106 l 626 -275 l 428 -275 m 225 808 l 446 1006 l 607 1006 l 829 808 l 656 808 l 478 965 l 571 965 l 394 808 l 225 808 z "},"ề":{"ha":1054,"x_min":65,"x_max":989,"o":"m 538 -17 q 286 24 392 -17 q 123 150 181 65 q 65 365 65 235 q 122 578 65 493 q 283 706 178 664 q 529 749 388 749 q 781 707 678 749 q 936 583 883 665 q 989 381 989 501 l 989 317 l 293 317 q 328 213 297 253 q 413 156 358 174 q 542 138 468 138 q 612 145 575 138 q 681 167 649 153 q 736 202 714 181 q 761 254 758 224 l 983 254 q 953 146 983 196 q 864 60 922 96 q 723 3 806 24 q 538 -17 640 -17 m 294 449 l 757 449 q 740 512 757 485 q 692 558 724 539 q 621 585 661 576 q 533 594 581 594 q 413 577 465 594 q 331 527 361 560 q 294 449 301 494 m 225 808 l 446 1006 l 607 1006 l 829 808 l 656 808 l 478 965 l 571 965 l 394 808 l 225 808 m 686 1075 l 506 1075 l 279 1253 l 279 1260 l 525 1260 l 686 1075 z "},"ể":{"ha":1054,"x_min":65,"x_max":989,"o":"m 538 -17 q 286 24 392 -17 q 123 150 181 65 q 65 365 65 235 q 122 578 65 493 q 283 706 178 664 q 529 749 388 749 q 781 707 678 749 q 936 583 883 665 q 989 381 989 501 l 989 317 l 293 317 q 328 213 297 253 q 413 156 358 174 q 542 138 468 138 q 612 145 575 138 q 681 167 649 153 q 736 202 714 181 q 761 254 758 224 l 983 254 q 953 146 983 196 q 864 60 922 96 q 723 3 806 24 q 538 -17 640 -17 m 294 449 l 757 449 q 740 512 757 485 q 692 558 724 539 q 621 585 661 576 q 533 594 581 594 q 413 577 465 594 q 331 527 361 560 q 294 449 301 494 m 225 808 l 446 1006 l 607 1006 l 829 808 l 656 808 l 478 965 l 571 965 l 394 808 l 225 808 m 469 1075 l 469 1154 l 478 1154 q 529 1158 518 1154 q 540 1175 540 1163 q 526 1196 540 1192 q 482 1200 511 1200 l 374 1200 l 374 1268 q 421 1275 392 1272 q 479 1279 450 1278 q 525 1281 508 1281 q 585 1276 553 1281 q 647 1262 618 1272 q 695 1233 676 1251 q 714 1188 714 1215 q 695 1145 714 1163 q 647 1120 676 1128 q 583 1111 618 1113 l 583 1075 l 469 1075 z "},"ễ":{"ha":1054,"x_min":65,"x_max":989,"o":"m 538 -17 q 286 24 392 -17 q 123 150 181 65 q 65 365 65 235 q 122 578 65 493 q 283 706 178 664 q 529 749 388 749 q 781 707 678 749 q 936 583 883 665 q 989 381 989 501 l 989 317 l 293 317 q 328 213 297 253 q 413 156 358 174 q 542 138 468 138 q 612 145 575 138 q 681 167 649 153 q 736 202 714 181 q 761 254 758 224 l 983 254 q 953 146 983 196 q 864 60 922 96 q 723 3 806 24 q 538 -17 640 -17 m 294 449 l 757 449 q 740 512 757 485 q 692 558 724 539 q 621 585 661 576 q 533 594 581 594 q 413 577 465 594 q 331 527 361 560 q 294 449 301 494 m 225 808 l 446 1006 l 607 1006 l 829 808 l 656 808 l 478 965 l 571 965 l 394 808 l 225 808 m 196 1081 q 222 1163 199 1121 q 289 1232 244 1204 q 396 1260 333 1260 q 495 1246 447 1260 q 589 1217 543 1232 q 676 1203 635 1203 q 726 1219 708 1203 q 750 1260 744 1236 l 857 1260 q 831 1178 856 1219 q 761 1108 806 1136 q 656 1081 717 1081 q 557 1095 606 1081 q 463 1124 508 1110 q 376 1138 417 1138 q 325 1120 343 1138 q 299 1081 307 1103 l 196 1081 z "},"ȅ":{"ha":1054,"x_min":65,"x_max":989,"o":"m 538 -17 q 286 24 392 -17 q 123 150 181 65 q 65 365 65 235 q 122 578 65 493 q 283 706 178 664 q 529 749 388 749 q 781 707 678 749 q 936 583 883 665 q 989 381 989 501 l 989 317 l 293 317 q 328 213 297 253 q 413 156 358 174 q 542 138 468 138 q 612 145 575 138 q 681 167 649 153 q 736 202 714 181 q 761 254 758 224 l 983 254 q 953 146 983 196 q 864 60 922 96 q 723 3 806 24 q 538 -17 640 -17 m 294 449 l 757 449 q 740 512 757 485 q 692 558 724 539 q 621 585 661 576 q 533 594 581 594 q 413 577 465 594 q 331 527 361 560 q 294 449 301 494 m 625 822 l 436 997 l 436 1007 l 664 1007 l 778 822 l 625 822 m 294 822 l 104 997 l 104 1007 l 332 1007 l 446 822 l 294 822 z "},"ë":{"ha":1054,"x_min":65,"x_max":989,"o":"m 538 -17 q 286 24 392 -17 q 123 150 181 65 q 65 365 65 235 q 122 578 65 493 q 283 706 178 664 q 529 749 388 749 q 781 707 678 749 q 936 583 883 665 q 989 381 989 501 l 989 317 l 293 317 q 328 213 297 253 q 413 156 358 174 q 542 138 468 138 q 612 145 575 138 q 681 167 649 153 q 736 202 714 181 q 761 254 758 224 l 983 254 q 953 146 983 196 q 864 60 922 96 q 723 3 806 24 q 538 -17 640 -17 m 294 449 l 757 449 q 740 512 757 485 q 692 558 724 539 q 621 585 661 576 q 533 594 581 594 q 413 577 465 594 q 331 527 361 560 q 294 449 301 494 m 247 831 l 247 1003 l 447 1003 l 447 831 l 247 831 m 606 831 l 606 1003 l 806 1003 l 806 831 l 606 831 z "},"ė":{"ha":1054,"x_min":65,"x_max":989,"o":"m 538 -17 q 286 24 392 -17 q 123 150 181 65 q 65 365 65 235 q 122 578 65 493 q 283 706 178 664 q 529 749 388 749 q 781 707 678 749 q 936 583 883 665 q 989 381 989 501 l 989 317 l 293 317 q 328 213 297 253 q 413 156 358 174 q 542 138 468 138 q 612 145 575 138 q 681 167 649 153 q 736 202 714 181 q 761 254 758 224 l 983 254 q 953 146 983 196 q 864 60 922 96 q 723 3 806 24 q 538 -17 640 -17 m 294 449 l 757 449 q 740 512 757 485 q 692 558 724 539 q 621 585 661 576 q 533 594 581 594 q 413 577 465 594 q 331 527 361 560 q 294 449 301 494 m 428 831 l 428 1000 l 626 1000 l 626 831 l 428 831 z "},"ẹ":{"ha":1054,"x_min":65,"x_max":989,"o":"m 538 -17 q 286 24 392 -17 q 123 150 181 65 q 65 365 65 235 q 122 578 65 493 q 283 706 178 664 q 529 749 388 749 q 781 707 678 749 q 936 583 883 665 q 989 381 989 501 l 989 317 l 293 317 q 328 213 297 253 q 413 156 358 174 q 542 138 468 138 q 612 145 575 138 q 681 167 649 153 q 736 202 714 181 q 761 254 758 224 l 983 254 q 953 146 983 196 q 864 60 922 96 q 723 3 806 24 q 538 -17 640 -17 m 294 449 l 757 449 q 740 512 757 485 q 692 558 724 539 q 621 585 661 576 q 533 594 581 594 q 413 577 465 594 q 331 527 361 560 q 294 449 301 494 m 428 -275 l 428 -106 l 626 -106 l 626 -275 l 428 -275 z "},"è":{"ha":1054,"x_min":65,"x_max":989,"o":"m 538 -17 q 286 24 392 -17 q 123 150 181 65 q 65 365 65 235 q 122 578 65 493 q 283 706 178 664 q 529 749 388 749 q 781 707 678 749 q 936 583 883 665 q 989 381 989 501 l 989 317 l 293 317 q 328 213 297 253 q 413 156 358 174 q 542 138 468 138 q 612 145 575 138 q 681 167 649 153 q 736 202 714 181 q 761 254 758 224 l 983 254 q 953 146 983 196 q 864 60 922 96 q 723 3 806 24 q 538 -17 640 -17 m 294 449 l 757 449 q 740 512 757 485 q 692 558 724 539 q 621 585 661 576 q 533 594 581 594 q 413 577 465 594 q 331 527 361 560 q 294 449 301 494 m 686 821 l 506 821 l 279 999 l 279 1006 l 525 1006 l 686 821 z "},"ẻ":{"ha":1054,"x_min":65,"x_max":989,"o":"m 538 -17 q 286 24 392 -17 q 123 150 181 65 q 65 365 65 235 q 122 578 65 493 q 283 706 178 664 q 529 749 388 749 q 781 707 678 749 q 936 583 883 665 q 989 381 989 501 l 989 317 l 293 317 q 328 213 297 253 q 413 156 358 174 q 542 138 468 138 q 612 145 575 138 q 681 167 649 153 q 736 202 714 181 q 761 254 758 224 l 983 254 q 953 146 983 196 q 864 60 922 96 q 723 3 806 24 q 538 -17 640 -17 m 294 449 l 757 449 q 740 512 757 485 q 692 558 724 539 q 621 585 661 576 q 533 594 581 594 q 413 577 465 594 q 331 527 361 560 q 294 449 301 494 m 469 821 l 469 901 l 478 901 q 529 906 518 901 q 540 921 540 910 q 526 942 540 939 q 482 946 511 946 l 374 946 l 374 1014 q 421 1021 392 1018 q 479 1025 450 1024 q 525 1026 508 1026 q 585 1022 553 1026 q 647 1008 618 1018 q 695 980 676 997 q 714 933 714 963 q 695 892 714 908 q 647 867 676 875 q 583 857 618 858 l 583 821 l 469 821 z "},"ȇ":{"ha":1054,"x_min":65,"x_max":989,"o":"m 538 -17 q 286 24 392 -17 q 123 150 181 65 q 65 365 65 235 q 122 578 65 493 q 283 706 178 664 q 529 749 388 749 q 781 707 678 749 q 936 583 883 665 q 989 381 989 501 l 989 317 l 293 317 q 328 213 297 253 q 413 156 358 174 q 542 138 468 138 q 612 145 575 138 q 681 167 649 153 q 736 202 714 181 q 761 254 758 224 l 983 254 q 953 146 983 196 q 864 60 922 96 q 723 3 806 24 q 538 -17 640 -17 m 294 449 l 757 449 q 740 512 757 485 q 692 558 724 539 q 621 585 661 576 q 533 594 581 594 q 413 577 465 594 q 331 527 361 560 q 294 449 301 494 m 526 1004 q 687 976 624 1004 q 781 904 750 947 q 813 818 813 861 l 688 818 q 666 850 685 833 q 613 878 647 867 q 526 890 579 890 q 447 880 482 890 q 392 853 413 869 q 367 818 372 836 l 242 818 q 272 904 242 861 q 367 976 303 947 q 526 1004 431 1004 z "},"ē":{"ha":1054,"x_min":65,"x_max":989,"o":"m 538 -17 q 286 24 392 -17 q 123 150 181 65 q 65 365 65 235 q 122 578 65 493 q 283 706 178 664 q 529 749 388 749 q 781 707 678 749 q 936 583 883 665 q 989 381 989 501 l 989 317 l 293 317 q 328 213 297 253 q 413 156 358 174 q 542 138 468 138 q 612 145 575 138 q 681 167 649 153 q 736 202 714 181 q 761 254 758 224 l 983 254 q 953 146 983 196 q 864 60 922 96 q 723 3 806 24 q 538 -17 640 -17 m 294 449 l 757 449 q 740 512 757 485 q 692 558 724 539 q 621 585 661 576 q 533 594 581 594 q 413 577 465 594 q 331 527 361 560 q 294 449 301 494 m 258 858 l 258 972 l 794 972 l 794 858 l 258 858 z "},"ę":{"ha":1054,"x_min":65,"x_max":989,"o":"m 538 -17 q 286 24 392 -17 q 123 150 181 65 q 65 365 65 235 q 122 578 65 493 q 283 706 178 664 q 529 749 388 749 q 781 707 678 749 q 936 583 883 665 q 989 381 989 501 l 989 317 l 293 317 q 328 213 297 253 q 413 156 358 174 q 542 138 468 138 q 612 145 575 138 q 681 167 649 153 q 736 202 714 181 q 761 254 758 224 l 983 254 q 953 146 983 196 q 864 60 922 96 q 723 3 806 24 q 538 -17 640 -17 m 294 449 l 757 449 q 740 512 757 485 q 692 558 724 539 q 621 585 661 576 q 533 594 581 594 q 413 577 465 594 q 331 527 361 560 q 294 449 301 494 m 722 -275 q 637 -261 678 -275 q 569 -215 596 -247 q 543 -131 543 -183 q 567 -45 543 -81 q 619 17 590 -10 l 750 17 l 750 11 q 706 -33 725 -6 q 688 -90 688 -60 q 709 -144 688 -119 q 774 -168 731 -168 l 874 -168 l 874 -256 q 799 -270 842 -265 q 722 -275 757 -275 z "},"ẽ":{"ha":1054,"x_min":65,"x_max":989,"o":"m 538 -17 q 286 24 392 -17 q 123 150 181 65 q 65 365 65 235 q 122 578 65 493 q 283 706 178 664 q 529 749 388 749 q 781 707 678 749 q 936 583 883 665 q 989 381 989 501 l 989 317 l 293 317 q 328 213 297 253 q 413 156 358 174 q 542 138 468 138 q 612 145 575 138 q 681 167 649 153 q 736 202 714 181 q 761 254 758 224 l 983 254 q 953 146 983 196 q 864 60 922 96 q 723 3 806 24 q 538 -17 640 -17 m 294 449 l 757 449 q 740 512 757 485 q 692 558 724 539 q 621 585 661 576 q 533 594 581 594 q 413 577 465 594 q 331 527 361 560 q 294 449 301 494 m 196 828 q 222 908 199 867 q 289 978 244 950 q 396 1006 333 1006 q 495 992 447 1006 q 589 963 543 978 q 676 949 635 949 q 726 966 708 949 q 750 1006 744 983 l 857 1006 q 831 924 856 965 q 761 854 806 882 q 656 826 717 826 q 557 841 606 826 q 463 869 508 856 q 376 883 417 883 q 325 866 343 883 q 299 828 307 849 l 196 828 z "},"ə":{"ha":1054,"x_min":65,"x_max":989,"o":"m 525 -17 q 274 25 376 -17 q 119 149 172 67 q 65 351 65 232 l 65 415 l 760 415 q 726 519 757 481 q 640 576 694 558 q 511 594 586 594 q 441 587 478 594 q 372 565 404 579 q 317 530 339 551 q 292 478 296 508 l 69 478 q 101 587 69 538 q 190 672 132 636 q 331 728 249 708 q 517 749 414 749 q 767 708 661 749 q 931 582 874 667 q 989 367 989 497 q 932 153 989 239 q 772 26 875 68 q 525 -17 668 -17 m 519 138 q 641 156 589 138 q 724 206 693 174 q 760 285 754 239 l 296 285 q 313 220 296 247 q 361 175 331 193 q 433 147 392 157 q 519 138 474 138 z "},"f":{"ha":625,"x_min":18,"x_max":603,"o":"m 169 0 l 169 574 l 18 574 l 18 732 l 169 732 l 169 786 q 199 916 169 864 q 286 994 229 968 q 425 1021 343 1021 q 485 1018 453 1021 q 548 1010 518 1015 q 603 997 578 1006 l 603 863 l 508 863 q 415 845 442 863 q 388 785 388 828 l 388 732 l 603 732 l 603 574 l 388 574 l 388 0 l 169 0 z "},"g":{"ha":1033,"x_min":18,"x_max":1039,"o":"m 246 -279 q 134 -261 186 -279 q 50 -204 82 -243 q 18 -101 18 -165 q 57 -6 18 -47 q 157 57 96 36 q 92 115 113 79 q 72 193 72 151 q 112 294 72 251 q 219 346 151 336 q 130 420 164 375 q 96 517 96 465 q 146 654 96 603 q 290 727 196 706 q 518 749 385 749 q 611 744 567 749 q 696 732 656 740 q 798 798 764 763 q 838 863 832 833 l 1039 863 q 1015 772 1038 810 q 951 710 993 735 q 851 672 910 685 q 916 605 893 644 q 939 515 939 565 q 895 385 939 436 q 769 309 851 333 q 568 285 686 285 l 379 285 q 315 271 338 285 q 293 232 293 257 q 315 192 293 207 q 385 176 336 176 l 807 176 q 974 115 917 176 q 1031 -43 1031 53 q 993 -167 1031 -114 q 894 -249 956 -219 q 757 -279 832 -279 l 246 -279 m 317 -140 l 732 -140 q 772 -131 754 -140 q 801 -104 790 -122 q 813 -64 813 -86 q 788 -10 813 -29 q 732 10 764 10 l 322 10 q 262 -9 286 10 q 238 -62 238 -28 q 260 -119 238 -97 q 317 -140 283 -140 m 518 421 q 667 442 613 421 q 721 517 721 463 q 667 592 721 571 q 518 613 613 613 q 369 592 424 613 q 315 517 315 571 q 340 457 315 478 q 410 428 364 436 q 518 421 456 421 z "},"ğ":{"ha":1033,"x_min":18,"x_max":1039,"o":"m 246 -279 q 134 -261 186 -279 q 50 -204 82 -243 q 18 -101 18 -165 q 57 -6 18 -47 q 157 57 96 36 q 92 115 113 79 q 72 193 72 151 q 112 294 72 251 q 219 346 151 336 q 130 420 164 375 q 96 517 96 465 q 146 654 96 603 q 290 727 196 706 q 518 749 385 749 q 611 744 567 749 q 696 732 656 740 q 798 798 764 763 q 838 863 832 833 l 1039 863 q 1015 772 1038 810 q 951 710 993 735 q 851 672 910 685 q 916 605 893 644 q 939 515 939 565 q 895 385 939 436 q 769 309 851 333 q 568 285 686 285 l 379 285 q 315 271 338 285 q 293 232 293 257 q 315 192 293 207 q 385 176 336 176 l 807 176 q 974 115 917 176 q 1031 -43 1031 53 q 993 -167 1031 -114 q 894 -249 956 -219 q 757 -279 832 -279 l 246 -279 m 317 -140 l 732 -140 q 772 -131 754 -140 q 801 -104 790 -122 q 813 -64 813 -86 q 788 -10 813 -29 q 732 10 764 10 l 322 10 q 262 -9 286 10 q 238 -62 238 -28 q 260 -119 238 -97 q 317 -140 283 -140 m 518 421 q 667 442 613 421 q 721 517 721 463 q 667 592 721 571 q 518 613 613 613 q 369 592 424 613 q 315 517 315 571 q 340 457 315 478 q 410 428 364 436 q 518 421 456 421 m 515 819 q 355 848 418 819 q 261 919 292 876 q 231 1006 231 963 l 356 1006 q 381 971 360 988 q 435 944 401 954 q 515 933 469 933 q 602 945 568 933 q 654 974 636 957 q 675 1006 672 992 l 801 1006 q 769 919 801 963 q 674 848 738 876 q 515 819 611 819 z "},"ǧ":{"ha":1033,"x_min":18,"x_max":1039,"o":"m 246 -279 q 134 -261 186 -279 q 50 -204 82 -243 q 18 -101 18 -165 q 57 -6 18 -47 q 157 57 96 36 q 92 115 113 79 q 72 193 72 151 q 112 294 72 251 q 219 346 151 336 q 130 420 164 375 q 96 517 96 465 q 146 654 96 603 q 290 727 196 706 q 518 749 385 749 q 611 744 567 749 q 696 732 656 740 q 798 798 764 763 q 838 863 832 833 l 1039 863 q 1015 772 1038 810 q 951 710 993 735 q 851 672 910 685 q 916 605 893 644 q 939 515 939 565 q 895 385 939 436 q 769 309 851 333 q 568 285 686 285 l 379 285 q 315 271 338 285 q 293 232 293 257 q 315 192 293 207 q 385 176 336 176 l 807 176 q 974 115 917 176 q 1031 -43 1031 53 q 993 -167 1031 -114 q 894 -249 956 -219 q 757 -279 832 -279 l 246 -279 m 317 -140 l 732 -140 q 772 -131 754 -140 q 801 -104 790 -122 q 813 -64 813 -86 q 788 -10 813 -29 q 732 10 764 10 l 322 10 q 262 -9 286 10 q 238 -62 238 -28 q 260 -119 238 -97 q 317 -140 283 -140 m 518 421 q 667 442 613 421 q 721 517 721 463 q 667 592 721 571 q 518 613 613 613 q 369 592 424 613 q 315 517 315 571 q 340 457 315 478 q 410 428 364 436 q 518 421 456 421 m 214 1006 l 383 1006 l 560 849 l 467 849 l 644 1006 l 818 1006 l 596 808 l 433 808 l 214 1006 z "},"ĝ":{"ha":1033,"x_min":18,"x_max":1039,"o":"m 246 -279 q 134 -261 186 -279 q 50 -204 82 -243 q 18 -101 18 -165 q 57 -6 18 -47 q 157 57 96 36 q 92 115 113 79 q 72 193 72 151 q 112 294 72 251 q 219 346 151 336 q 130 420 164 375 q 96 517 96 465 q 146 654 96 603 q 290 727 196 706 q 518 749 385 749 q 611 744 567 749 q 696 732 656 740 q 798 798 764 763 q 838 863 832 833 l 1039 863 q 1015 772 1038 810 q 951 710 993 735 q 851 672 910 685 q 916 605 893 644 q 939 515 939 565 q 895 385 939 436 q 769 309 851 333 q 568 285 686 285 l 379 285 q 315 271 338 285 q 293 232 293 257 q 315 192 293 207 q 385 176 336 176 l 807 176 q 974 115 917 176 q 1031 -43 1031 53 q 993 -167 1031 -114 q 894 -249 956 -219 q 757 -279 832 -279 l 246 -279 m 317 -140 l 732 -140 q 772 -131 754 -140 q 801 -104 790 -122 q 813 -64 813 -86 q 788 -10 813 -29 q 732 10 764 10 l 322 10 q 262 -9 286 10 q 238 -62 238 -28 q 260 -119 238 -97 q 317 -140 283 -140 m 518 421 q 667 442 613 421 q 721 517 721 463 q 667 592 721 571 q 518 613 613 613 q 369 592 424 613 q 315 517 315 571 q 340 457 315 478 q 410 428 364 436 q 518 421 456 421 m 214 808 l 433 1006 l 596 1006 l 818 808 l 644 808 l 467 965 l 560 965 l 383 808 l 214 808 z "},"ģ":{"ha":1033,"x_min":18,"x_max":1039,"o":"m 246 -279 q 134 -261 186 -279 q 50 -204 82 -243 q 18 -101 18 -165 q 57 -6 18 -47 q 157 57 96 36 q 92 115 113 79 q 72 193 72 151 q 112 294 72 251 q 219 346 151 336 q 130 420 164 375 q 96 517 96 465 q 146 654 96 603 q 290 727 196 706 q 518 749 385 749 q 611 744 567 749 q 696 732 656 740 q 798 798 764 763 q 838 863 832 833 l 1039 863 q 1015 772 1038 810 q 951 710 993 735 q 851 672 910 685 q 916 605 893 644 q 939 515 939 565 q 895 385 939 436 q 769 309 851 333 q 568 285 686 285 l 379 285 q 315 271 338 285 q 293 232 293 257 q 315 192 293 207 q 385 176 336 176 l 807 176 q 974 115 917 176 q 1031 -43 1031 53 q 993 -167 1031 -114 q 894 -249 956 -219 q 757 -279 832 -279 l 246 -279 m 317 -140 l 732 -140 q 772 -131 754 -140 q 801 -104 790 -122 q 813 -64 813 -86 q 788 -10 813 -29 q 732 10 764 10 l 322 10 q 262 -9 286 10 q 238 -62 238 -28 q 260 -119 238 -97 q 317 -140 283 -140 m 518 421 q 667 442 613 421 q 721 517 721 463 q 667 592 721 571 q 518 613 613 613 q 369 592 424 613 q 315 517 315 571 q 340 457 315 478 q 410 428 364 436 q 518 421 456 421 m 625 1229 l 625 1140 q 548 1104 575 1135 q 521 1025 521 1074 l 617 1025 l 617 835 l 407 835 l 407 1003 q 431 1120 407 1072 q 503 1195 456 1168 q 625 1229 551 1222 z "},"ġ":{"ha":1033,"x_min":18,"x_max":1039,"o":"m 246 -279 q 134 -261 186 -279 q 50 -204 82 -243 q 18 -101 18 -165 q 57 -6 18 -47 q 157 57 96 36 q 92 115 113 79 q 72 193 72 151 q 112 294 72 251 q 219 346 151 336 q 130 420 164 375 q 96 517 96 465 q 146 654 96 603 q 290 727 196 706 q 518 749 385 749 q 611 744 567 749 q 696 732 656 740 q 798 798 764 763 q 838 863 832 833 l 1039 863 q 1015 772 1038 810 q 951 710 993 735 q 851 672 910 685 q 916 605 893 644 q 939 515 939 565 q 895 385 939 436 q 769 309 851 333 q 568 285 686 285 l 379 285 q 315 271 338 285 q 293 232 293 257 q 315 192 293 207 q 385 176 336 176 l 807 176 q 974 115 917 176 q 1031 -43 1031 53 q 993 -167 1031 -114 q 894 -249 956 -219 q 757 -279 832 -279 l 246 -279 m 317 -140 l 732 -140 q 772 -131 754 -140 q 801 -104 790 -122 q 813 -64 813 -86 q 788 -10 813 -29 q 732 10 764 10 l 322 10 q 262 -9 286 10 q 238 -62 238 -28 q 260 -119 238 -97 q 317 -140 283 -140 m 518 421 q 667 442 613 421 q 721 517 721 463 q 667 592 721 571 q 518 613 613 613 q 369 592 424 613 q 315 517 315 571 q 340 457 315 478 q 410 428 364 436 q 518 421 456 421 m 417 831 l 417 1000 l 615 1000 l 615 831 l 417 831 z "},"h":{"ha":1017,"x_min":96,"x_max":925,"o":"m 96 0 l 96 1006 l 313 1006 l 313 635 l 324 635 q 409 703 361 678 q 509 738 457 728 q 611 749 561 749 q 785 716 715 749 q 890 617 856 683 q 925 449 925 550 l 925 0 l 708 0 l 708 414 q 696 488 708 457 q 661 539 683 519 q 606 567 639 558 q 533 576 574 576 q 425 552 475 576 q 344 485 375 528 q 313 386 313 443 l 313 0 l 96 0 z "},"ħ":{"ha":1017,"x_min":0,"x_max":925,"o":"m 96 0 l 96 1006 l 313 1006 l 313 635 l 324 635 q 409 703 361 678 q 509 738 457 728 q 611 749 561 749 q 785 716 715 749 q 890 617 856 683 q 925 449 925 550 l 925 0 l 708 0 l 708 414 q 696 488 708 457 q 661 539 683 519 q 606 567 639 558 q 533 576 574 576 q 425 552 475 576 q 344 485 375 528 q 313 386 313 443 l 313 0 l 96 0 m 0 800 l 0 921 l 667 921 l 667 800 l 0 800 z "},"ĥ":{"ha":1017,"x_min":-97,"x_max":925,"o":"m 96 0 l 96 1006 l 313 1006 l 313 635 l 324 635 q 409 703 361 678 q 509 738 457 728 q 611 749 561 749 q 785 716 715 749 q 890 617 856 683 q 925 449 925 550 l 925 0 l 708 0 l 708 414 q 696 488 708 457 q 661 539 683 519 q 606 567 639 558 q 533 576 574 576 q 425 552 475 576 q 344 485 375 528 q 313 386 313 443 l 313 0 l 96 0 m -97 1024 l 124 1221 l 286 1221 l 507 1024 l 333 1024 l 157 1181 l 249 1181 l 72 1024 l -97 1024 z "},"ḥ":{"ha":1017,"x_min":96,"x_max":925,"o":"m 96 0 l 96 1006 l 313 1006 l 313 635 l 324 635 q 409 703 361 678 q 509 738 457 728 q 611 749 561 749 q 785 716 715 749 q 890 617 856 683 q 925 449 925 550 l 925 0 l 708 0 l 708 414 q 696 488 708 457 q 661 539 683 519 q 606 567 639 558 q 533 576 574 576 q 425 552 475 576 q 344 485 375 528 q 313 386 313 443 l 313 0 l 96 0 m 408 -275 l 408 -106 l 608 -106 l 608 -275 l 408 -275 z "},"i":{"ha":408,"x_min":96,"x_max":313,"o":"m 96 844 l 96 1006 l 313 1006 l 313 844 l 96 844 m 96 0 l 96 732 l 313 732 l 313 0 l 96 0 z "},"ı":{"ha":408,"x_min":96,"x_max":313,"o":"m 96 0 l 96 732 l 313 732 l 313 0 l 96 0 z "},"í":{"ha":408,"x_min":49,"x_max":456,"o":"m 96 0 l 96 732 l 313 732 l 313 0 l 96 0 m 49 821 l 208 1006 l 456 1006 l 456 999 l 228 821 l 49 821 z "},"ĭ":{"ha":408,"x_min":-82,"x_max":489,"o":"m 96 0 l 96 732 l 313 732 l 313 0 l 96 0 m 203 819 q 43 848 107 819 q -51 919 -21 876 q -82 1006 -82 963 l 43 1006 q 69 971 49 988 q 124 944 89 954 q 203 933 158 933 q 290 945 256 933 q 342 974 324 957 q 364 1006 361 992 l 489 1006 q 458 919 489 963 q 363 848 426 876 q 203 819 300 819 z "},"ǐ":{"ha":408,"x_min":-97,"x_max":506,"o":"m 96 0 l 96 732 l 313 732 l 313 0 l 96 0 m -97 1006 l 72 1006 l 249 849 l 156 849 l 332 1006 l 506 1006 l 285 808 l 122 808 l -97 1006 z "},"î":{"ha":408,"x_min":-97,"x_max":506,"o":"m 96 0 l 96 732 l 313 732 l 313 0 l 96 0 m -97 808 l 122 1006 l 285 1006 l 506 808 l 332 808 l 156 965 l 249 965 l 72 808 l -97 808 z "},"ȉ":{"ha":408,"x_min":-219,"x_max":454,"o":"m 96 0 l 96 732 l 313 732 l 313 0 l 96 0 m 303 822 l 113 997 l 113 1007 l 342 1007 l 454 822 l 303 822 m -29 822 l -219 997 l -219 1007 l 8 1007 l 122 822 l -29 822 z "},"ï":{"ha":408,"x_min":-75,"x_max":483,"o":"m 96 0 l 96 732 l 313 732 l 313 0 l 96 0 m -75 831 l -75 1003 l 124 1003 l 124 831 l -75 831 m 283 831 l 283 1003 l 483 1003 l 483 831 l 283 831 z "},"ị":{"ha":408,"x_min":96,"x_max":313,"o":"m 96 844 l 96 1006 l 313 1006 l 313 844 l 96 844 m 96 0 l 96 732 l 313 732 l 313 0 l 96 0 m 104 -275 l 104 -106 l 304 -106 l 304 -275 l 104 -275 z "},"ì":{"ha":408,"x_min":-44,"x_max":363,"o":"m 96 0 l 96 732 l 313 732 l 313 0 l 96 0 m 363 821 l 183 821 l -44 999 l -44 1006 l 203 1006 l 363 821 z "},"ỉ":{"ha":408,"x_min":51,"x_max":390,"o":"m 96 0 l 96 732 l 313 732 l 313 0 l 96 0 m 147 821 l 147 901 l 156 901 q 207 906 196 901 q 218 921 218 910 q 203 942 218 939 q 160 946 188 946 l 51 946 l 51 1014 q 99 1021 69 1018 q 156 1025 128 1024 q 203 1026 185 1026 q 262 1022 229 1026 q 324 1008 294 1018 q 372 980 353 997 q 390 933 390 963 q 372 892 390 908 q 325 867 354 875 q 261 857 296 858 l 261 821 l 147 821 z "},"ȋ":{"ha":408,"x_min":-81,"x_max":490,"o":"m 96 0 l 96 732 l 313 732 l 313 0 l 96 0 m 204 1004 q 364 976 300 1004 q 459 904 428 947 q 490 818 490 861 l 365 818 q 344 850 363 833 q 291 878 325 867 q 204 890 257 890 q 124 880 158 890 q 69 853 90 869 q 44 818 49 836 l -81 818 q -50 904 -81 861 q 44 976 -19 947 q 204 1004 107 1004 z "},"ĳ":{"ha":814,"x_min":96,"x_max":721,"o":"m 96 844 l 96 1006 l 313 1006 l 313 844 l 96 844 m 96 0 l 96 732 l 313 732 l 313 0 l 96 0 m 504 844 l 504 1006 l 721 1006 l 721 844 l 504 844 m 475 -279 q 424 -276 451 -279 q 371 -268 397 -274 q 324 -256 344 -262 l 324 -121 l 399 -121 q 476 -94 449 -121 q 504 -21 504 -68 l 504 732 l 721 732 l 721 -25 q 698 -162 721 -104 q 622 -249 675 -219 q 475 -279 568 -279 z "},"ī":{"ha":408,"x_min":-64,"x_max":471,"o":"m 96 0 l 96 732 l 313 732 l 313 0 l 96 0 m -64 858 l -64 972 l 471 972 l 471 858 l -64 858 z "},"į":{"ha":408,"x_min":19,"x_max":350,"o":"m 96 844 l 96 1006 l 313 1006 l 313 844 l 96 844 m 96 0 l 96 732 l 313 732 l 313 0 l 96 0 m 199 -275 q 113 -261 154 -275 q 46 -215 72 -247 q 19 -131 19 -183 q 43 -45 19 -81 q 97 17 67 -10 l 228 17 l 228 11 q 183 -33 203 -6 q 164 -90 164 -60 q 185 -144 164 -119 q 250 -168 207 -168 l 350 -168 l 350 -256 q 276 -270 318 -265 q 199 -275 233 -275 z "},"ĩ":{"ha":408,"x_min":-126,"x_max":533,"o":"m 96 0 l 96 732 l 313 732 l 313 0 l 96 0 m -126 828 q -101 908 -125 867 q -34 978 -78 950 q 72 1006 10 1006 q 172 992 124 1006 q 265 963 219 978 q 354 949 311 949 q 404 966 386 949 q 428 1006 422 983 l 533 1006 q 507 924 532 965 q 438 854 482 882 q 332 826 394 826 q 235 841 283 826 q 140 869 186 856 q 53 883 94 883 q 2 866 21 883 q -24 828 -17 849 l -126 828 z "},"j":{"ha":406,"x_min":-85,"x_max":313,"o":"m 96 844 l 96 1006 l 313 1006 l 313 844 l 96 844 m 67 -279 q 16 -276 43 -279 q -37 -268 -11 -274 q -85 -256 -64 -262 l -85 -121 l -10 -121 q 68 -94 40 -121 q 96 -21 96 -68 l 96 732 l 313 732 l 313 -25 q 290 -162 313 -104 q 213 -249 267 -219 q 67 -279 160 -279 z "},"ȷ":{"ha":406,"x_min":-85,"x_max":313,"o":"m 67 -279 q 16 -276 43 -279 q -37 -268 -11 -274 q -85 -256 -64 -262 l -85 -121 l -10 -121 q 69 -94 42 -121 q 96 -21 96 -68 l 96 732 l 313 732 l 313 -25 q 290 -162 313 -104 q 213 -249 267 -219 q 67 -279 160 -279 z "},"ĵ":{"ha":406,"x_min":-97,"x_max":506,"o":"m 67 -279 q 16 -276 43 -279 q -37 -268 -11 -274 q -85 -256 -64 -262 l -85 -121 l -10 -121 q 69 -94 42 -121 q 96 -21 96 -68 l 96 732 l 313 732 l 313 -25 q 290 -162 313 -104 q 213 -249 267 -219 q 67 -279 160 -279 m -97 808 l 122 1006 l 285 1006 l 506 808 l 332 808 l 156 965 l 249 965 l 72 808 l -97 808 z "},"k":{"ha":979,"x_min":96,"x_max":958,"o":"m 96 0 l 96 1006 l 313 1006 l 313 414 l 678 732 l 947 732 l 636 442 l 958 0 l 700 0 l 471 315 l 313 199 l 313 0 l 96 0 z "},"ķ":{"ha":979,"x_min":96,"x_max":958,"o":"m 96 0 l 96 1006 l 313 1006 l 313 414 l 678 732 l 947 732 l 636 442 l 958 0 l 700 0 l 471 315 l 313 199 l 313 0 l 96 0 m 372 -482 l 372 -393 q 449 -357 422 -387 q 476 -278 476 -326 l 381 -278 l 381 -89 l 589 -89 l 589 -254 q 565 -373 589 -325 q 494 -449 542 -421 q 372 -482 446 -476 z "},"ĸ":{"ha":979,"x_min":96,"x_max":958,"o":"m 96 0 l 96 732 l 313 732 l 313 414 l 678 732 l 947 732 l 636 442 l 958 0 l 700 0 l 471 315 l 313 199 l 313 0 l 96 0 z "},"l":{"ha":408,"x_min":96,"x_max":313,"o":"m 96 0 l 96 1006 l 313 1006 l 313 0 l 96 0 z "},"ĺ":{"ha":408,"x_min":65,"x_max":474,"o":"m 96 0 l 96 1006 l 313 1006 l 313 0 l 96 0 m 65 1036 l 226 1221 l 474 1221 l 474 1214 l 246 1036 l 65 1036 z "},"ľ":{"ha":408,"x_min":96,"x_max":575,"o":"m 96 0 l 96 1006 l 313 1006 l 313 0 l 96 0 m 382 771 l 382 1006 l 575 1006 l 528 771 l 382 771 z "},"ļ":{"ha":408,"x_min":92,"x_max":313,"o":"m 96 0 l 96 1006 l 313 1006 l 313 0 l 96 0 m 92 -482 l 92 -393 q 169 -357 142 -387 q 196 -278 196 -326 l 100 -278 l 100 -89 l 308 -89 l 308 -254 q 285 -373 308 -325 q 213 -449 261 -421 q 92 -482 165 -476 z "},"ŀ":{"ha":408,"x_min":96,"x_max":500,"o":"m 96 0 l 96 1006 l 313 1006 l 313 0 l 96 0 m 332 414 l 332 583 l 500 583 l 500 414 l 332 414 z "},"ǉ":{"ha":814,"x_min":96,"x_max":721,"o":"m 96 0 l 96 1006 l 313 1006 l 313 0 l 96 0 m 504 844 l 504 1006 l 721 1006 l 721 844 l 504 844 m 475 -279 q 424 -276 451 -279 q 371 -268 397 -274 q 324 -256 344 -262 l 324 -121 l 399 -121 q 476 -94 449 -121 q 504 -21 504 -68 l 504 732 l 721 732 l 721 -25 q 698 -162 721 -104 q 622 -249 675 -219 q 475 -279 568 -279 z "},"ł":{"ha":408,"x_min":-29,"x_max":436,"o":"m 96 0 l 96 1006 l 313 1006 l 313 0 l 96 0 m -29 299 l -29 417 l 436 711 l 436 590 l -29 299 z "},"m":{"ha":1586,"x_min":96,"x_max":1494,"o":"m 96 0 l 96 732 l 271 732 l 286 608 l 299 608 q 387 692 338 661 q 492 735 436 722 q 603 749 549 749 q 774 715 706 749 q 874 608 843 681 l 888 608 q 976 692 926 661 q 1083 735 1026 722 q 1194 749 1139 749 q 1360 716 1293 749 q 1461 617 1428 683 q 1494 449 1494 550 l 1494 0 l 1278 0 l 1278 414 q 1266 488 1278 457 q 1233 539 1254 519 q 1181 567 1211 558 q 1114 576 1151 576 q 1010 552 1058 576 q 933 485 963 528 q 903 386 903 443 l 903 0 l 686 0 l 686 414 q 675 488 686 457 q 642 539 664 519 q 591 567 621 558 q 522 576 561 576 q 419 552 467 576 q 342 485 371 528 q 313 386 313 443 l 313 0 l 96 0 z "},"n":{"ha":1017,"x_min":96,"x_max":925,"o":"m 96 0 l 96 732 l 271 732 l 286 608 l 299 608 q 390 692 339 661 q 498 735 440 722 q 611 749 556 749 q 785 716 715 749 q 890 617 856 683 q 925 449 925 550 l 925 0 l 708 0 l 708 414 q 696 488 708 457 q 661 539 683 519 q 606 567 639 558 q 533 576 574 576 q 425 552 475 576 q 344 485 375 528 q 313 386 313 443 l 313 0 l 96 0 z "},"ń":{"ha":1017,"x_min":96,"x_max":925,"o":"m 96 0 l 96 732 l 271 732 l 286 608 l 299 608 q 390 692 339 661 q 498 735 440 722 q 611 749 556 749 q 785 716 715 749 q 890 617 856 683 q 925 449 925 550 l 925 0 l 708 0 l 708 414 q 696 488 708 457 q 661 539 683 519 q 606 567 639 558 q 533 576 574 576 q 425 552 475 576 q 344 485 375 528 q 313 386 313 443 l 313 0 l 96 0 m 351 821 l 513 1006 l 760 1006 l 760 999 l 532 821 l 351 821 z "},"ŉ":{"ha":1017,"x_min":-8,"x_max":925,"o":"m 96 0 l 96 732 l 271 732 l 286 608 l 299 608 q 390 692 339 661 q 498 735 440 722 q 611 749 556 749 q 785 716 715 749 q 890 617 856 683 q 925 449 925 550 l 925 0 l 708 0 l 708 414 q 696 488 708 457 q 661 539 683 519 q 606 567 639 558 q 533 576 574 576 q 425 552 475 576 q 344 485 375 528 q 313 386 313 443 l 313 0 l 96 0 m -8 729 l -8 815 q 69 843 43 818 q 96 910 96 868 l -1 910 l -1 1100 l 208 1100 l 208 953 q 184 831 208 879 q 111 757 160 782 q -8 729 63 732 z "},"ň":{"ha":1017,"x_min":96,"x_max":925,"o":"m 96 0 l 96 732 l 271 732 l 286 608 l 299 608 q 390 692 339 661 q 498 735 440 722 q 611 749 556 749 q 785 716 715 749 q 890 617 856 683 q 925 449 925 550 l 925 0 l 708 0 l 708 414 q 696 488 708 457 q 661 539 683 519 q 606 567 639 558 q 533 576 574 576 q 425 552 475 576 q 344 485 375 528 q 313 386 313 443 l 313 0 l 96 0 m 207 1006 l 376 1006 l 553 849 l 460 849 l 636 1006 l 810 1006 l 589 808 l 426 808 l 207 1006 z "},"ņ":{"ha":1017,"x_min":96,"x_max":925,"o":"m 96 0 l 96 732 l 271 732 l 286 608 l 299 608 q 390 692 339 661 q 498 735 440 722 q 611 749 556 749 q 785 716 715 749 q 890 617 856 683 q 925 449 925 550 l 925 0 l 708 0 l 708 414 q 696 488 708 457 q 661 539 683 519 q 606 567 639 558 q 533 576 574 576 q 425 552 475 576 q 344 485 375 528 q 313 386 313 443 l 313 0 l 96 0 m 396 -482 l 396 -393 q 473 -357 446 -387 q 500 -278 500 -326 l 404 -278 l 404 -89 l 613 -89 l 613 -254 q 589 -373 613 -325 q 517 -449 565 -421 q 396 -482 469 -476 z "},"ŋ":{"ha":1017,"x_min":96,"x_max":925,"o":"m 661 -279 q 617 -276 642 -279 q 569 -269 592 -274 q 528 -260 546 -264 l 528 -121 l 603 -121 q 681 -94 654 -121 q 708 -21 708 -68 l 708 414 q 696 488 708 457 q 661 539 683 519 q 606 567 639 558 q 533 576 574 576 q 425 552 475 576 q 344 485 375 528 q 313 386 313 443 l 313 0 l 96 0 l 96 732 l 271 732 l 286 608 l 299 608 q 390 692 339 661 q 498 735 440 722 q 611 749 556 749 q 785 716 715 749 q 890 617 856 683 q 925 449 925 550 l 925 3 q 916 -112 925 -61 q 880 -201 907 -164 q 801 -259 853 -239 q 661 -279 749 -279 z "},"ɲ":{"ha":1017,"x_min":-85,"x_max":925,"o":"m 49 -279 q 4 -276 29 -279 q -44 -269 -21 -274 q -85 -260 -67 -264 l -85 -121 l -10 -121 q 69 -94 42 -121 q 96 -21 96 -68 l 96 732 l 271 732 l 286 608 l 299 608 q 390 692 339 661 q 498 735 440 722 q 611 749 556 749 q 785 716 715 749 q 890 617 856 683 q 925 449 925 550 l 925 0 l 708 0 l 708 414 q 696 488 708 457 q 661 539 683 519 q 606 567 639 558 q 533 576 574 576 q 425 552 475 576 q 344 485 375 528 q 313 386 313 443 l 313 3 q 303 -112 313 -61 q 267 -201 294 -164 q 188 -259 240 -239 q 49 -279 136 -279 z "},"ǌ":{"ha":1422,"x_min":96,"x_max":1329,"o":"m 96 0 l 96 732 l 271 732 l 286 608 l 299 608 q 390 692 339 661 q 498 735 440 722 q 611 749 556 749 q 785 716 715 749 q 890 617 856 683 q 925 449 925 550 l 925 0 l 708 0 l 708 414 q 696 488 708 457 q 661 539 683 519 q 606 567 639 558 q 533 576 574 576 q 425 552 475 576 q 344 485 375 528 q 313 386 313 443 l 313 0 l 96 0 m 1111 844 l 1111 1006 l 1329 1006 l 1329 844 l 1111 844 m 1082 -279 q 1032 -276 1060 -279 q 978 -268 1004 -274 q 932 -256 953 -262 l 932 -121 l 1007 -121 q 1084 -94 1057 -121 q 1111 -21 1111 -68 l 1111 732 l 1329 732 l 1329 -25 q 1306 -162 1329 -104 q 1230 -249 1283 -219 q 1082 -279 1176 -279 z "},"ñ":{"ha":1017,"x_min":96,"x_max":925,"o":"m 96 0 l 96 732 l 271 732 l 286 608 l 299 608 q 390 692 339 661 q 498 735 440 722 q 611 749 556 749 q 785 716 715 749 q 890 617 856 683 q 925 449 925 550 l 925 0 l 708 0 l 708 414 q 696 488 708 457 q 661 539 683 519 q 606 567 639 558 q 533 576 574 576 q 425 552 475 576 q 344 485 375 528 q 313 386 313 443 l 313 0 l 96 0 m 178 828 q 203 908 179 867 q 270 978 226 950 q 376 1006 314 1006 q 476 992 428 1006 q 569 963 524 978 q 658 949 615 949 q 708 966 690 949 q 732 1006 725 983 l 838 1006 q 811 924 836 965 q 742 854 786 882 q 636 826 699 826 q 539 841 588 826 q 444 869 490 856 q 357 883 399 883 q 306 866 324 883 q 279 828 288 849 l 178 828 z "},"o":{"ha":1056,"x_min":65,"x_max":990,"o":"m 528 -17 q 281 26 385 -17 q 122 155 178 69 q 65 367 65 240 q 122 579 65 494 q 281 706 178 664 q 528 749 385 749 q 774 706 671 749 q 934 579 878 664 q 990 367 990 494 q 934 155 990 240 q 774 26 878 69 q 528 -17 671 -17 m 528 142 q 656 167 603 142 q 738 240 710 193 q 765 353 765 288 l 765 381 q 738 494 765 447 q 656 565 710 540 q 528 590 603 590 q 399 565 451 590 q 318 494 346 540 q 290 381 290 447 l 290 353 q 318 240 290 288 q 399 167 346 193 q 528 142 451 142 z "},"ó":{"ha":1056,"x_min":65,"x_max":990,"o":"m 528 -17 q 281 26 385 -17 q 122 155 178 69 q 65 367 65 240 q 122 579 65 494 q 281 706 178 664 q 528 749 385 749 q 774 706 671 749 q 934 579 878 664 q 990 367 990 494 q 934 155 990 240 q 774 26 878 69 q 528 -17 671 -17 m 528 142 q 656 167 603 142 q 738 240 710 193 q 765 353 765 288 l 765 381 q 738 494 765 447 q 656 565 710 540 q 528 590 603 590 q 399 565 451 590 q 318 494 346 540 q 290 381 290 447 l 290 353 q 318 240 290 288 q 399 167 346 193 q 528 142 451 142 m 372 821 l 532 1006 l 779 1006 l 779 999 l 551 821 l 372 821 z "},"ŏ":{"ha":1056,"x_min":65,"x_max":990,"o":"m 528 -17 q 281 26 385 -17 q 122 155 178 69 q 65 367 65 240 q 122 579 65 494 q 281 706 178 664 q 528 749 385 749 q 774 706 671 749 q 934 579 878 664 q 990 367 990 494 q 934 155 990 240 q 774 26 878 69 q 528 -17 671 -17 m 528 142 q 656 167 603 142 q 738 240 710 193 q 765 353 765 288 l 765 381 q 738 494 765 447 q 656 565 710 540 q 528 590 603 590 q 399 565 451 590 q 318 494 346 540 q 290 381 290 447 l 290 353 q 318 240 290 288 q 399 167 346 193 q 528 142 451 142 m 526 819 q 367 848 431 819 q 272 919 303 876 q 242 1006 242 963 l 367 1006 q 392 971 372 988 q 447 944 413 954 q 526 933 482 933 q 613 945 579 933 q 666 974 647 957 q 688 1006 685 992 l 813 1006 q 781 919 813 963 q 687 848 750 876 q 526 819 624 819 z "},"ǒ":{"ha":1056,"x_min":65,"x_max":990,"o":"m 528 -17 q 281 26 385 -17 q 122 155 178 69 q 65 367 65 240 q 122 579 65 494 q 281 706 178 664 q 528 749 385 749 q 774 706 671 749 q 934 579 878 664 q 990 367 990 494 q 934 155 990 240 q 774 26 878 69 q 528 -17 671 -17 m 528 142 q 656 167 603 142 q 738 240 710 193 q 765 353 765 288 l 765 381 q 738 494 765 447 q 656 565 710 540 q 528 590 603 590 q 399 565 451 590 q 318 494 346 540 q 290 381 290 447 l 290 353 q 318 240 290 288 q 399 167 346 193 q 528 142 451 142 m 226 1006 l 396 1006 l 572 849 l 479 849 l 656 1006 l 829 1006 l 608 808 l 446 808 l 226 1006 z "},"ô":{"ha":1056,"x_min":65,"x_max":990,"o":"m 528 -17 q 281 26 385 -17 q 122 155 178 69 q 65 367 65 240 q 122 579 65 494 q 281 706 178 664 q 528 749 385 749 q 774 706 671 749 q 934 579 878 664 q 990 367 990 494 q 934 155 990 240 q 774 26 878 69 q 528 -17 671 -17 m 528 142 q 656 167 603 142 q 738 240 710 193 q 765 353 765 288 l 765 381 q 738 494 765 447 q 656 565 710 540 q 528 590 603 590 q 399 565 451 590 q 318 494 346 540 q 290 381 290 447 l 290 353 q 318 240 290 288 q 399 167 346 193 q 528 142 451 142 m 226 808 l 446 1006 l 608 1006 l 829 808 l 656 808 l 479 965 l 572 965 l 396 808 l 226 808 z "},"ố":{"ha":1056,"x_min":65,"x_max":990,"o":"m 528 -17 q 281 26 385 -17 q 122 155 178 69 q 65 367 65 240 q 122 579 65 494 q 281 706 178 664 q 528 749 385 749 q 774 706 671 749 q 934 579 878 664 q 990 367 990 494 q 934 155 990 240 q 774 26 878 69 q 528 -17 671 -17 m 528 142 q 656 167 603 142 q 738 240 710 193 q 765 353 765 288 l 765 381 q 738 494 765 447 q 656 565 710 540 q 528 590 603 590 q 399 565 451 590 q 318 494 346 540 q 290 381 290 447 l 290 353 q 318 240 290 288 q 399 167 346 193 q 528 142 451 142 m 226 808 l 446 1006 l 608 1006 l 829 808 l 656 808 l 479 965 l 572 965 l 396 808 l 226 808 m 372 1075 l 532 1260 l 779 1260 l 779 1253 l 551 1075 l 372 1075 z "},"ộ":{"ha":1056,"x_min":65,"x_max":990,"o":"m 528 -17 q 281 26 385 -17 q 122 155 178 69 q 65 367 65 240 q 122 579 65 494 q 281 706 178 664 q 528 749 385 749 q 774 706 671 749 q 934 579 878 664 q 990 367 990 494 q 934 155 990 240 q 774 26 878 69 q 528 -17 671 -17 m 528 142 q 656 167 603 142 q 738 240 710 193 q 765 353 765 288 l 765 381 q 738 494 765 447 q 656 565 710 540 q 528 590 603 590 q 399 565 451 590 q 318 494 346 540 q 290 381 290 447 l 290 353 q 318 240 290 288 q 399 167 346 193 q 528 142 451 142 m 428 -275 l 428 -106 l 628 -106 l 628 -275 l 428 -275 m 226 808 l 446 1006 l 608 1006 l 829 808 l 656 808 l 479 965 l 572 965 l 396 808 l 226 808 z "},"ồ":{"ha":1056,"x_min":65,"x_max":990,"o":"m 528 -17 q 281 26 385 -17 q 122 155 178 69 q 65 367 65 240 q 122 579 65 494 q 281 706 178 664 q 528 749 385 749 q 774 706 671 749 q 934 579 878 664 q 990 367 990 494 q 934 155 990 240 q 774 26 878 69 q 528 -17 671 -17 m 528 142 q 656 167 603 142 q 738 240 710 193 q 765 353 765 288 l 765 381 q 738 494 765 447 q 656 565 710 540 q 528 590 603 590 q 399 565 451 590 q 318 494 346 540 q 290 381 290 447 l 290 353 q 318 240 290 288 q 399 167 346 193 q 528 142 451 142 m 226 808 l 446 1006 l 608 1006 l 829 808 l 656 808 l 479 965 l 572 965 l 396 808 l 226 808 m 686 1075 l 507 1075 l 279 1253 l 279 1260 l 526 1260 l 686 1075 z "},"ổ":{"ha":1056,"x_min":65,"x_max":990,"o":"m 528 -17 q 281 26 385 -17 q 122 155 178 69 q 65 367 65 240 q 122 579 65 494 q 281 706 178 664 q 528 749 385 749 q 774 706 671 749 q 934 579 878 664 q 990 367 990 494 q 934 155 990 240 q 774 26 878 69 q 528 -17 671 -17 m 528 142 q 656 167 603 142 q 738 240 710 193 q 765 353 765 288 l 765 381 q 738 494 765 447 q 656 565 710 540 q 528 590 603 590 q 399 565 451 590 q 318 494 346 540 q 290 381 290 447 l 290 353 q 318 240 290 288 q 399 167 346 193 q 528 142 451 142 m 226 808 l 446 1006 l 608 1006 l 829 808 l 656 808 l 479 965 l 572 965 l 396 808 l 226 808 m 471 1075 l 471 1154 l 479 1154 q 531 1158 519 1154 q 542 1175 542 1163 q 526 1196 542 1192 q 483 1200 511 1200 l 375 1200 l 375 1268 q 422 1275 393 1272 q 479 1279 450 1278 q 526 1281 508 1281 q 585 1276 553 1281 q 647 1262 618 1272 q 695 1233 676 1251 q 714 1188 714 1215 q 696 1145 714 1163 q 649 1120 678 1128 q 585 1111 619 1113 l 585 1075 l 471 1075 z "},"ỗ":{"ha":1056,"x_min":65,"x_max":990,"o":"m 528 -17 q 281 26 385 -17 q 122 155 178 69 q 65 367 65 240 q 122 579 65 494 q 281 706 178 664 q 528 749 385 749 q 774 706 671 749 q 934 579 878 664 q 990 367 990 494 q 934 155 990 240 q 774 26 878 69 q 528 -17 671 -17 m 528 142 q 656 167 603 142 q 738 240 710 193 q 765 353 765 288 l 765 381 q 738 494 765 447 q 656 565 710 540 q 528 590 603 590 q 399 565 451 590 q 318 494 346 540 q 290 381 290 447 l 290 353 q 318 240 290 288 q 399 167 346 193 q 528 142 451 142 m 226 808 l 446 1006 l 608 1006 l 829 808 l 656 808 l 479 965 l 572 965 l 396 808 l 226 808 m 197 1081 q 222 1163 199 1121 q 290 1232 246 1204 q 396 1260 333 1260 q 495 1246 447 1260 q 589 1217 543 1232 q 678 1203 635 1203 q 728 1219 710 1203 q 751 1260 746 1236 l 857 1260 q 831 1178 856 1219 q 762 1108 806 1136 q 656 1081 718 1081 q 558 1095 607 1081 q 464 1124 510 1110 q 376 1138 418 1138 q 326 1120 344 1138 q 300 1081 307 1103 l 197 1081 z "},"ȍ":{"ha":1056,"x_min":65,"x_max":990,"o":"m 528 -17 q 281 26 385 -17 q 122 155 178 69 q 65 367 65 240 q 122 579 65 494 q 281 706 178 664 q 528 749 385 749 q 774 706 671 749 q 934 579 878 664 q 990 367 990 494 q 934 155 990 240 q 774 26 878 69 q 528 -17 671 -17 m 528 142 q 656 167 603 142 q 738 240 710 193 q 765 353 765 288 l 765 381 q 738 494 765 447 q 656 565 710 540 q 528 590 603 590 q 399 565 451 590 q 318 494 346 540 q 290 381 290 447 l 290 353 q 318 240 290 288 q 399 167 346 193 q 528 142 451 142 m 626 822 l 436 997 l 436 1007 l 665 1007 l 778 822 l 626 822 m 294 822 l 104 997 l 104 1007 l 332 1007 l 446 822 l 294 822 z "},"ö":{"ha":1056,"x_min":65,"x_max":990,"o":"m 528 -17 q 281 26 385 -17 q 122 155 178 69 q 65 367 65 240 q 122 579 65 494 q 281 706 178 664 q 528 749 385 749 q 774 706 671 749 q 934 579 878 664 q 990 367 990 494 q 934 155 990 240 q 774 26 878 69 q 528 -17 671 -17 m 528 142 q 656 167 603 142 q 738 240 710 193 q 765 353 765 288 l 765 381 q 738 494 765 447 q 656 565 710 540 q 528 590 603 590 q 399 565 451 590 q 318 494 346 540 q 290 381 290 447 l 290 353 q 318 240 290 288 q 399 167 346 193 q 528 142 451 142 m 249 831 l 249 1003 l 447 1003 l 447 831 l 249 831 m 607 831 l 607 1003 l 807 1003 l 807 831 l 607 831 z "},"ȫ":{"ha":1056,"x_min":65,"x_max":990,"o":"m 528 -17 q 281 26 385 -17 q 122 155 178 69 q 65 367 65 240 q 122 579 65 494 q 281 706 178 664 q 528 749 385 749 q 774 706 671 749 q 934 579 878 664 q 990 367 990 494 q 934 155 990 240 q 774 26 878 69 q 528 -17 671 -17 m 528 142 q 656 167 603 142 q 738 240 710 193 q 765 353 765 288 l 765 381 q 738 494 765 447 q 656 565 710 540 q 528 590 603 590 q 399 565 451 590 q 318 494 346 540 q 290 381 290 447 l 290 353 q 318 240 290 288 q 399 167 346 193 q 528 142 451 142 m 249 831 l 249 1003 l 447 1003 l 447 831 l 249 831 m 607 831 l 607 1003 l 807 1003 l 807 831 l 607 831 m 260 1099 l 260 1213 l 794 1213 l 794 1099 l 260 1099 z "}}}
